M48
;Layer_Color=9474304
;FILE_FORMAT=4:4
METRIC,LZ
;TYPE=PLATED
T3F00S00C0.7620
T4F00S00C0.8000
T7F00S00C1.0000
T10F00S00C1.5000
%
G90
G05
T03
G00X0011869Y00523
M15
G01X0009631
M16
G00X001375Y0058119
M15
G01Y0055881
M16
G00X000775Y0058119
M15
G01Y0055881
M16
T04
G00X0031Y000325
M15
G01Y000375
M16
G00X0031Y000775
M15
G01Y000825
M16
G00X00375Y000775
M15
G01Y000825
M16
G00X00405Y000775
M15
G01Y000825
M16
G00X00405Y000325
M15
G01Y000375
M16
G00X00375Y000325
M15
G01Y000375
M16
G00X0047Y000325
M15
G01Y000375
M16
G00X005Y000325
M15
G01Y000375
M16
G00X005Y000775
M15
G01Y000825
M16
G00X0047Y000775
M15
G01Y000825
M16
G00X00565Y000775
M15
G01Y000825
M16
G00X00595Y000775
M15
G01Y000825
M16
G00X00595Y000325
M15
G01Y000375
M16
G00X00565Y000325
M15
G01Y000375
M16
G00X0066Y000325
M15
G01Y000375
M16
G00X0066Y000775
M15
G01Y000825
M16
G00X0066Y001475
M15
G01Y001525
M16
G00X0066Y001925
M15
G01Y001975
M16
G00X00595Y001925
M15
G01Y001975
M16
G00X00565Y001925
M15
G01Y001975
M16
G00X00565Y001475
M15
G01Y001525
M16
G00X00595Y001475
M15
G01Y001525
M16
G00X00902Y00486944
M15
G01X0091Y00487056
M16
G00X00902Y00511944
M15
G01X0091Y00512056
M16
G00X005Y001925
M15
G01Y001975
M16
G00X0047Y001925
M15
G01Y001975
M16
G00X0047Y001475
M15
G01Y001525
M16
G00X005Y001475
M15
G01Y001525
M16
G00X00405Y001475
M15
G01Y001525
M16
G00X00375Y001475
M15
G01Y001525
M16
G00X00375Y001925
M15
G01Y001975
M16
G00X00405Y001925
M15
G01Y001975
M16
G00X0031Y001925
M15
G01Y001975
M16
G00X0031Y001475
M15
G01Y001525
M16
G00X00902Y00561944
M15
G01X0091Y00562056
M16
G00X00902Y00586944
M15
G01X0091Y00587056
M16
G00X00955944Y00541
M15
G01X00956056Y00533
M16
T07
G00X009046Y003173
M15
G01X008896
M16
G00X009056Y004383
M15
G01X008906
M16
T10
G00X007255Y00148
M15
G01Y00138
M16
G00X00883Y001505
M15
G01Y001405
M16
M17
M30
