G04*
G04 #@! TF.GenerationSoftware,Altium Limited,Altium Designer,19.1.8 (144)*
G04*
G04 Layer_Color=32896*
%FSLAX44Y44*%
%MOMM*%
G71*
G01*
G75*
%ADD10C,0.2540*%
%ADD17C,0.1500*%
D10*
X217500Y335250D02*
X217500Y341500D01*
X245000Y335250D02*
Y341500D01*
Y261000D02*
X245000Y267250D01*
X217250Y267500D02*
X217250Y261250D01*
X221500Y360500D02*
X225250Y341750D01*
X217500Y261000D02*
X245000D01*
X217500Y341500D02*
X245000D01*
X236500Y342500D02*
X240250Y361250D01*
D17*
X233335Y392998D02*
X240000Y383000D01*
Y392998D02*
X233335D01*
X240000Y383000D02*
X233335D01*
X228241Y392998D02*
X229193Y392522D01*
X230145Y391570D01*
X230621Y390617D01*
X231097Y389189D01*
Y386809D01*
X230621Y385380D01*
X230145Y384428D01*
X229193Y383476D01*
X228241Y383000D01*
X226336D01*
X225384Y383476D01*
X224432Y384428D01*
X223956Y385380D01*
X223480Y386809D01*
Y389189D01*
X223956Y390617D01*
X224432Y391570D01*
X225384Y392522D01*
X226336Y392998D01*
X228241D01*
X226812Y384904D02*
X223956Y382048D01*
X221147Y391093D02*
X220195Y391570D01*
X218766Y392998D01*
Y383000D01*
X276617Y361141D02*
X277570Y360665D01*
X278522Y359713D01*
X278998Y358761D01*
Y356856D01*
X278522Y355904D01*
X277570Y354952D01*
X276617Y354476D01*
X275189Y354000D01*
X272809D01*
X271380Y354476D01*
X270428Y354952D01*
X269476Y355904D01*
X269000Y356856D01*
Y358761D01*
X269476Y359713D01*
X270428Y360665D01*
X271380Y361141D01*
X277570Y369663D02*
X278522Y369187D01*
X278998Y367759D01*
Y366807D01*
X278522Y365378D01*
X277094Y364426D01*
X274713Y363950D01*
X272333D01*
X270428Y364426D01*
X269476Y365378D01*
X269000Y366807D01*
Y367283D01*
X269476Y368711D01*
X270428Y369663D01*
X271856Y370139D01*
X272333D01*
X273761Y369663D01*
X274713Y368711D01*
X275189Y367283D01*
Y366807D01*
X274713Y365378D01*
X273761Y364426D01*
X272333Y363950D01*
X192617Y361141D02*
X193570Y360665D01*
X194522Y359713D01*
X194998Y358761D01*
Y356856D01*
X194522Y355904D01*
X193570Y354952D01*
X192617Y354476D01*
X191189Y354000D01*
X188809D01*
X187380Y354476D01*
X186428Y354952D01*
X185476Y355904D01*
X185000Y356856D01*
Y358761D01*
X185476Y359713D01*
X186428Y360665D01*
X187380Y361141D01*
X194998Y368711D02*
X188333Y363950D01*
Y371092D01*
X194998Y368711D02*
X185000D01*
M02*
