G04*
G04 #@! TF.GenerationSoftware,Altium Limited,Altium Designer,19.1.8 (144)*
G04*
G04 Layer_Color=65535*
%FSLAX44Y44*%
%MOMM*%
G71*
G01*
G75*
%ADD10C,0.2540*%
%ADD11C,0.2000*%
%ADD12C,0.2500*%
%ADD13C,0.5000*%
%ADD14C,0.6000*%
%ADD15C,0.1000*%
%ADD16C,0.0254*%
%ADD17C,0.1500*%
%ADD18R,0.3750X1.0750*%
%ADD19R,0.3500X0.3000*%
D10*
X645500Y59000D02*
G03*
X645500Y59000I-17500J0D01*
G01*
Y174000D02*
G03*
X645500Y174000I-17500J0D01*
G01*
X550500Y174000D02*
G03*
X550500Y174000I-17500J0D01*
G01*
Y59000D02*
G03*
X550500Y59000I-17500J0D01*
G01*
X455500Y174000D02*
G03*
X455500Y174000I-17500J0D01*
G01*
Y59000D02*
G03*
X455500Y59000I-17500J0D01*
G01*
X360500Y174000D02*
G03*
X360500Y174000I-17500J0D01*
G01*
Y59000D02*
G03*
X360500Y59000I-17500J0D01*
G01*
X616000Y90000D02*
X641000D01*
X616000Y25000D02*
X641000D01*
X616000Y140000D02*
X641000D01*
X616000Y205000D02*
X641000D01*
X521000Y205000D02*
X546000D01*
X521000Y140000D02*
X546000D01*
X521000Y25000D02*
X546000D01*
X521000Y90000D02*
X546000D01*
X426000Y205000D02*
X451000D01*
X426000Y140000D02*
X451000D01*
X426000Y25000D02*
X451000D01*
X426000Y90000D02*
X451000D01*
X331000Y205000D02*
X356000D01*
X331000Y140000D02*
X356000D01*
X331000Y25000D02*
X356000D01*
X331000Y90000D02*
X356000D01*
X548200Y273000D02*
X679200D01*
X548200Y245000D02*
X679200D01*
Y273000D01*
X548200Y245000D02*
Y273000D01*
X529262Y421990D02*
X554010Y446738D01*
X541990Y409262D02*
X566738Y434010D01*
X554010Y446738D02*
X556309Y444440D01*
X564440Y436309D02*
X566738Y434010D01*
X539515Y411737D02*
X541813Y409438D01*
X529262Y421990D02*
X531560Y419692D01*
X175900Y685300D02*
X450900D01*
X175900D02*
X178400D01*
X180900Y530300D02*
Y635300D01*
Y530300D02*
X445900D01*
Y635300D01*
X180900D02*
X445900D01*
X242900Y407300D02*
Y423800D01*
X382900D01*
Y408800D02*
Y423800D01*
X450900Y407800D02*
Y685300D01*
X175900Y407300D02*
Y685300D01*
X382900Y407800D02*
X450650D01*
X175900Y407300D02*
X242900D01*
X31000Y172800D02*
Y188800D01*
X48000Y155000D02*
X64000D01*
X48000Y210800D02*
X64000D01*
X82000Y172800D02*
Y188800D01*
X31000Y308000D02*
Y324000D01*
X48000Y290200D02*
X64000D01*
X48000Y346000D02*
X64000D01*
X82000Y308000D02*
Y324000D01*
D11*
X735700Y228000D02*
G03*
X723000Y215300I0J-12700D01*
G01*
Y30700D02*
G03*
X735700Y18000I12700J0D01*
G01*
X875300D02*
G03*
X888000Y30700I0J12700D01*
G01*
Y215300D02*
G03*
X875300Y228000I-12700J0D01*
G01*
X856151Y128000D02*
G03*
X856151Y128000I-53151J0D01*
G01*
X28690Y425170D02*
X155690D01*
X28690Y376170D02*
X155690D01*
X28690D02*
Y425170D01*
X155690Y376170D02*
Y425170D01*
X144500Y523000D02*
Y535000D01*
X144500Y607000D02*
Y615000D01*
X7500Y522000D02*
X71500Y522000D01*
X7500Y615000D02*
X144500Y615000D01*
X888000Y171000D02*
Y215300D01*
Y32000D02*
Y115000D01*
X723000Y32000D02*
Y115000D01*
X735700Y228000D02*
X803000D01*
X723000Y171000D02*
Y215300D01*
X735700Y18000D02*
X875300D01*
X803000Y228000D02*
X875300D01*
X79500Y498225D02*
X89000D01*
Y472225D02*
Y498225D01*
X43000D02*
X52500D01*
X43000Y472225D02*
Y498225D01*
X142500Y463000D02*
Y517000D01*
X172500Y463000D02*
Y517000D01*
X168500Y463000D02*
X172500D01*
X142500D02*
X146500D01*
X142500Y517000D02*
X146500D01*
X168500D02*
X172500D01*
X168500Y467000D02*
X171500D01*
X168500Y465000D02*
Y467000D01*
Y463000D02*
Y465000D01*
Y463000D02*
X171500D01*
Y466000D01*
X169500D02*
X171500D01*
X169500Y464000D02*
Y466000D01*
X146500Y463000D02*
Y467000D01*
X143500D02*
X146500D01*
X143500Y464000D02*
Y467000D01*
Y464000D02*
X145500D01*
X143500Y465000D02*
Y466000D01*
X145500Y465000D02*
Y466000D01*
X144500Y465000D02*
X145500D01*
X881250Y597000D02*
X976000D01*
X881250Y477000D02*
Y597000D01*
Y477000D02*
X976000D01*
X537828Y463657D02*
X540657Y460828D01*
X529343Y455172D02*
X532172Y452343D01*
X512343Y438172D02*
X515172Y435343D01*
X520828Y446657D02*
X523657Y443828D01*
X763000Y505000D02*
X817000D01*
X763000Y475000D02*
X817000D01*
X763000D02*
Y479000D01*
Y501000D02*
Y505000D01*
X817000Y501000D02*
Y505000D01*
Y475000D02*
Y479000D01*
X767000Y476000D02*
Y479000D01*
X765000D02*
X767000D01*
X763000D02*
X765000D01*
X763000Y476000D02*
Y479000D01*
Y476000D02*
X766000D01*
Y478000D01*
X764000D02*
X766000D01*
X763000Y501000D02*
X767000D01*
Y504000D01*
X764000D02*
X767000D01*
X764000Y502000D02*
Y504000D01*
X765000D02*
X766000D01*
X765000Y502000D02*
X766000D01*
X765000D02*
Y503000D01*
X110000Y200000D02*
X118000D01*
X110000D02*
Y210000D01*
X132000Y200000D02*
X140000D01*
Y210000D01*
X158500Y310000D02*
X166500D01*
Y300000D02*
Y310000D01*
X136500D02*
X144500D01*
X136500Y300000D02*
Y310000D01*
X216500Y266425D02*
X247500D01*
X216500Y353425D02*
X247500D01*
Y266425D02*
Y353425D01*
X216500Y266425D02*
Y353425D01*
X751500Y321250D02*
X789500D01*
X751500Y423250D02*
X789500D01*
Y321250D02*
Y423250D01*
X751500Y321250D02*
Y423250D01*
X564000Y396000D02*
X564000Y334000D01*
X626000D02*
Y396000D01*
X564000Y334000D02*
X626000D01*
X564000Y396000D02*
X626000D01*
D12*
X43750Y465725D02*
G03*
X43750Y465725I-1250J0D01*
G01*
X144250Y219000D02*
G03*
X144250Y219000I-1250J0D01*
G01*
X134750Y291000D02*
G03*
X134750Y291000I-1250J0D01*
G01*
X206250Y352600D02*
G03*
X206250Y352600I-1250J0D01*
G01*
X736750Y422250D02*
G03*
X736750Y422250I-1250J0D01*
G01*
X632250Y407000D02*
G03*
X632250Y407000I-1250J0D01*
G01*
X835100Y317300D02*
X866100D01*
X835100D02*
Y438300D01*
X866100D01*
D13*
X536200Y259000D02*
G03*
X536200Y259000I-1000J0D01*
G01*
D14*
X229500Y343425D02*
G03*
X229500Y343425I-3000J0D01*
G01*
X764500Y413250D02*
G03*
X764500Y413250I-3000J0D01*
G01*
X619000Y386000D02*
G03*
X619000Y386000I-3000J0D01*
G01*
D15*
X638000Y450000D02*
X648000D01*
X638000Y464000D02*
X648000D01*
X755000Y434000D02*
X765000D01*
X755000Y448000D02*
X765000D01*
X755000Y455000D02*
X765000Y455000D01*
X755000Y469000D02*
X765000D01*
D16*
X424048Y246182D02*
X435224D01*
X421508Y246436D02*
X437764D01*
X419476Y246690D02*
X439796D01*
X417952Y246944D02*
X441320D01*
X416682Y247198D02*
X442844D01*
X415412Y247452D02*
X443860D01*
X414142Y247706D02*
X445130D01*
X413126Y247960D02*
X446146D01*
X435224Y248214D02*
X447162D01*
X412110D02*
X424048D01*
X437764Y248468D02*
X447924D01*
X411348D02*
X421508D01*
X439542Y248722D02*
X448940D01*
X410332D02*
X419476D01*
X441066Y248976D02*
X449702D01*
X409570D02*
X418206D01*
X442590Y249230D02*
X450464D01*
X408808D02*
X416682D01*
X443606Y249484D02*
X451226D01*
X408046D02*
X415666D01*
X444876Y249738D02*
X451988D01*
X407284D02*
X414396D01*
X445892Y249992D02*
X452750D01*
X406522D02*
X413380D01*
X446908Y250246D02*
X453512D01*
X405760D02*
X412364D01*
X447670Y250500D02*
X454020D01*
X405252D02*
X411602D01*
X448686Y250754D02*
X454782D01*
X404490D02*
X410586D01*
X449448Y251008D02*
X455290D01*
X403982D02*
X409824D01*
X450210Y251262D02*
X456052D01*
X403220D02*
X409062D01*
X450972Y251516D02*
X456560D01*
X402712D02*
X408300D01*
X451734Y251770D02*
X457068D01*
X402204D02*
X407538D01*
X452496Y252024D02*
X457576D01*
X401696D02*
X406776D01*
X453004Y252278D02*
X458338D01*
X400934D02*
X406268D01*
X453766Y252532D02*
X458846D01*
X400426D02*
X405506D01*
X454274Y252786D02*
X459354D01*
X399918D02*
X404998D01*
X455036Y253040D02*
X459862D01*
X399410D02*
X404236D01*
X455544Y253294D02*
X460370D01*
X398902D02*
X403728D01*
X456052Y253548D02*
X460878D01*
X398394D02*
X403220D01*
X456560Y253802D02*
X461386D01*
X397886D02*
X402712D01*
X457322Y254056D02*
X461894D01*
X397378D02*
X401950D01*
X457830Y254310D02*
X462148D01*
X397124D02*
X401442D01*
X458338Y254564D02*
X462656D01*
X396616D02*
X400934D01*
X458846Y254818D02*
X463164D01*
X396108D02*
X400426D01*
X459354Y255072D02*
X463672D01*
X395600D02*
X399918D01*
X459862Y255326D02*
X463926D01*
X395346D02*
X399410D01*
X460370Y255580D02*
X464434D01*
X394838D02*
X398902D01*
X460878Y255834D02*
X464942D01*
X394330D02*
X398394D01*
X461386Y256088D02*
X465196D01*
X394076D02*
X398140D01*
X461640Y256342D02*
X465704D01*
X393568D02*
X397632D01*
X462148Y256596D02*
X465958D01*
X393314D02*
X397124D01*
X462656Y256850D02*
X466466D01*
X392806D02*
X396616D01*
X463164Y257104D02*
X466974D01*
X392552D02*
X396362D01*
X463418Y257358D02*
X467228D01*
X392044D02*
X395854D01*
X463926Y257612D02*
X467736D01*
X391790D02*
X395346D01*
X464180Y257866D02*
X467990D01*
X391282D02*
X395092D01*
X464688Y258120D02*
X468244D01*
X391028D02*
X394584D01*
X465196Y258374D02*
X468752D01*
X390520D02*
X394076D01*
X465450Y258628D02*
X469006D01*
X390266D02*
X393822D01*
X465958Y258882D02*
X469514D01*
X389758D02*
X393314D01*
X466212Y259136D02*
X469768D01*
X389504D02*
X393060D01*
X466720Y259390D02*
X470022D01*
X389250D02*
X392552D01*
X466974Y259644D02*
X470530D01*
X388742D02*
X392298D01*
X467228Y259898D02*
X470784D01*
X388488D02*
X392044D01*
X467736Y260152D02*
X471038D01*
X388234D02*
X391536D01*
X467990Y260406D02*
X471292D01*
X387980D02*
X391282D01*
X468498Y260660D02*
X471800D01*
X387472D02*
X390774D01*
X468752Y260914D02*
X472054D01*
X387218D02*
X390520D01*
X469006Y261168D02*
X472308D01*
X386964D02*
X390266D01*
X469514Y261422D02*
X472816D01*
X386710D02*
X389758D01*
X469768Y261676D02*
X473070D01*
X386202D02*
X389504D01*
X470022Y261930D02*
X473324D01*
X385948D02*
X389250D01*
X470276Y262184D02*
X473578D01*
X385694D02*
X388996D01*
X470784Y262438D02*
X473832D01*
X385440D02*
X388488D01*
X471038Y262692D02*
X474086D01*
X385186D02*
X388234D01*
X471292Y262946D02*
X474340D01*
X384932D02*
X387980D01*
X471546Y263200D02*
X474848D01*
X384424D02*
X387726D01*
X472054Y263454D02*
X475102D01*
X384170D02*
X387472D01*
X472308Y263708D02*
X475356D01*
X383916D02*
X386964D01*
X472562Y263962D02*
X475610D01*
X383662D02*
X386710D01*
X472816Y264216D02*
X475864D01*
X383408D02*
X386456D01*
X473070Y264470D02*
X476118D01*
X383154D02*
X386202D01*
X473324Y264724D02*
X476372D01*
X382900D02*
X385948D01*
X473578Y264978D02*
X476626D01*
X382646D02*
X385694D01*
X474086Y265232D02*
X476880D01*
X382392D02*
X385440D01*
X474340Y265486D02*
X477134D01*
X382138D02*
X385186D01*
X474594Y265740D02*
X477388D01*
X381884D02*
X384678D01*
X474848Y265994D02*
X477642D01*
X381630D02*
X384424D01*
X475102Y266248D02*
X477896D01*
X381376D02*
X384170D01*
X475356Y266502D02*
X478150D01*
X381122D02*
X383916D01*
X475610Y266756D02*
X478404D01*
X380868D02*
X383662D01*
X475864Y267010D02*
X478658D01*
X380614D02*
X383408D01*
X476118Y267264D02*
X478912D01*
X380360D02*
X383154D01*
X476372Y267518D02*
X479166D01*
X380106D02*
X382900D01*
X476626Y267772D02*
X479420D01*
X379852D02*
X382646D01*
X476880Y268026D02*
X479674D01*
X379598D02*
X382392D01*
X477134Y268280D02*
X479928D01*
X379344D02*
X382138D01*
X477388Y268534D02*
X480182D01*
X458592D02*
X469514D01*
X444622D02*
X457322D01*
X437256D02*
X444114D01*
X430144D02*
X435478D01*
X421508D02*
X425572D01*
X410332D02*
X416936D01*
X402204D02*
X409062D01*
X396362D02*
X401188D01*
X386202D02*
X393314D01*
X379344D02*
X381884D01*
X477642Y268788D02*
X480182D01*
X458592D02*
X470530D01*
X444622D02*
X457322D01*
X437256D02*
X444114D01*
X430144D02*
X435478D01*
X420746D02*
X426334D01*
X410332D02*
X416936D01*
X402204D02*
X409062D01*
X396108D02*
X401188D01*
X386202D02*
X393314D01*
X379090D02*
X381884D01*
X477642Y269042D02*
X480436D01*
X458592D02*
X471292D01*
X444622D02*
X457322D01*
X437256D02*
X444114D01*
X430144D02*
X435478D01*
X420238D02*
X426842D01*
X410332D02*
X416936D01*
X402204D02*
X409062D01*
X396108D02*
X401188D01*
X386202D02*
X393314D01*
X378836D02*
X381630D01*
X477896Y269296D02*
X480690D01*
X458592D02*
X471546D01*
X444622D02*
X457322D01*
X437256D02*
X444114D01*
X430144D02*
X435478D01*
X419730D02*
X427350D01*
X410332D02*
X416936D01*
X402204D02*
X409062D01*
X395854D02*
X401188D01*
X386202D02*
X393314D01*
X378582D02*
X381376D01*
X478150Y269550D02*
X480944D01*
X458592D02*
X471800D01*
X444622D02*
X457322D01*
X437256D02*
X444114D01*
X430144D02*
X435478D01*
X419476D02*
X427604D01*
X410332D02*
X416936D01*
X402204D02*
X409062D01*
X395854D02*
X401188D01*
X386202D02*
X393314D01*
X378328D02*
X381122D01*
X478404Y269804D02*
X481198D01*
X458592D02*
X472054D01*
X444622D02*
X457322D01*
X437256D02*
X444114D01*
X430144D02*
X435478D01*
X419222D02*
X428112D01*
X410332D02*
X416936D01*
X402204D02*
X409062D01*
X395600D02*
X401188D01*
X386202D02*
X393314D01*
X378074D02*
X380868D01*
X478658Y270058D02*
X481452D01*
X458592D02*
X472308D01*
X444622D02*
X457322D01*
X437256D02*
X444114D01*
X430144D02*
X435478D01*
X418968D02*
X428366D01*
X410332D02*
X416936D01*
X402204D02*
X409062D01*
X395600D02*
X401188D01*
X386202D02*
X393314D01*
X377820D02*
X380614D01*
X478912Y270312D02*
X481706D01*
X458592D02*
X472562D01*
X444622D02*
X457322D01*
X437256D02*
X444114D01*
X430144D02*
X435478D01*
X418714D02*
X428366D01*
X410332D02*
X416936D01*
X402204D02*
X409062D01*
X395346D02*
X401188D01*
X386202D02*
X393314D01*
X377820D02*
X380360D01*
X479166Y270566D02*
X481706D01*
X458592D02*
X472816D01*
X444622D02*
X457322D01*
X437256D02*
X444114D01*
X430144D02*
X435478D01*
X418460D02*
X428620D01*
X410332D02*
X416936D01*
X402204D02*
X409062D01*
X395092D02*
X401188D01*
X386202D02*
X393314D01*
X377566D02*
X380106D01*
X479420Y270820D02*
X481960D01*
X458592D02*
X472816D01*
X444622D02*
X457322D01*
X437256D02*
X444114D01*
X430144D02*
X435478D01*
X418460D02*
X428620D01*
X410332D02*
X416936D01*
X402204D02*
X409062D01*
X395092D02*
X401188D01*
X386202D02*
X393314D01*
X377312D02*
X379852D01*
X479674Y271074D02*
X482214D01*
X458592D02*
X472816D01*
X444622D02*
X457322D01*
X437256D02*
X444114D01*
X430144D02*
X435478D01*
X423794D02*
X428874D01*
X418460D02*
X422778D01*
X410332D02*
X416936D01*
X402204D02*
X409062D01*
X394838D02*
X401188D01*
X386202D02*
X393314D01*
X377058D02*
X379598D01*
X479674Y271328D02*
X482468D01*
X466466D02*
X473070D01*
X458592D02*
X464688D01*
X454274D02*
X457322D01*
X444622D02*
X450718D01*
X438526D02*
X444114D01*
X430144D02*
X434462D01*
X424302D02*
X428874D01*
X418206D02*
X422016D01*
X410332D02*
X416936D01*
X402204D02*
X409062D01*
X394838D02*
X401188D01*
X386202D02*
X393314D01*
X376804D02*
X379598D01*
X479928Y271582D02*
X482722D01*
X467228D02*
X473070D01*
X459608D02*
X464688D01*
X454274D02*
X457322D01*
X444876D02*
X450972D01*
X438272D02*
X443098D01*
X431414D02*
X434462D01*
X424556D02*
X428874D01*
X418206D02*
X421762D01*
X410840D02*
X416174D01*
X403220D02*
X408046D01*
X394584D02*
X400172D01*
X387218D02*
X392298D01*
X376804D02*
X379344D01*
X480182Y271836D02*
X482722D01*
X467482D02*
X473070D01*
X459608D02*
X464688D01*
X454274D02*
X457322D01*
X445130D02*
X451226D01*
X438272D02*
X443098D01*
X431414D02*
X434716D01*
X424556D02*
X429128D01*
X418206D02*
X421762D01*
X410586D02*
X415920D01*
X403220D02*
X408046D01*
X394584D02*
X399918D01*
X387218D02*
X392298D01*
X376550D02*
X379090D01*
X480436Y272090D02*
X482976D01*
X467482D02*
X473070D01*
X459608D02*
X464688D01*
X454274D02*
X457322D01*
X445384D02*
X451480D01*
X438272D02*
X442844D01*
X431414D02*
X434716D01*
X424810D02*
X429128D01*
X418206D02*
X421508D01*
X410332D02*
X415666D01*
X403220D02*
X408046D01*
X394330D02*
X399664D01*
X387218D02*
X392298D01*
X376296D02*
X378836D01*
X480690Y272344D02*
X483230D01*
X467482D02*
X473070D01*
X459608D02*
X464688D01*
X454274D02*
X457322D01*
X445638D02*
X451734D01*
X438018D02*
X442844D01*
X431668D02*
X434716D01*
X424810D02*
X429128D01*
X417952D02*
X421508D01*
X410078D02*
X415666D01*
X403220D02*
X408046D01*
X394330D02*
X399664D01*
X387218D02*
X392298D01*
X376042D02*
X378582D01*
X480944Y272598D02*
X483484D01*
X467482D02*
X472816D01*
X459608D02*
X464688D01*
X454274D02*
X457322D01*
X445892D02*
X451988D01*
X438018D02*
X442590D01*
X431668D02*
X434970D01*
X424810D02*
X428874D01*
X417952D02*
X421508D01*
X409824D02*
X415412D01*
X403220D02*
X408046D01*
X394076D02*
X399410D01*
X387218D02*
X392298D01*
X375788D02*
X378582D01*
X480944Y272852D02*
X483484D01*
X467482D02*
X472816D01*
X459608D02*
X464688D01*
X454274D02*
X457322D01*
X446146D02*
X452242D01*
X431668D02*
X442590D01*
X424556D02*
X428874D01*
X418968D02*
X421508D01*
X409824D02*
X415158D01*
X403220D02*
X408046D01*
X394076D02*
X399156D01*
X387218D02*
X392298D01*
X375788D02*
X378328D01*
X481198Y273106D02*
X483738D01*
X467482D02*
X472816D01*
X459608D02*
X464688D01*
X446400D02*
X452496D01*
X431922D02*
X442590D01*
X424556D02*
X428874D01*
X409570D02*
X414904D01*
X403220D02*
X408046D01*
X393822D02*
X399156D01*
X387218D02*
X392298D01*
X375534D02*
X378074D01*
X481452Y273360D02*
X483992D01*
X467228D02*
X472562D01*
X459608D02*
X464688D01*
X446654D02*
X452750D01*
X431922D02*
X442336D01*
X424302D02*
X428874D01*
X409316D02*
X414904D01*
X403220D02*
X408046D01*
X393822D02*
X398902D01*
X387218D02*
X392298D01*
X375280D02*
X377820D01*
X481706Y273614D02*
X484246D01*
X466466D02*
X472562D01*
X459608D02*
X464688D01*
X446654D02*
X453004D01*
X432176D02*
X442336D01*
X424048D02*
X428620D01*
X409062D02*
X414650D01*
X403220D02*
X408046D01*
X387218D02*
X398902D01*
X375026D02*
X377566D01*
X481706Y273868D02*
X484246D01*
X459608D02*
X472308D01*
X446908D02*
X453258D01*
X432176D02*
X442336D01*
X423286D02*
X428366D01*
X409062D02*
X414396D01*
X403220D02*
X408046D01*
X387218D02*
X398648D01*
X375026D02*
X377566D01*
X481960Y274122D02*
X484500D01*
X459608D02*
X472054D01*
X447162D02*
X453258D01*
X432176D02*
X442082D01*
X422778D02*
X428366D01*
X408808D02*
X414142D01*
X403220D02*
X408046D01*
X387218D02*
X398394D01*
X374772D02*
X377312D01*
X482214Y274376D02*
X484754D01*
X459608D02*
X471800D01*
X447416D02*
X453512D01*
X437510D02*
X442082D01*
X432430D02*
X435478D01*
X422778D02*
X428112D01*
X408554D02*
X413888D01*
X403220D02*
X408046D01*
X387218D02*
X398648D01*
X374518D02*
X377058D01*
X482468Y274630D02*
X484754D01*
X459608D02*
X471292D01*
X447670D02*
X453766D01*
X437510D02*
X442082D01*
X432430D02*
X435478D01*
X422778D02*
X427604D01*
X408300D02*
X413888D01*
X403220D02*
X408046D01*
X387218D02*
X399156D01*
X374518D02*
X376804D01*
X482468Y274884D02*
X485008D01*
X459608D02*
X470784D01*
X447924D02*
X454020D01*
X437256D02*
X441828D01*
X432430D02*
X435732D01*
X422778D02*
X427096D01*
X408300D02*
X413634D01*
X403220D02*
X408046D01*
X387218D02*
X399410D01*
X374264D02*
X376804D01*
X482722Y275138D02*
X485262D01*
X459608D02*
X470530D01*
X448178D02*
X454274D01*
X437256D02*
X441828D01*
X432684D02*
X435732D01*
X422778D02*
X426842D01*
X408300D02*
X413380D01*
X403220D02*
X408046D01*
X387218D02*
X399664D01*
X374010D02*
X376550D01*
X482976Y275392D02*
X485516D01*
X459608D02*
X471292D01*
X448432D02*
X454528D01*
X437256D02*
X441574D01*
X432684D02*
X435732D01*
X422778D02*
X427350D01*
X408554D02*
X413126D01*
X403220D02*
X408046D01*
X387218D02*
X399664D01*
X373756D02*
X376296D01*
X483230Y275646D02*
X485516D01*
X459608D02*
X471546D01*
X448432D02*
X454782D01*
X437002D02*
X441574D01*
X432684D02*
X435986D01*
X422778D02*
X427604D01*
X408808D02*
X413380D01*
X403220D02*
X408046D01*
X387218D02*
X399918D01*
X373756D02*
X376296D01*
X483230Y275900D02*
X485770D01*
X459608D02*
X471800D01*
X448686D02*
X455036D01*
X437002D02*
X441574D01*
X432938D02*
X435986D01*
X422778D02*
X427858D01*
X409316D02*
X413634D01*
X403220D02*
X408046D01*
X394076D02*
X399918D01*
X387218D02*
X392298D01*
X373502D02*
X376042D01*
X483484Y276154D02*
X486024D01*
X466466D02*
X472054D01*
X459608D02*
X464688D01*
X448940D02*
X455290D01*
X437002D02*
X441320D01*
X432938D02*
X435986D01*
X423032D02*
X428112D01*
X409570D02*
X413888D01*
X403220D02*
X408046D01*
X394838D02*
X400172D01*
X387218D02*
X392298D01*
X373248D02*
X375788D01*
X483738Y276408D02*
X486024D01*
X467228D02*
X472308D01*
X459608D02*
X464688D01*
X449194D02*
X455544D01*
X436748D02*
X441320D01*
X433192D02*
X436240D01*
X423794D02*
X428112D01*
X409824D02*
X414142D01*
X403220D02*
X408046D01*
X394838D02*
X400172D01*
X387218D02*
X392298D01*
X373248D02*
X375534D01*
X483738Y276662D02*
X486278D01*
X467228D02*
X472308D01*
X459608D02*
X464688D01*
X449448D02*
X455798D01*
X436748D02*
X441320D01*
X433192D02*
X436240D01*
X424048D02*
X428366D01*
X410078D02*
X414396D01*
X403220D02*
X408046D01*
X395092D02*
X400172D01*
X387218D02*
X392298D01*
X372994D02*
X375534D01*
X483992Y276916D02*
X486278D01*
X467482D02*
X472562D01*
X459608D02*
X464688D01*
X449702D02*
X456052D01*
X444876D02*
X447924D01*
X436748D02*
X441066D01*
X433192D02*
X436240D01*
X424302D02*
X428366D01*
X410332D02*
X414650D01*
X403220D02*
X408046D01*
X395092D02*
X400172D01*
X387218D02*
X392298D01*
X372994D02*
X375280D01*
X484246Y277170D02*
X486532D01*
X467228D02*
X472562D01*
X459608D02*
X464688D01*
X449956D02*
X456052D01*
X444876D02*
X447924D01*
X436748D02*
X441066D01*
X433446D02*
X436494D01*
X424302D02*
X428620D01*
X410586D02*
X414904D01*
X403220D02*
X408046D01*
X395092D02*
X400172D01*
X387218D02*
X392298D01*
X372740D02*
X375026D01*
X484246Y277424D02*
X486786D01*
X467228D02*
X472562D01*
X459608D02*
X464688D01*
X450210D02*
X456306D01*
X444876D02*
X447924D01*
X433446D02*
X440812D01*
X424302D02*
X428620D01*
X418714D02*
X421762D01*
X410840D02*
X415158D01*
X403220D02*
X408046D01*
X394838D02*
X400172D01*
X387218D02*
X392298D01*
X372486D02*
X375026D01*
X484500Y277678D02*
X486786D01*
X467228D02*
X472562D01*
X459608D02*
X464688D01*
X450464D02*
X456560D01*
X444876D02*
X447924D01*
X433446D02*
X440812D01*
X424302D02*
X428620D01*
X418206D02*
X422016D01*
X411094D02*
X415412D01*
X403220D02*
X408046D01*
X394838D02*
X400172D01*
X387218D02*
X392298D01*
X372486D02*
X374772D01*
X484754Y277932D02*
X487040D01*
X466466D02*
X472562D01*
X458592D02*
X464688D01*
X450464D02*
X456814D01*
X444876D02*
X447924D01*
X432684D02*
X441828D01*
X424302D02*
X428620D01*
X418206D02*
X422016D01*
X410332D02*
X416682D01*
X402204D02*
X409062D01*
X394076D02*
X400172D01*
X386202D02*
X392298D01*
X372232D02*
X374518D01*
X484754Y278186D02*
X487294D01*
X458592D02*
X472562D01*
X450718D02*
X457068D01*
X444876D02*
X447924D01*
X432684D02*
X441828D01*
X424302D02*
X428620D01*
X418460D02*
X422016D01*
X410332D02*
X416682D01*
X402204D02*
X409062D01*
X393314D02*
X400172D01*
X386202D02*
X392298D01*
X371978D02*
X374518D01*
X485008Y278440D02*
X487294D01*
X458592D02*
X472308D01*
X444876D02*
X457322D01*
X432684D02*
X441828D01*
X424048D02*
X428366D01*
X418460D02*
X422270D01*
X410332D02*
X416682D01*
X402204D02*
X409062D01*
X386202D02*
X399918D01*
X371978D02*
X374264D01*
X485262Y278694D02*
X487548D01*
X458592D02*
X472308D01*
X444876D02*
X457322D01*
X432684D02*
X441828D01*
X423540D02*
X428366D01*
X418460D02*
X422778D01*
X410332D02*
X416682D01*
X402204D02*
X409062D01*
X386202D02*
X399918D01*
X371724D02*
X374264D01*
X485262Y278948D02*
X487548D01*
X458592D02*
X472308D01*
X444876D02*
X457322D01*
X432684D02*
X441828D01*
X418460D02*
X428366D01*
X410332D02*
X416682D01*
X402204D02*
X409062D01*
X386202D02*
X399664D01*
X371724D02*
X374010D01*
X485516Y279202D02*
X487802D01*
X458592D02*
X472054D01*
X444876D02*
X457322D01*
X432684D02*
X441828D01*
X418714D02*
X428112D01*
X410332D02*
X416682D01*
X402204D02*
X409062D01*
X386202D02*
X399410D01*
X371470D02*
X373756D01*
X485516Y279456D02*
X488056D01*
X458592D02*
X471800D01*
X444876D02*
X457322D01*
X432684D02*
X441828D01*
X418714D02*
X428112D01*
X410332D02*
X416682D01*
X402204D02*
X409062D01*
X386202D02*
X399410D01*
X371216D02*
X373756D01*
X485770Y279710D02*
X488056D01*
X458592D02*
X471546D01*
X444876D02*
X457322D01*
X432684D02*
X441828D01*
X418968D02*
X427858D01*
X410332D02*
X416682D01*
X402204D02*
X409062D01*
X386202D02*
X399156D01*
X371216D02*
X373502D01*
X486024Y279964D02*
X488310D01*
X458592D02*
X471292D01*
X444876D02*
X457322D01*
X432684D02*
X441828D01*
X419222D02*
X427604D01*
X410332D02*
X416682D01*
X402204D02*
X409062D01*
X386202D02*
X398648D01*
X370962D02*
X373248D01*
X486024Y280218D02*
X488310D01*
X458592D02*
X471038D01*
X444876D02*
X457322D01*
X432684D02*
X441828D01*
X419476D02*
X427350D01*
X410332D02*
X416682D01*
X402204D02*
X409062D01*
X386202D02*
X398394D01*
X370962D02*
X373248D01*
X486278Y280472D02*
X488564D01*
X458592D02*
X470530D01*
X444876D02*
X457322D01*
X432684D02*
X441828D01*
X419730D02*
X427096D01*
X410332D02*
X416682D01*
X402204D02*
X409062D01*
X386202D02*
X397886D01*
X370708D02*
X372994D01*
X486278Y280726D02*
X488818D01*
X458592D02*
X469514D01*
X444876D02*
X457322D01*
X432684D02*
X441828D01*
X420238D02*
X426842D01*
X410332D02*
X416682D01*
X402204D02*
X409062D01*
X386202D02*
X396870D01*
X370708D02*
X372994D01*
X486532Y280980D02*
X488818D01*
X420746D02*
X426334D01*
X370454D02*
X372740D01*
X486532Y281234D02*
X489072D01*
X421508D02*
X425572D01*
X370200D02*
X372740D01*
X486786Y281488D02*
X489072D01*
X370200D02*
X372486D01*
X487040Y281742D02*
X489326D01*
X369946D02*
X372232D01*
X487040Y281996D02*
X489326D01*
X369946D02*
X372232D01*
X487294Y282250D02*
X489580D01*
X369692D02*
X371978D01*
X487294Y282504D02*
X489580D01*
X369692D02*
X371978D01*
X487548Y282758D02*
X489834D01*
X369438D02*
X371724D01*
X487548Y283012D02*
X489834D01*
X369438D02*
X371724D01*
X487802Y283266D02*
X490088D01*
X369184D02*
X371470D01*
X487802Y283520D02*
X490088D01*
X369184D02*
X371470D01*
X488056Y283774D02*
X490342D01*
X368930D02*
X371216D01*
X488056Y284028D02*
X490342D01*
X368930D02*
X371216D01*
X488310Y284282D02*
X490596D01*
X368676D02*
X370962D01*
X488310Y284536D02*
X490596D01*
X368676D02*
X370962D01*
X488564Y284790D02*
X490850D01*
X452496D02*
X453512D01*
X407792D02*
X409570D01*
X368422D02*
X370708D01*
X488564Y285044D02*
X490850D01*
X451734D02*
X454274D01*
X407284D02*
X409824D01*
X368422D02*
X370708D01*
X488818Y285298D02*
X491104D01*
X451480D02*
X454528D01*
X407284D02*
X410332D01*
X368168D02*
X370454D01*
X488818Y285552D02*
X491104D01*
X451226D02*
X454528D01*
X407030D02*
X410586D01*
X368168D02*
X370454D01*
X489072Y285806D02*
X491104D01*
X450972D02*
X454528D01*
X407030D02*
X410586D01*
X368168D02*
X370200D01*
X489072Y286060D02*
X491358D01*
X450718D02*
X454782D01*
X407030D02*
X410840D01*
X367914D02*
X370200D01*
X489326Y286314D02*
X491358D01*
X450464D02*
X454782D01*
X407030D02*
X411094D01*
X367914D02*
X369946D01*
X489326Y286568D02*
X491612D01*
X450210D02*
X454782D01*
X407030D02*
X411348D01*
X367660D02*
X369946D01*
X489580Y286822D02*
X491612D01*
X449956D02*
X454782D01*
X407030D02*
X411348D01*
X367660D02*
X369946D01*
X489580Y287076D02*
X491866D01*
X449702D02*
X454528D01*
X407030D02*
X411856D01*
X367406D02*
X369692D01*
X489580Y287330D02*
X491866D01*
X449448D02*
X454528D01*
X407030D02*
X411856D01*
X367406D02*
X369692D01*
X489834Y287584D02*
X492120D01*
X449448D02*
X454274D01*
X407284D02*
X412110D01*
X367406D02*
X369438D01*
X489834Y287838D02*
X492120D01*
X449194D02*
X454020D01*
X407538D02*
X412364D01*
X367152D02*
X369438D01*
X490088Y288092D02*
X492120D01*
X448940D02*
X453766D01*
X407792D02*
X412364D01*
X367152D02*
X369184D01*
X490088Y288346D02*
X492374D01*
X448686D02*
X453512D01*
X408046D02*
X412618D01*
X366898D02*
X369184D01*
X490342Y288600D02*
X492374D01*
X448432D02*
X453258D01*
X408046D02*
X412872D01*
X366898D02*
X369184D01*
X490342Y288854D02*
X492374D01*
X448178D02*
X453004D01*
X408300D02*
X412872D01*
X366898D02*
X368930D01*
X490342Y289108D02*
X492628D01*
X448178D02*
X452750D01*
X408554D02*
X413126D01*
X366644D02*
X368930D01*
X490596Y289362D02*
X492628D01*
X447924D02*
X452496D01*
X408808D02*
X413380D01*
X366644D02*
X368676D01*
X490596Y289616D02*
X492882D01*
X447670D02*
X452496D01*
X409062D02*
X413634D01*
X366390D02*
X368676D01*
X490596Y289870D02*
X492882D01*
X447670D02*
X452242D01*
X409062D02*
X413634D01*
X366390D02*
X368676D01*
X490850Y290124D02*
X492882D01*
X447416D02*
X451988D01*
X409316D02*
X413888D01*
X366390D02*
X368422D01*
X490850Y290378D02*
X493136D01*
X447162D02*
X451734D01*
X409570D02*
X414142D01*
X366136D02*
X368422D01*
X491104Y290632D02*
X493136D01*
X446908D02*
X451480D01*
X409824D02*
X414142D01*
X366136D02*
X368168D01*
X491104Y290886D02*
X493136D01*
X446908D02*
X451480D01*
X409824D02*
X414396D01*
X366136D02*
X368168D01*
X491104Y291140D02*
X493390D01*
X446654D02*
X451226D01*
X410078D02*
X414650D01*
X365882D02*
X368168D01*
X491358Y291394D02*
X493390D01*
X446400D02*
X450972D01*
X410332D02*
X414650D01*
X365882D02*
X367914D01*
X491358Y291648D02*
X493390D01*
X446400D02*
X450972D01*
X410332D02*
X414904D01*
X365882D02*
X367914D01*
X491358Y291902D02*
X493644D01*
X446146D02*
X450718D01*
X410586D02*
X415158D01*
X365628D02*
X367914D01*
X491612Y292156D02*
X493644D01*
X445892D02*
X450464D01*
X410840D02*
X415158D01*
X365628D02*
X367660D01*
X491612Y292410D02*
X493898D01*
X445892D02*
X450210D01*
X410840D02*
X415412D01*
X365628D02*
X367660D01*
X491612Y292664D02*
X493898D01*
X445638D02*
X449956D01*
X411094D02*
X415412D01*
X365374D02*
X367660D01*
X491866Y292918D02*
X493898D01*
X445638D02*
X449956D01*
X411348D02*
X415666D01*
X365374D02*
X367406D01*
X491866Y293172D02*
X494152D01*
X445384D02*
X449702D01*
X411602D02*
X415920D01*
X365374D02*
X367406D01*
X491866Y293426D02*
X494152D01*
X445130D02*
X449448D01*
X411602D02*
X415920D01*
X365120D02*
X367406D01*
X492120Y293680D02*
X494152D01*
X445130D02*
X449448D01*
X411856D02*
X416174D01*
X365120D02*
X367152D01*
X492120Y293934D02*
X494152D01*
X444876D02*
X449194D01*
X411856D02*
X416428D01*
X365120D02*
X367152D01*
X492120Y294188D02*
X494406D01*
X444622D02*
X449194D01*
X412110D02*
X416428D01*
X364866D02*
X367152D01*
X492374Y294442D02*
X494406D01*
X412110D02*
X448940D01*
X364866D02*
X366898D01*
X492374Y294696D02*
X494406D01*
X412364D02*
X448686D01*
X364866D02*
X366898D01*
X492374Y294950D02*
X494660D01*
X412618D02*
X448686D01*
X364866D02*
X366898D01*
X492628Y295204D02*
X494660D01*
X412618D02*
X448432D01*
X364612D02*
X366898D01*
X492628Y295458D02*
X494660D01*
X412872D02*
X448432D01*
X364612D02*
X366644D01*
X492628Y295712D02*
X494660D01*
X412872D02*
X448178D01*
X364612D02*
X366644D01*
X492628Y295966D02*
X494914D01*
X413126D02*
X447924D01*
X364358D02*
X366644D01*
X492882Y296220D02*
X494914D01*
X413126D02*
X447924D01*
X364358D02*
X366390D01*
X492882Y296474D02*
X494914D01*
X413380D02*
X447670D01*
X364358D02*
X366390D01*
X492882Y296728D02*
X494914D01*
X413634D02*
X447670D01*
X364358D02*
X366390D01*
X492882Y296982D02*
X495168D01*
X413634D02*
X447416D01*
X364104D02*
X366390D01*
X493136Y297236D02*
X495168D01*
X413888D02*
X447162D01*
X364104D02*
X366136D01*
X493136Y297490D02*
X495168D01*
X413888D02*
X447162D01*
X364104D02*
X366136D01*
X493136Y297744D02*
X495168D01*
X414142D02*
X446908D01*
X364104D02*
X366136D01*
X493136Y297998D02*
X495422D01*
X442590D02*
X446908D01*
X414142D02*
X418460D01*
X363850D02*
X366136D01*
X493390Y298252D02*
X495422D01*
X442590D02*
X446908D01*
X414396D02*
X418714D01*
X363850D02*
X365882D01*
X493390Y298506D02*
X495422D01*
X442590D02*
X446654D01*
X414396D02*
X418714D01*
X363850D02*
X365882D01*
X493390Y298760D02*
X495422D01*
X442336D02*
X446400D01*
X414650D02*
X418968D01*
X363850D02*
X365882D01*
X493390Y299014D02*
X495676D01*
X442336D02*
X446400D01*
X414650D02*
X418968D01*
X363850D02*
X365882D01*
X493644Y299268D02*
X495676D01*
X442082D02*
X446146D01*
X414904D02*
X418968D01*
X363596D02*
X365882D01*
X493644Y299522D02*
X495676D01*
X442082D02*
X446146D01*
X414904D02*
X419222D01*
X363596D02*
X365628D01*
X493644Y299776D02*
X495676D01*
X441828D02*
X445892D01*
X415158D02*
X419222D01*
X363596D02*
X365628D01*
X493644Y300030D02*
X495676D01*
X441828D02*
X445892D01*
X415412D02*
X419476D01*
X363596D02*
X365628D01*
X493644Y300284D02*
X495930D01*
X441574D02*
X445638D01*
X415412D02*
X419730D01*
X363342D02*
X365628D01*
X493898Y300538D02*
X495930D01*
X441574D02*
X445638D01*
X415666D02*
X419730D01*
X363342D02*
X365374D01*
X493898Y300792D02*
X495930D01*
X441320D02*
X445384D01*
X415666D02*
X419730D01*
X363342D02*
X365374D01*
X493898Y301046D02*
X495930D01*
X441320D02*
X445384D01*
X415666D02*
X419984D01*
X363342D02*
X365374D01*
X493898Y301300D02*
X495930D01*
X441066D02*
X445130D01*
X415920D02*
X419984D01*
X363342D02*
X365374D01*
X493898Y301554D02*
X495930D01*
X441066D02*
X445130D01*
X416174D02*
X420238D01*
X363342D02*
X365374D01*
X494152Y301808D02*
X496184D01*
X441066D02*
X444876D01*
X416174D02*
X420238D01*
X363088D02*
X365374D01*
X494152Y302062D02*
X496184D01*
X440812D02*
X444876D01*
X416428D02*
X420492D01*
X363088D02*
X365120D01*
X494152Y302316D02*
X496184D01*
X440812D02*
X444876D01*
X416428D02*
X420492D01*
X363088D02*
X365120D01*
X494152Y302570D02*
X496184D01*
X440558D02*
X444622D01*
X416428D02*
X420492D01*
X363088D02*
X365120D01*
X494152Y302824D02*
X496184D01*
X440558D02*
X444622D01*
X416682D02*
X420746D01*
X399918D02*
X401696D01*
X363088D02*
X365120D01*
X494152Y303078D02*
X496438D01*
X440304D02*
X444368D01*
X416682D02*
X421000D01*
X399156D02*
X401696D01*
X363088D02*
X365120D01*
X494406Y303332D02*
X496438D01*
X440304D02*
X444368D01*
X416682D02*
X421000D01*
X398648D02*
X401696D01*
X362834D02*
X364866D01*
X494406Y303586D02*
X496438D01*
X440304D02*
X444368D01*
X416936D02*
X421254D01*
X397886D02*
X401950D01*
X362834D02*
X364866D01*
X494406Y303840D02*
X496438D01*
X440050D02*
X444114D01*
X417190D02*
X421254D01*
X397378D02*
X401950D01*
X393822D02*
X394076D01*
X362834D02*
X364866D01*
X494406Y304094D02*
X496438D01*
X440050D02*
X443860D01*
X417190D02*
X421254D01*
X396362D02*
X402204D01*
X393568D02*
X394838D01*
X362834D02*
X364866D01*
X494406Y304348D02*
X496438D01*
X439796D02*
X443860D01*
X417190D02*
X421508D01*
X393314D02*
X402204D01*
X362834D02*
X364866D01*
X494406Y304602D02*
X496438D01*
X439796D02*
X443860D01*
X417444D02*
X421508D01*
X393314D02*
X402204D01*
X362834D02*
X364866D01*
X494406Y304856D02*
X496438D01*
X439796D02*
X443606D01*
X417444D02*
X421508D01*
X393060D02*
X402204D01*
X362834D02*
X364866D01*
X494406Y305110D02*
X496692D01*
X439542D02*
X443606D01*
X417698D02*
X421762D01*
X392806D02*
X402458D01*
X362834D02*
X364866D01*
X494660Y305364D02*
X496692D01*
X439542D02*
X443352D01*
X417698D02*
X421762D01*
X392552D02*
X402458D01*
X362580D02*
X364612D01*
X494660Y305618D02*
X496692D01*
X439288D02*
X443352D01*
X417952D02*
X422016D01*
X401950D02*
X402712D01*
X392552D02*
X401188D01*
X362580D02*
X364612D01*
X494660Y305872D02*
X496692D01*
X439288D02*
X443352D01*
X417952D02*
X422016D01*
X393060D02*
X399918D01*
X362580D02*
X364612D01*
X494660Y306126D02*
X496692D01*
X439034D02*
X443098D01*
X417952D02*
X422016D01*
X393314D02*
X399156D01*
X362580D02*
X364612D01*
X494660Y306380D02*
X496692D01*
X439034D02*
X443098D01*
X418206D02*
X422270D01*
X394076D02*
X398394D01*
X380360D02*
X384424D01*
X362580D02*
X364612D01*
X494660Y306634D02*
X496692D01*
X473832D02*
X486024D01*
X457576D02*
X467482D01*
X439034D02*
X442844D01*
X418206D02*
X422270D01*
X394838D02*
X399410D01*
X379598D02*
X385186D01*
X362580D02*
X364612D01*
X494660Y306888D02*
X496692D01*
X473832D02*
X486024D01*
X457576D02*
X468244D01*
X438780D02*
X442844D01*
X418460D02*
X422524D01*
X394076D02*
X400426D01*
X378836D02*
X385694D01*
X362580D02*
X364612D01*
X494660Y307142D02*
X496692D01*
X473832D02*
X486024D01*
X457576D02*
X469006D01*
X438780D02*
X442844D01*
X418460D02*
X422524D01*
X393822D02*
X400934D01*
X378328D02*
X386202D01*
X362580D02*
X364612D01*
X494660Y307396D02*
X496692D01*
X473832D02*
X486024D01*
X457576D02*
X469514D01*
X438780D02*
X442590D01*
X418714D02*
X422778D01*
X393314D02*
X401442D01*
X377820D02*
X386710D01*
X362580D02*
X364612D01*
X494914Y307650D02*
X496946D01*
X473832D02*
X486024D01*
X457576D02*
X469768D01*
X438526D02*
X442590D01*
X418714D02*
X422778D01*
X393060D02*
X401696D01*
X377566D02*
X386964D01*
X362580D02*
X364612D01*
X494914Y307904D02*
X496946D01*
X473832D02*
X486024D01*
X457576D02*
X470022D01*
X438526D02*
X442336D01*
X418714D02*
X422778D01*
X392806D02*
X402204D01*
X377312D02*
X387218D01*
X362326D02*
X364358D01*
X494914Y308158D02*
X496946D01*
X473832D02*
X486024D01*
X457576D02*
X470276D01*
X438272D02*
X442336D01*
X418968D02*
X423032D01*
X392552D02*
X402458D01*
X377058D02*
X387472D01*
X362326D02*
X364358D01*
X494914Y308412D02*
X496946D01*
X473832D02*
X486024D01*
X457576D02*
X470530D01*
X438272D02*
X442336D01*
X418968D02*
X423032D01*
X392298D02*
X402712D01*
X376804D02*
X387472D01*
X362326D02*
X364358D01*
X494914Y308666D02*
X496946D01*
X473832D02*
X486024D01*
X457576D02*
X470784D01*
X438272D02*
X442082D01*
X419222D02*
X423032D01*
X392044D02*
X402966D01*
X376804D02*
X387726D01*
X362326D02*
X364358D01*
X494914Y308920D02*
X496946D01*
X473832D02*
X486024D01*
X457576D02*
X471038D01*
X438018D02*
X442082D01*
X419222D02*
X423286D01*
X391790D02*
X403220D01*
X376550D02*
X387980D01*
X362326D02*
X364358D01*
X494914Y309174D02*
X496946D01*
X473832D02*
X486024D01*
X457576D02*
X471292D01*
X438018D02*
X441828D01*
X419476D02*
X423286D01*
X391536D02*
X403220D01*
X376296D02*
X387980D01*
X362326D02*
X364358D01*
X494914Y309428D02*
X496946D01*
X473832D02*
X486024D01*
X457576D02*
X471292D01*
X438018D02*
X441828D01*
X419476D02*
X423540D01*
X391282D02*
X403474D01*
X383408D02*
X388234D01*
X376296D02*
X382646D01*
X362326D02*
X364358D01*
X494914Y309682D02*
X496946D01*
X482468D02*
X486024D01*
X474848D02*
X479928D01*
X464688D02*
X471546D01*
X458592D02*
X463672D01*
X437764D02*
X441828D01*
X419476D02*
X423540D01*
X397886D02*
X403728D01*
X391282D02*
X397124D01*
X384170D02*
X388234D01*
X376042D02*
X381884D01*
X362326D02*
X364358D01*
X494914Y309936D02*
X496946D01*
X482468D02*
X486024D01*
X474848D02*
X479928D01*
X465704D02*
X471546D01*
X458592D02*
X463672D01*
X437764D02*
X441574D01*
X419476D02*
X423540D01*
X398394D02*
X403728D01*
X391028D02*
X396616D01*
X384424D02*
X388488D01*
X376042D02*
X381630D01*
X362326D02*
X364358D01*
X494914Y310190D02*
X496946D01*
X482468D02*
X486024D01*
X474848D02*
X479928D01*
X465958D02*
X471800D01*
X458592D02*
X463672D01*
X437764D02*
X441574D01*
X419730D02*
X423794D01*
X398648D02*
X403982D01*
X390774D02*
X396362D01*
X384678D02*
X388488D01*
X375788D02*
X381376D01*
X362326D02*
X364358D01*
X494914Y310444D02*
X496946D01*
X482468D02*
X486024D01*
X474848D02*
X479928D01*
X466212D02*
X471800D01*
X458592D02*
X463672D01*
X437510D02*
X441574D01*
X419730D02*
X423794D01*
X398648D02*
X404236D01*
X390774D02*
X396108D01*
X384678D02*
X388488D01*
X375788D02*
X381376D01*
X362326D02*
X364358D01*
X494914Y310698D02*
X496946D01*
X474848D02*
X479928D01*
X466466D02*
X471800D01*
X458592D02*
X463672D01*
X437510D02*
X441574D01*
X419730D02*
X423794D01*
X398902D02*
X404236D01*
X390774D02*
X396108D01*
X384932D02*
X388742D01*
X375534D02*
X381376D01*
X362326D02*
X364358D01*
X494914Y310952D02*
X496946D01*
X474848D02*
X479928D01*
X466466D02*
X472054D01*
X458592D02*
X463672D01*
X437510D02*
X441320D01*
X419984D02*
X424048D01*
X398902D02*
X404236D01*
X390520D02*
X396108D01*
X384932D02*
X388742D01*
X375534D02*
X381122D01*
X362326D02*
X364358D01*
X494914Y311206D02*
X496946D01*
X474848D02*
X479928D01*
X466466D02*
X472054D01*
X458592D02*
X463672D01*
X437256D02*
X441320D01*
X419984D02*
X424048D01*
X398902D02*
X404490D01*
X390520D02*
X396108D01*
X384932D02*
X387980D01*
X375534D02*
X381122D01*
X362326D02*
X364358D01*
X494914Y311460D02*
X496946D01*
X474848D02*
X479928D01*
X466720D02*
X472054D01*
X458592D02*
X463672D01*
X437256D02*
X441066D01*
X420238D02*
X424048D01*
X398902D02*
X404490D01*
X390520D02*
X396108D01*
X385186D02*
X387218D01*
X375534D02*
X381122D01*
X362326D02*
X364358D01*
X494914Y311714D02*
X496946D01*
X474848D02*
X482468D01*
X466720D02*
X472054D01*
X458592D02*
X463672D01*
X437256D02*
X441066D01*
X420238D02*
X424302D01*
X398902D02*
X404490D01*
X390266D02*
X395854D01*
X385186D02*
X386456D01*
X375534D02*
X381122D01*
X362326D02*
X364358D01*
X494914Y311968D02*
X496946D01*
X474848D02*
X482468D01*
X466720D02*
X472054D01*
X458592D02*
X463672D01*
X437002D02*
X441066D01*
X420238D02*
X424302D01*
X398902D02*
X404490D01*
X390266D02*
X395854D01*
X385186D02*
X385948D01*
X375280D02*
X381122D01*
X362326D02*
X364358D01*
X494914Y312222D02*
X496946D01*
X474848D02*
X482468D01*
X466720D02*
X472308D01*
X458592D02*
X463672D01*
X437002D02*
X440812D01*
X420492D02*
X424556D01*
X398902D02*
X404490D01*
X390266D02*
X395854D01*
X375280D02*
X381122D01*
X362326D02*
X364358D01*
X494914Y312476D02*
X496946D01*
X474848D02*
X482468D01*
X466720D02*
X472308D01*
X458592D02*
X463672D01*
X420492D02*
X440812D01*
X398902D02*
X404744D01*
X390266D02*
X395854D01*
X375280D02*
X380868D01*
X362326D02*
X364358D01*
X494914Y312730D02*
X496946D01*
X474848D02*
X482468D01*
X466720D02*
X472308D01*
X458592D02*
X463672D01*
X420492D02*
X440812D01*
X398902D02*
X404744D01*
X390266D02*
X395854D01*
X375280D02*
X380868D01*
X362326D02*
X364358D01*
X494914Y312984D02*
X496946D01*
X474848D02*
X482468D01*
X466720D02*
X472308D01*
X458592D02*
X463672D01*
X420746D02*
X440812D01*
X398902D02*
X404744D01*
X390266D02*
X395854D01*
X375280D02*
X380868D01*
X362326D02*
X364358D01*
X494914Y313238D02*
X496946D01*
X474848D02*
X482468D01*
X466720D02*
X472308D01*
X458592D02*
X463672D01*
X420746D02*
X440558D01*
X399156D02*
X404744D01*
X390266D02*
X395854D01*
X375280D02*
X380868D01*
X362326D02*
X364358D01*
X494914Y313492D02*
X496946D01*
X474848D02*
X482468D01*
X466720D02*
X472054D01*
X458592D02*
X463672D01*
X421000D02*
X440558D01*
X398902D02*
X404744D01*
X390266D02*
X395854D01*
X375280D02*
X381122D01*
X362326D02*
X364358D01*
X494914Y313746D02*
X496946D01*
X474848D02*
X482468D01*
X466720D02*
X472054D01*
X458592D02*
X463672D01*
X421000D02*
X440304D01*
X398902D02*
X404744D01*
X390266D02*
X395854D01*
X375280D02*
X381122D01*
X362326D02*
X364358D01*
X494914Y314000D02*
X496946D01*
X474848D02*
X482468D01*
X466720D02*
X472054D01*
X458592D02*
X463672D01*
X421000D02*
X440304D01*
X398902D02*
X404490D01*
X390266D02*
X395854D01*
X375534D02*
X381122D01*
X362326D02*
X364358D01*
X494914Y314254D02*
X496946D01*
X474848D02*
X479928D01*
X466466D02*
X472054D01*
X458592D02*
X463672D01*
X421254D02*
X440304D01*
X398902D02*
X404490D01*
X390520D02*
X395854D01*
X375534D02*
X381122D01*
X362326D02*
X364358D01*
X494914Y314508D02*
X496946D01*
X474848D02*
X479928D01*
X466466D02*
X471800D01*
X458592D02*
X463672D01*
X421254D02*
X440304D01*
X398902D02*
X404490D01*
X390520D02*
X396108D01*
X385186D02*
X388234D01*
X375534D02*
X381122D01*
X362326D02*
X364358D01*
X494914Y314762D02*
X496946D01*
X474848D02*
X479928D01*
X466466D02*
X471800D01*
X458592D02*
X463672D01*
X421254D02*
X440050D01*
X398902D02*
X404490D01*
X390520D02*
X396108D01*
X384932D02*
X388234D01*
X375534D02*
X381122D01*
X362326D02*
X364358D01*
X494914Y315016D02*
X496946D01*
X482468D02*
X486024D01*
X474848D02*
X479928D01*
X466212D02*
X471800D01*
X458592D02*
X463672D01*
X421508D02*
X440050D01*
X398902D02*
X404236D01*
X390520D02*
X396108D01*
X384932D02*
X388234D01*
X375788D02*
X381376D01*
X362326D02*
X364358D01*
X494914Y315270D02*
X496946D01*
X482468D02*
X486024D01*
X474848D02*
X479928D01*
X466212D02*
X471546D01*
X458592D02*
X463672D01*
X421508D02*
X440050D01*
X398902D02*
X404236D01*
X390774D02*
X396108D01*
X384678D02*
X388234D01*
X375788D02*
X381376D01*
X362326D02*
X364358D01*
X494914Y315524D02*
X496946D01*
X482468D02*
X486024D01*
X474848D02*
X479928D01*
X465958D02*
X471546D01*
X458592D02*
X463672D01*
X421508D02*
X439796D01*
X398648D02*
X404236D01*
X390774D02*
X396108D01*
X384424D02*
X388234D01*
X375788D02*
X381376D01*
X362326D02*
X364358D01*
X494914Y315778D02*
X496946D01*
X482468D02*
X486024D01*
X474848D02*
X479674D01*
X465704D02*
X471292D01*
X458592D02*
X463672D01*
X421762D02*
X439796D01*
X398648D02*
X403982D01*
X391028D02*
X396362D01*
X384424D02*
X388234D01*
X376042D02*
X381630D01*
X362326D02*
X364358D01*
X494914Y316032D02*
X496946D01*
X473832D02*
X486024D01*
X464688D02*
X471292D01*
X457576D02*
X463672D01*
X435732D02*
X439796D01*
X421762D02*
X425826D01*
X398394D02*
X403982D01*
X391028D02*
X396616D01*
X383916D02*
X388234D01*
X376042D02*
X381884D01*
X362326D02*
X364358D01*
X494914Y316286D02*
X496946D01*
X473832D02*
X486024D01*
X457576D02*
X471038D01*
X435732D02*
X439542D01*
X421762D02*
X425826D01*
X397886D02*
X403728D01*
X391282D02*
X397124D01*
X383408D02*
X388234D01*
X376296D02*
X382392D01*
X362326D02*
X364358D01*
X494914Y316540D02*
X496946D01*
X473832D02*
X486024D01*
X457576D02*
X470784D01*
X435732D02*
X439542D01*
X421762D02*
X425826D01*
X391536D02*
X403474D01*
X376296D02*
X388234D01*
X362326D02*
X364358D01*
X494914Y316794D02*
X496946D01*
X473832D02*
X486024D01*
X457576D02*
X470784D01*
X435732D02*
X439542D01*
X422016D02*
X425826D01*
X391536D02*
X403474D01*
X376550D02*
X388234D01*
X362326D02*
X364358D01*
X494914Y317048D02*
X496946D01*
X473832D02*
X486024D01*
X457576D02*
X470530D01*
X435478D02*
X439288D01*
X422016D02*
X425826D01*
X391790D02*
X403220D01*
X376550D02*
X388234D01*
X362326D02*
X364358D01*
X494914Y317302D02*
X496946D01*
X473832D02*
X486024D01*
X457576D02*
X470276D01*
X435478D02*
X439288D01*
X422016D02*
X426080D01*
X392044D02*
X402966D01*
X376804D02*
X388234D01*
X362326D02*
X364358D01*
X494914Y317556D02*
X496946D01*
X473832D02*
X486024D01*
X457576D02*
X470022D01*
X435478D02*
X439288D01*
X422270D02*
X426080D01*
X392298D02*
X402712D01*
X377058D02*
X388234D01*
X362326D02*
X364358D01*
X494914Y317810D02*
X496946D01*
X473832D02*
X486024D01*
X457576D02*
X469514D01*
X435224D02*
X439288D01*
X422270D02*
X426080D01*
X392552D02*
X402458D01*
X377312D02*
X388234D01*
X362326D02*
X364358D01*
X494914Y318064D02*
X496946D01*
X473832D02*
X486024D01*
X457576D02*
X469006D01*
X435224D02*
X439288D01*
X422270D02*
X426334D01*
X392806D02*
X402204D01*
X377566D02*
X388234D01*
X362326D02*
X364358D01*
X494914Y318318D02*
X496946D01*
X473832D02*
X486024D01*
X457576D02*
X468498D01*
X435224D02*
X439034D01*
X422524D02*
X426334D01*
X393314D02*
X401950D01*
X377820D02*
X388234D01*
X362326D02*
X364358D01*
X494914Y318572D02*
X496946D01*
X473832D02*
X486024D01*
X457576D02*
X467990D01*
X435224D02*
X439034D01*
X422524D02*
X426334D01*
X393568D02*
X401442D01*
X385186D02*
X388234D01*
X378328D02*
X384932D01*
X362326D02*
X364358D01*
X494914Y318826D02*
X496946D01*
X473832D02*
X486024D01*
X457576D02*
X466974D01*
X434970D02*
X439034D01*
X422524D02*
X426334D01*
X394076D02*
X400934D01*
X385186D02*
X388234D01*
X378582D02*
X384678D01*
X362580D02*
X364612D01*
X494660Y319080D02*
X496692D01*
X434970D02*
X438780D01*
X422778D02*
X426588D01*
X394584D02*
X400426D01*
X379090D02*
X384170D01*
X362580D02*
X364612D01*
X494660Y319334D02*
X496692D01*
X434970D02*
X438780D01*
X422778D02*
X426588D01*
X395600D02*
X399410D01*
X379852D02*
X383408D01*
X362580D02*
X364612D01*
X494660Y319588D02*
X496692D01*
X434970D02*
X438780D01*
X422778D02*
X426588D01*
X362580D02*
X364612D01*
X494660Y319842D02*
X496692D01*
X434716D02*
X438526D01*
X423032D02*
X426842D01*
X362580D02*
X364612D01*
X494660Y320096D02*
X496692D01*
X434716D02*
X438526D01*
X423032D02*
X426842D01*
X362580D02*
X364612D01*
X494660Y320350D02*
X496692D01*
X434716D02*
X438526D01*
X423032D02*
X426842D01*
X362580D02*
X364612D01*
X494660Y320604D02*
X496692D01*
X434462D02*
X438526D01*
X423032D02*
X426842D01*
X362580D02*
X364612D01*
X494660Y320858D02*
X496692D01*
X434462D02*
X438272D01*
X423286D02*
X427096D01*
X362580D02*
X364612D01*
X494660Y321112D02*
X496692D01*
X434462D02*
X438272D01*
X423286D02*
X427096D01*
X362580D02*
X364612D01*
X494406Y321366D02*
X496692D01*
X434208D02*
X438272D01*
X423286D02*
X427096D01*
X362834D02*
X364866D01*
X494406Y321620D02*
X496438D01*
X434208D02*
X438272D01*
X423286D02*
X427096D01*
X362834D02*
X364866D01*
X494406Y321874D02*
X496438D01*
X434208D02*
X438018D01*
X423286D02*
X427350D01*
X362834D02*
X364866D01*
X494406Y322128D02*
X496438D01*
X434208D02*
X438018D01*
X423540D02*
X427350D01*
X362834D02*
X364866D01*
X494406Y322382D02*
X496438D01*
X434208D02*
X438018D01*
X423540D02*
X427350D01*
X362834D02*
X364866D01*
X494406Y322636D02*
X496438D01*
X434208D02*
X437764D01*
X423540D02*
X427604D01*
X362834D02*
X364866D01*
X494406Y322890D02*
X496438D01*
X433954D02*
X437764D01*
X423794D02*
X427604D01*
X362834D02*
X364866D01*
X494406Y323144D02*
X496438D01*
X433954D02*
X437764D01*
X423794D02*
X427604D01*
X362834D02*
X364866D01*
X494152Y323398D02*
X496184D01*
X433954D02*
X437764D01*
X423794D02*
X427604D01*
X363088D02*
X365120D01*
X494152Y323652D02*
X496184D01*
X433700D02*
X437510D01*
X423794D02*
X427858D01*
X363088D02*
X365120D01*
X494152Y323906D02*
X496184D01*
X433700D02*
X437764D01*
X424048D02*
X427858D01*
X363088D02*
X365120D01*
X494152Y324160D02*
X496184D01*
X433700D02*
X437510D01*
X424048D02*
X427858D01*
X363088D02*
X365120D01*
X494152Y324414D02*
X496184D01*
X433700D02*
X437510D01*
X424048D02*
X428112D01*
X363088D02*
X365120D01*
X493898Y324668D02*
X496184D01*
X433700D02*
X437510D01*
X424048D02*
X428112D01*
X363088D02*
X365374D01*
X493898Y324922D02*
X495930D01*
X433446D02*
X437256D01*
X424302D02*
X428112D01*
X363342D02*
X365374D01*
X493898Y325176D02*
X495930D01*
X433446D02*
X437256D01*
X424302D02*
X428112D01*
X363342D02*
X365374D01*
X493898Y325430D02*
X495930D01*
X433446D02*
X437256D01*
X424302D02*
X428366D01*
X363342D02*
X365374D01*
X493898Y325684D02*
X495930D01*
X433446D02*
X437256D01*
X424556D02*
X428366D01*
X363342D02*
X365374D01*
X493898Y325938D02*
X495930D01*
X433192D02*
X437002D01*
X424556D02*
X428366D01*
X363342D02*
X365374D01*
X493644Y326192D02*
X495930D01*
X433192D02*
X437002D01*
X424556D02*
X428366D01*
X363342D02*
X365628D01*
X493644Y326446D02*
X495676D01*
X433192D02*
X437002D01*
X424556D02*
X428366D01*
X363596D02*
X365628D01*
X493644Y326700D02*
X495676D01*
X433192D02*
X437002D01*
X424810D02*
X428620D01*
X363596D02*
X365628D01*
X493644Y326954D02*
X495676D01*
X432938D02*
X437002D01*
X424810D02*
X428620D01*
X363596D02*
X365628D01*
X493644Y327208D02*
X495676D01*
X432938D02*
X436748D01*
X424810D02*
X428620D01*
X363596D02*
X365628D01*
X493390Y327462D02*
X495676D01*
X432938D02*
X436748D01*
X424810D02*
X428620D01*
X363850D02*
X365882D01*
X493390Y327716D02*
X495422D01*
X432938D02*
X436748D01*
X424810D02*
X428620D01*
X363850D02*
X365882D01*
X493390Y327970D02*
X495422D01*
X432684D02*
X436748D01*
X425064D02*
X428874D01*
X363850D02*
X365882D01*
X493390Y328224D02*
X495422D01*
X432684D02*
X436494D01*
X425064D02*
X428874D01*
X363850D02*
X365882D01*
X493136Y328478D02*
X495422D01*
X432684D02*
X436494D01*
X425064D02*
X428874D01*
X363850D02*
X366136D01*
X493136Y328732D02*
X495168D01*
X432684D02*
X436494D01*
X425064D02*
X429128D01*
X364104D02*
X366136D01*
X493136Y328986D02*
X495168D01*
X432684D02*
X436494D01*
X425064D02*
X429128D01*
X364104D02*
X366136D01*
X493136Y329240D02*
X495168D01*
X432684D02*
X436240D01*
X425318D02*
X429128D01*
X364104D02*
X366136D01*
X492882Y329494D02*
X495168D01*
X432430D02*
X436240D01*
X425318D02*
X429128D01*
X364104D02*
X366390D01*
X492882Y329748D02*
X494914D01*
X432430D02*
X436240D01*
X425318D02*
X429128D01*
X364358D02*
X366390D01*
X492882Y330002D02*
X494914D01*
X432430D02*
X436240D01*
X425572D02*
X429128D01*
X364358D02*
X366390D01*
X492882Y330256D02*
X494914D01*
X432430D02*
X436240D01*
X425572D02*
X429382D01*
X364358D02*
X366390D01*
X492628Y330510D02*
X494914D01*
X432176D02*
X435986D01*
X425572D02*
X429382D01*
X364358D02*
X366644D01*
X492628Y330764D02*
X494660D01*
X432176D02*
X435986D01*
X425572D02*
X429382D01*
X364612D02*
X366644D01*
X492628Y331018D02*
X494660D01*
X432176D02*
X435986D01*
X425572D02*
X429382D01*
X364612D02*
X366644D01*
X492374Y331272D02*
X494660D01*
X432176D02*
X435986D01*
X425826D02*
X429636D01*
X364612D02*
X366898D01*
X492374Y331526D02*
X494660D01*
X431922D02*
X435986D01*
X425826D02*
X429636D01*
X364866D02*
X366898D01*
X492374Y331780D02*
X494406D01*
X431922D02*
X435732D01*
X425826D02*
X429636D01*
X364866D02*
X366898D01*
X492374Y332034D02*
X494406D01*
X445384D02*
X448940D01*
X431922D02*
X435732D01*
X425826D02*
X429636D01*
X413888D02*
X417444D01*
X364866D02*
X366898D01*
X492120Y332288D02*
X494406D01*
X445384D02*
X450718D01*
X431922D02*
X435732D01*
X425826D02*
X429890D01*
X412364D02*
X417444D01*
X364866D02*
X367152D01*
X492120Y332542D02*
X494152D01*
X445384D02*
X451480D01*
X431922D02*
X435732D01*
X426080D02*
X429890D01*
X411348D02*
X417444D01*
X365120D02*
X367152D01*
X492120Y332796D02*
X494152D01*
X445384D02*
X452496D01*
X431922D02*
X435732D01*
X426080D02*
X429890D01*
X410332D02*
X417444D01*
X365120D02*
X367152D01*
X491866Y333050D02*
X494152D01*
X445638D02*
X453258D01*
X431668D02*
X435478D01*
X426080D02*
X429890D01*
X409570D02*
X417444D01*
X365120D02*
X367406D01*
X491866Y333304D02*
X494152D01*
X445638D02*
X454020D01*
X431668D02*
X435478D01*
X426080D02*
X429890D01*
X408808D02*
X417444D01*
X365374D02*
X367406D01*
X491866Y333558D02*
X493898D01*
X445638D02*
X454528D01*
X431668D02*
X435478D01*
X426080D02*
X429890D01*
X408300D02*
X417444D01*
X365374D02*
X367406D01*
X491612Y333812D02*
X493898D01*
X445638D02*
X455036D01*
X431668D02*
X435478D01*
X426334D02*
X429890D01*
X407792D02*
X417444D01*
X365374D02*
X367660D01*
X491612Y334066D02*
X493644D01*
X445638D02*
X455544D01*
X431668D02*
X435478D01*
X426334D02*
X429890D01*
X407284D02*
X417190D01*
X365628D02*
X367660D01*
X491612Y334320D02*
X493644D01*
X448178D02*
X456306D01*
X431414D02*
X435224D01*
X426334D02*
X430144D01*
X406776D02*
X414396D01*
X365628D02*
X367660D01*
X491358Y334574D02*
X493644D01*
X449956D02*
X456560D01*
X431414D02*
X435224D01*
X426334D02*
X430144D01*
X406268D02*
X412872D01*
X365628D02*
X367914D01*
X491358Y334828D02*
X493390D01*
X450972D02*
X457068D01*
X431414D02*
X435224D01*
X426334D02*
X430144D01*
X405760D02*
X411602D01*
X365882D02*
X367914D01*
X491358Y335082D02*
X493390D01*
X451988D02*
X457576D01*
X431414D02*
X435224D01*
X426588D02*
X430144D01*
X405252D02*
X410840D01*
X365882D02*
X367914D01*
X491104Y335336D02*
X493390D01*
X452750D02*
X457830D01*
X431414D02*
X435224D01*
X426588D02*
X430144D01*
X404998D02*
X410078D01*
X365882D02*
X368168D01*
X491104Y335590D02*
X493136D01*
X453258D02*
X458338D01*
X431414D02*
X434970D01*
X426588D02*
X430398D01*
X404490D02*
X409316D01*
X366136D02*
X368168D01*
X491104Y335844D02*
X493136D01*
X453766D02*
X458592D01*
X431160D02*
X434970D01*
X426588D02*
X430398D01*
X404236D02*
X408808D01*
X366136D02*
X368168D01*
X490850Y336098D02*
X493136D01*
X454528D02*
X458846D01*
X431160D02*
X434970D01*
X426588D02*
X430398D01*
X403982D02*
X408300D01*
X366136D02*
X368422D01*
X490850Y336352D02*
X492882D01*
X455036D02*
X459354D01*
X431160D02*
X434970D01*
X426588D02*
X430398D01*
X403474D02*
X407792D01*
X366390D02*
X368422D01*
X490596Y336606D02*
X492882D01*
X455290D02*
X459608D01*
X431160D02*
X434970D01*
X426588D02*
X430652D01*
X403220D02*
X407284D01*
X366390D02*
X368676D01*
X490596Y336860D02*
X492882D01*
X455798D02*
X459862D01*
X431160D02*
X434716D01*
X426842D02*
X430652D01*
X402966D02*
X407030D01*
X366390D02*
X368676D01*
X490596Y337114D02*
X492628D01*
X456306D02*
X460116D01*
X431160D02*
X434716D01*
X426842D02*
X430652D01*
X402712D02*
X406522D01*
X366644D02*
X368676D01*
X490342Y337368D02*
X492628D01*
X456560D02*
X460624D01*
X431160D02*
X434716D01*
X426842D02*
X430652D01*
X402458D02*
X406014D01*
X366644D02*
X368930D01*
X490342Y337622D02*
X492374D01*
X457068D02*
X460878D01*
X430906D02*
X434716D01*
X426842D02*
X430652D01*
X401950D02*
X405760D01*
X366898D02*
X368930D01*
X490088Y337876D02*
X492374D01*
X457322D02*
X461132D01*
X430906D02*
X434716D01*
X427096D02*
X430652D01*
X401696D02*
X405252D01*
X366898D02*
X369184D01*
X490088Y338130D02*
X492374D01*
X457576D02*
X461386D01*
X430906D02*
X434716D01*
X427096D02*
X430652D01*
X401442D02*
X404998D01*
X366898D02*
X369184D01*
X490088Y338384D02*
X492120D01*
X458084D02*
X461640D01*
X442336D02*
X445384D01*
X430906D02*
X434716D01*
X427096D02*
X430652D01*
X417190D02*
X420238D01*
X401188D02*
X404744D01*
X367152D02*
X369184D01*
X489834Y338638D02*
X492120D01*
X458338D02*
X461894D01*
X442336D02*
X446654D01*
X427096D02*
X434462D01*
X416174D02*
X420238D01*
X401188D02*
X404490D01*
X367152D02*
X369438D01*
X489834Y338892D02*
X491866D01*
X458592D02*
X461894D01*
X442336D02*
X447670D01*
X427096D02*
X434462D01*
X415158D02*
X420238D01*
X400934D02*
X404236D01*
X367406D02*
X369438D01*
X489580Y339146D02*
X491866D01*
X458846D02*
X462148D01*
X442336D02*
X448178D01*
X427096D02*
X434462D01*
X414396D02*
X420238D01*
X400680D02*
X403728D01*
X367406D02*
X369692D01*
X489580Y339400D02*
X491866D01*
X459100D02*
X462402D01*
X442590D02*
X448940D01*
X427096D02*
X434462D01*
X413888D02*
X420238D01*
X400426D02*
X403474D01*
X367406D02*
X369692D01*
X489326Y339654D02*
X491612D01*
X459354D02*
X462656D01*
X442590D02*
X449448D01*
X427350D02*
X434462D01*
X413380D02*
X420238D01*
X400172D02*
X403220D01*
X367660D02*
X369946D01*
X489326Y339908D02*
X491612D01*
X459608D02*
X462910D01*
X442590D02*
X449956D01*
X427350D02*
X434462D01*
X412872D02*
X420238D01*
X399918D02*
X402966D01*
X367660D02*
X369946D01*
X489326Y340162D02*
X491358D01*
X459862D02*
X463164D01*
X442590D02*
X450210D01*
X427350D02*
X434208D01*
X412364D02*
X420238D01*
X399664D02*
X402712D01*
X367914D02*
X370200D01*
X489072Y340416D02*
X491358D01*
X460116D02*
X463164D01*
X442590D02*
X450718D01*
X427350D02*
X434208D01*
X411856D02*
X420238D01*
X399664D02*
X402458D01*
X367914D02*
X370200D01*
X489072Y340670D02*
X491104D01*
X460370D02*
X463418D01*
X442590D02*
X451226D01*
X427350D02*
X434208D01*
X411602D02*
X420238D01*
X399410D02*
X402458D01*
X368168D02*
X370200D01*
X488818Y340924D02*
X491104D01*
X460624D02*
X463672D01*
X444876D02*
X451480D01*
X427350D02*
X434208D01*
X411094D02*
X418206D01*
X399156D02*
X402204D01*
X368168D02*
X370454D01*
X488818Y341178D02*
X491104D01*
X460878D02*
X463926D01*
X446146D02*
X451734D01*
X427604D02*
X434208D01*
X410840D02*
X416682D01*
X399156D02*
X401950D01*
X368422D02*
X370454D01*
X488564Y341432D02*
X490850D01*
X460878D02*
X463926D01*
X446908D02*
X452242D01*
X427604D02*
X434208D01*
X410586D02*
X415920D01*
X398902D02*
X401696D01*
X368422D02*
X370708D01*
X488564Y341686D02*
X490850D01*
X461132D02*
X464180D01*
X447670D02*
X452496D01*
X427604D02*
X433954D01*
X410078D02*
X415158D01*
X398648D02*
X401442D01*
X368422D02*
X370708D01*
X488310Y341940D02*
X490596D01*
X461386D02*
X464180D01*
X448178D02*
X452750D01*
X427604D02*
X433954D01*
X409824D02*
X414650D01*
X398648D02*
X401442D01*
X368676D02*
X370962D01*
X488310Y342194D02*
X490596D01*
X461640D02*
X464434D01*
X448686D02*
X453004D01*
X427604D02*
X433954D01*
X409570D02*
X414142D01*
X398394D02*
X401188D01*
X368676D02*
X370962D01*
X488056Y342448D02*
X490342D01*
X461894D02*
X464688D01*
X449194D02*
X453258D01*
X427604D02*
X433954D01*
X409316D02*
X413634D01*
X398140D02*
X400934D01*
X368930D02*
X371216D01*
X488056Y342702D02*
X490342D01*
X461894D02*
X464688D01*
X449448D02*
X453512D01*
X427858D02*
X433700D01*
X409062D02*
X413126D01*
X398140D02*
X400934D01*
X368930D02*
X371216D01*
X487802Y342956D02*
X490088D01*
X462148D02*
X464942D01*
X449956D02*
X453766D01*
X427858D02*
X433700D01*
X408808D02*
X412872D01*
X397886D02*
X400680D01*
X369184D02*
X371470D01*
X487802Y343210D02*
X490088D01*
X462148D02*
X464942D01*
X450210D02*
X454020D01*
X427858D02*
X433700D01*
X408554D02*
X412364D01*
X397886D02*
X400426D01*
X369184D02*
X371470D01*
X487548Y343464D02*
X489834D01*
X462402D02*
X465196D01*
X450464D02*
X454274D01*
X427858D02*
X433700D01*
X408554D02*
X412110D01*
X397632D02*
X400426D01*
X369438D02*
X371724D01*
X487548Y343718D02*
X489834D01*
X462656D02*
X465196D01*
X450718D02*
X454528D01*
X427858D02*
X433700D01*
X408300D02*
X411856D01*
X397632D02*
X400172D01*
X369438D02*
X371724D01*
X487294Y343972D02*
X489580D01*
X462656D02*
X465450D01*
X451226D02*
X454528D01*
X427858D02*
X433700D01*
X408046D02*
X411602D01*
X397378D02*
X400172D01*
X369692D02*
X371978D01*
X487294Y344226D02*
X489580D01*
X462910D02*
X465450D01*
X451480D02*
X454782D01*
X427858D02*
X433700D01*
X407792D02*
X411348D01*
X397378D02*
X399918D01*
X369692D02*
X371978D01*
X487040Y344480D02*
X489326D01*
X462910D02*
X465704D01*
X451480D02*
X455036D01*
X428112D02*
X433700D01*
X407792D02*
X411094D01*
X397124D02*
X399918D01*
X369946D02*
X372232D01*
X487040Y344734D02*
X489326D01*
X463164D02*
X465704D01*
X451734D02*
X455036D01*
X428112D02*
X433700D01*
X407538D02*
X410840D01*
X397124D02*
X399664D01*
X369946D02*
X372232D01*
X486786Y344988D02*
X489072D01*
X463164D02*
X465704D01*
X451988D02*
X455290D01*
X428112D02*
X433446D01*
X407284D02*
X410586D01*
X397124D02*
X399664D01*
X370200D02*
X372486D01*
X486532Y345242D02*
X489072D01*
X463418D02*
X465958D01*
X452242D02*
X455544D01*
X428112D02*
X433446D01*
X407284D02*
X410332D01*
X396870D02*
X399410D01*
X370200D02*
X372740D01*
X486532Y345496D02*
X488818D01*
X463418D02*
X465958D01*
X452496D02*
X455544D01*
X428112D02*
X433446D01*
X422270D02*
X422778D01*
X407030D02*
X410078D01*
X396870D02*
X399410D01*
X370454D02*
X372740D01*
X486278Y345750D02*
X488564D01*
X463672D02*
X466212D01*
X452750D02*
X455798D01*
X439796D02*
X441828D01*
X428112D02*
X433446D01*
X420492D02*
X423032D01*
X406776D02*
X410078D01*
X396616D02*
X399156D01*
X370708D02*
X372994D01*
X486278Y346004D02*
X488564D01*
X463672D02*
X466212D01*
X452750D02*
X455798D01*
X439542D02*
X442844D01*
X428112D02*
X433446D01*
X419730D02*
X423032D01*
X406776D02*
X409824D01*
X396616D02*
X399156D01*
X370708D02*
X372994D01*
X486024Y346258D02*
X488310D01*
X463672D02*
X466212D01*
X453004D02*
X456052D01*
X439796D02*
X443352D01*
X428112D02*
X433446D01*
X419222D02*
X423032D01*
X406522D02*
X409570D01*
X396616D02*
X399156D01*
X370962D02*
X373248D01*
X486024Y346512D02*
X488310D01*
X463672D02*
X466466D01*
X453258D02*
X456052D01*
X439542D02*
X443860D01*
X428112D02*
X433446D01*
X418714D02*
X423032D01*
X406522D02*
X409316D01*
X396362D02*
X398902D01*
X370962D02*
X373502D01*
X485770Y346766D02*
X488056D01*
X463926D02*
X466466D01*
X453258D02*
X456306D01*
X439796D02*
X444368D01*
X428366D02*
X433192D01*
X418206D02*
X423032D01*
X406268D02*
X409316D01*
X396362D02*
X398902D01*
X371216D02*
X373502D01*
X485516Y347020D02*
X488056D01*
X463926D02*
X466466D01*
X453512D02*
X456306D01*
X439796D02*
X444876D01*
X428366D02*
X433192D01*
X417952D02*
X423032D01*
X406268D02*
X409062D01*
X396362D02*
X398648D01*
X371216D02*
X373756D01*
X485516Y347274D02*
X487802D01*
X464180D02*
X466466D01*
X453512D02*
X456560D01*
X439796D02*
X445130D01*
X428366D02*
X433192D01*
X417698D02*
X423032D01*
X406014D02*
X409062D01*
X396362D02*
X398648D01*
X371470D02*
X373756D01*
X485262Y347528D02*
X487548D01*
X464180D02*
X466720D01*
X453766D02*
X456560D01*
X439796D02*
X445384D01*
X428366D02*
X433192D01*
X417444D02*
X423032D01*
X406014D02*
X408808D01*
X396108D02*
X398648D01*
X371724D02*
X374010D01*
X485008Y347782D02*
X487548D01*
X464180D02*
X466720D01*
X453766D02*
X456560D01*
X439796D02*
X445892D01*
X428366D02*
X433192D01*
X416936D02*
X423032D01*
X406014D02*
X408808D01*
X396108D02*
X398648D01*
X371724D02*
X374264D01*
X485008Y348036D02*
X487294D01*
X464434D02*
X466720D01*
X454020D02*
X456814D01*
X439796D02*
X446146D01*
X428112D02*
X433446D01*
X416682D02*
X423032D01*
X405760D02*
X408554D01*
X396108D02*
X398394D01*
X371978D02*
X374264D01*
X484754Y348290D02*
X487294D01*
X464434D02*
X466974D01*
X454020D02*
X456814D01*
X440050D02*
X446146D01*
X427604D02*
X433700D01*
X416682D02*
X422778D01*
X405760D02*
X408554D01*
X396108D02*
X398394D01*
X371978D02*
X374518D01*
X484754Y348544D02*
X487040D01*
X464434D02*
X466974D01*
X454274D02*
X457068D01*
X441828D02*
X446400D01*
X427350D02*
X434208D01*
X416428D02*
X421000D01*
X405760D02*
X408554D01*
X395854D02*
X398394D01*
X372232D02*
X374772D01*
X484500Y348798D02*
X486786D01*
X464434D02*
X466974D01*
X454274D02*
X457068D01*
X442336D02*
X446654D01*
X427096D02*
X434462D01*
X416174D02*
X420492D01*
X405506D02*
X408300D01*
X395854D02*
X398394D01*
X372486D02*
X374772D01*
X484246Y349052D02*
X486786D01*
X464688D02*
X466974D01*
X454274D02*
X457068D01*
X442844D02*
X446908D01*
X426842D02*
X434716D01*
X415920D02*
X419984D01*
X405506D02*
X408300D01*
X395854D02*
X398140D01*
X372486D02*
X375026D01*
X484246Y349306D02*
X486532D01*
X464688D02*
X466974D01*
X454528D02*
X457068D01*
X443352D02*
X447162D01*
X426588D02*
X434716D01*
X415920D02*
X419476D01*
X405506D02*
X408046D01*
X395854D02*
X398140D01*
X372740D02*
X375026D01*
X483992Y349560D02*
X486278D01*
X464688D02*
X466974D01*
X454528D02*
X457322D01*
X443606D02*
X447162D01*
X426588D02*
X434970D01*
X415666D02*
X419222D01*
X405252D02*
X408046D01*
X395854D02*
X398140D01*
X372994D02*
X375280D01*
X483738Y349814D02*
X486278D01*
X464688D02*
X467228D01*
X454528D02*
X457322D01*
X443860D02*
X447416D01*
X426334D02*
X435224D01*
X415412D02*
X418968D01*
X405252D02*
X408046D01*
X395854D02*
X398140D01*
X372994D02*
X375534D01*
X483738Y350068D02*
X486024D01*
X464688D02*
X467228D01*
X454782D02*
X457322D01*
X444114D02*
X447416D01*
X426334D02*
X435224D01*
X415412D02*
X418714D01*
X405252D02*
X408046D01*
X395600D02*
X398140D01*
X373248D02*
X375534D01*
X483484Y350322D02*
X486024D01*
X464688D02*
X467228D01*
X454782D02*
X457322D01*
X444368D02*
X447670D01*
X426080D02*
X435478D01*
X415158D02*
X418460D01*
X405252D02*
X407792D01*
X395600D02*
X398140D01*
X373502D02*
X375788D01*
X483230Y350576D02*
X485770D01*
X464688D02*
X467228D01*
X454782D02*
X457322D01*
X444622D02*
X447670D01*
X426080D02*
X435478D01*
X415158D02*
X418206D01*
X405252D02*
X407792D01*
X395600D02*
X397886D01*
X373502D02*
X376042D01*
X482976Y350830D02*
X485516D01*
X464688D02*
X467228D01*
X454782D02*
X457576D01*
X444876D02*
X447670D01*
X426080D02*
X435478D01*
X415158D02*
X417952D01*
X404998D02*
X407792D01*
X395600D02*
X397886D01*
X373756D02*
X376296D01*
X482976Y351084D02*
X485516D01*
X464942D02*
X467228D01*
X454782D02*
X457576D01*
X444876D02*
X447924D01*
X425826D02*
X435732D01*
X414904D02*
X417952D01*
X404998D02*
X407792D01*
X395600D02*
X397886D01*
X374010D02*
X376296D01*
X482722Y351338D02*
X485262D01*
X464942D02*
X467228D01*
X455036D02*
X457576D01*
X445130D02*
X447924D01*
X425826D02*
X435732D01*
X414904D02*
X417698D01*
X404998D02*
X407792D01*
X395600D02*
X397886D01*
X374010D02*
X376550D01*
X482468Y351592D02*
X485008D01*
X464942D02*
X467228D01*
X455036D02*
X457576D01*
X445130D02*
X447924D01*
X425826D02*
X435732D01*
X414904D02*
X417698D01*
X404998D02*
X407538D01*
X395600D02*
X397886D01*
X374264D02*
X376804D01*
X482468Y351846D02*
X484754D01*
X464942D02*
X467228D01*
X455036D02*
X457576D01*
X445384D02*
X448178D01*
X425826D02*
X435732D01*
X414650D02*
X417698D01*
X404998D02*
X407538D01*
X395600D02*
X397886D01*
X374518D02*
X376804D01*
X482214Y352100D02*
X484754D01*
X464942D02*
X467228D01*
X455036D02*
X457576D01*
X445384D02*
X448178D01*
X425826D02*
X435732D01*
X414650D02*
X417444D01*
X404998D02*
X407538D01*
X395600D02*
X397886D01*
X374518D02*
X377058D01*
X481960Y352354D02*
X484500D01*
X464942D02*
X467228D01*
X455036D02*
X457576D01*
X445384D02*
X448178D01*
X425826D02*
X435732D01*
X414650D02*
X417444D01*
X404998D02*
X407538D01*
X395600D02*
X397886D01*
X374772D02*
X377312D01*
X481706Y352608D02*
X484246D01*
X464942D02*
X467228D01*
X455036D02*
X457576D01*
X445384D02*
X448178D01*
X425826D02*
X435732D01*
X414650D02*
X417444D01*
X404998D02*
X407538D01*
X395600D02*
X397886D01*
X375026D02*
X377566D01*
X481706Y352862D02*
X484246D01*
X464942D02*
X467228D01*
X455036D02*
X457576D01*
X445384D02*
X448178D01*
X425826D02*
X435732D01*
X414650D02*
X417444D01*
X404998D02*
X407538D01*
X395600D02*
X397886D01*
X375026D02*
X377820D01*
X481452Y353116D02*
X483992D01*
X464942D02*
X467228D01*
X455036D02*
X457576D01*
X445384D02*
X448178D01*
X425826D02*
X435732D01*
X414650D02*
X417444D01*
X404998D02*
X407538D01*
X395600D02*
X397886D01*
X375280D02*
X377820D01*
X481198Y353370D02*
X483738D01*
X464942D02*
X467228D01*
X455036D02*
X457576D01*
X445384D02*
X448178D01*
X425826D02*
X435732D01*
X414650D02*
X417444D01*
X404998D02*
X407538D01*
X395600D02*
X397886D01*
X375534D02*
X378074D01*
X480944Y353624D02*
X483484D01*
X464942D02*
X467228D01*
X455036D02*
X457576D01*
X445384D02*
X448178D01*
X426080D02*
X435478D01*
X414650D02*
X417444D01*
X404998D02*
X407538D01*
X395600D02*
X397886D01*
X375788D02*
X378328D01*
X480690Y353878D02*
X483484D01*
X464942D02*
X467228D01*
X455036D02*
X457576D01*
X445384D02*
X448178D01*
X426080D02*
X435478D01*
X414650D02*
X417444D01*
X404998D02*
X407538D01*
X395600D02*
X397886D01*
X375788D02*
X378582D01*
X480690Y354132D02*
X483230D01*
X464942D02*
X467228D01*
X455036D02*
X457576D01*
X445384D02*
X448178D01*
X426080D02*
X435478D01*
X414650D02*
X417444D01*
X404998D02*
X407538D01*
X395600D02*
X397886D01*
X376042D02*
X378582D01*
X480436Y354386D02*
X482976D01*
X464942D02*
X467228D01*
X455036D02*
X457576D01*
X445384D02*
X448178D01*
X426334D02*
X435224D01*
X414650D02*
X417444D01*
X404998D02*
X407538D01*
X395600D02*
X397886D01*
X376296D02*
X378836D01*
X480182Y354640D02*
X482722D01*
X464942D02*
X467228D01*
X455036D02*
X457576D01*
X445384D02*
X448178D01*
X426334D02*
X435224D01*
X414650D02*
X417444D01*
X404998D02*
X407792D01*
X395600D02*
X397886D01*
X376550D02*
X379090D01*
X479928Y354894D02*
X482468D01*
X464688D02*
X467228D01*
X455036D02*
X457576D01*
X445130D02*
X448178D01*
X426588D02*
X434970D01*
X414650D02*
X417698D01*
X404998D02*
X407792D01*
X395600D02*
X398140D01*
X376804D02*
X379344D01*
X479674Y355148D02*
X482468D01*
X464688D02*
X467228D01*
X454782D02*
X457576D01*
X445130D02*
X447924D01*
X426588D02*
X434716D01*
X414904D02*
X417698D01*
X404998D02*
X407792D01*
X395600D02*
X398140D01*
X376804D02*
X379598D01*
X479674Y355402D02*
X482214D01*
X464688D02*
X467228D01*
X454782D02*
X457576D01*
X445130D02*
X447924D01*
X426842D02*
X434716D01*
X414904D02*
X417698D01*
X405252D02*
X407792D01*
X395854D02*
X398140D01*
X377058D02*
X379852D01*
X479420Y355656D02*
X481960D01*
X464688D02*
X466974D01*
X454782D02*
X457322D01*
X444876D02*
X447924D01*
X427096D02*
X434462D01*
X414904D02*
X417952D01*
X405252D02*
X407792D01*
X395854D02*
X398140D01*
X377312D02*
X379852D01*
X479166Y355910D02*
X481706D01*
X464688D02*
X466974D01*
X454782D02*
X457322D01*
X444876D02*
X447670D01*
X427350D02*
X434208D01*
X415158D02*
X417952D01*
X405252D02*
X407792D01*
X395854D02*
X398140D01*
X377566D02*
X380106D01*
X478912Y356164D02*
X481452D01*
X464688D02*
X466974D01*
X454528D02*
X457322D01*
X444622D02*
X447670D01*
X427604D02*
X433700D01*
X415158D02*
X418206D01*
X405252D02*
X408046D01*
X395854D02*
X398140D01*
X377820D02*
X380360D01*
X478658Y356418D02*
X481452D01*
X464434D02*
X466974D01*
X454528D02*
X457322D01*
X444368D02*
X447670D01*
X428112D02*
X433446D01*
X415158D02*
X418460D01*
X405252D02*
X408046D01*
X395854D02*
X398394D01*
X377820D02*
X380614D01*
X478404Y356672D02*
X481198D01*
X464434D02*
X466974D01*
X454528D02*
X457322D01*
X444114D02*
X447416D01*
X428620D02*
X432938D01*
X415412D02*
X418714D01*
X405252D02*
X408046D01*
X395854D02*
X398394D01*
X378074D02*
X380868D01*
X478150Y356926D02*
X480944D01*
X464434D02*
X466974D01*
X454528D02*
X457068D01*
X443860D02*
X447416D01*
X428874D02*
X432684D01*
X415412D02*
X418968D01*
X405506D02*
X408300D01*
X396108D02*
X398394D01*
X378328D02*
X381122D01*
X477896Y357180D02*
X480690D01*
X464434D02*
X466720D01*
X454274D02*
X457068D01*
X443606D02*
X447162D01*
X430398D02*
X431160D01*
X415666D02*
X419222D01*
X405506D02*
X408300D01*
X396108D02*
X398394D01*
X378582D02*
X381376D01*
X477642Y357434D02*
X480436D01*
X464180D02*
X466720D01*
X454274D02*
X457068D01*
X443352D02*
X446908D01*
X415920D02*
X419476D01*
X405506D02*
X408300D01*
X396108D02*
X398648D01*
X378836D02*
X381630D01*
X477642Y357688D02*
X480182D01*
X464180D02*
X466720D01*
X454274D02*
X457068D01*
X442844D02*
X446908D01*
X415920D02*
X419984D01*
X405760D02*
X408554D01*
X396108D02*
X398648D01*
X379090D02*
X381884D01*
X477388Y357942D02*
X479928D01*
X464180D02*
X466466D01*
X454020D02*
X456814D01*
X442336D02*
X446654D01*
X416174D02*
X420492D01*
X405760D02*
X408554D01*
X396362D02*
X398648D01*
X379344D02*
X382138D01*
X477134Y358196D02*
X479928D01*
X464180D02*
X466466D01*
X454020D02*
X456814D01*
X441574D02*
X446400D01*
X416428D02*
X421254D01*
X405760D02*
X408554D01*
X396362D02*
X398648D01*
X379598D02*
X382138D01*
X476880Y358450D02*
X479674D01*
X463926D02*
X466466D01*
X453766D02*
X456560D01*
X439796D02*
X446146D01*
X416682D02*
X423032D01*
X406014D02*
X408808D01*
X396362D02*
X398902D01*
X379598D02*
X382392D01*
X476626Y358704D02*
X479420D01*
X463926D02*
X466466D01*
X453766D02*
X456560D01*
X439796D02*
X445892D01*
X416936D02*
X423032D01*
X406014D02*
X408808D01*
X396362D02*
X398902D01*
X379852D02*
X382646D01*
X476372Y358958D02*
X479166D01*
X463672D02*
X466212D01*
X453512D02*
X456560D01*
X439796D02*
X445892D01*
X417190D02*
X423032D01*
X406014D02*
X409062D01*
X396616D02*
X399156D01*
X380106D02*
X382900D01*
X476118Y359212D02*
X478912D01*
X463672D02*
X466212D01*
X453512D02*
X456306D01*
X439796D02*
X445384D01*
X417444D02*
X423032D01*
X406268D02*
X409062D01*
X396616D02*
X399156D01*
X380360D02*
X383154D01*
X475864Y359466D02*
X478658D01*
X463672D02*
X466212D01*
X453258D02*
X456306D01*
X439796D02*
X445130D01*
X417698D02*
X423032D01*
X406268D02*
X409316D01*
X396616D02*
X399156D01*
X380614D02*
X383408D01*
X475610Y359720D02*
X478404D01*
X463418D02*
X465958D01*
X453258D02*
X456052D01*
X439796D02*
X444876D01*
X417952D02*
X423032D01*
X406522D02*
X409316D01*
X396870D02*
X399410D01*
X380868D02*
X383662D01*
X475356Y359974D02*
X478150D01*
X463418D02*
X465958D01*
X453004D02*
X456052D01*
X439796D02*
X444368D01*
X418460D02*
X423032D01*
X406522D02*
X409570D01*
X396870D02*
X399410D01*
X381122D02*
X383916D01*
X475102Y360228D02*
X477896D01*
X463164D02*
X465704D01*
X452750D02*
X455798D01*
X439796D02*
X443860D01*
X418968D02*
X423032D01*
X406776D02*
X409824D01*
X397124D02*
X399664D01*
X381376D02*
X384170D01*
X474848Y360482D02*
X477642D01*
X463164D02*
X465704D01*
X452496D02*
X455798D01*
X439542D02*
X443352D01*
X419476D02*
X423032D01*
X406776D02*
X410078D01*
X397124D02*
X399664D01*
X381630D02*
X384678D01*
X474594Y360736D02*
X477388D01*
X463164D02*
X465704D01*
X452496D02*
X455544D01*
X439796D02*
X442590D01*
X420238D02*
X423032D01*
X407030D02*
X410332D01*
X397124D02*
X399918D01*
X381884D02*
X384932D01*
X474086Y360990D02*
X477134D01*
X462910D02*
X465450D01*
X452242D02*
X455544D01*
X439796D02*
X441828D01*
X421000D02*
X423032D01*
X407284D02*
X410332D01*
X397378D02*
X399918D01*
X382138D02*
X385186D01*
X473832Y361244D02*
X476880D01*
X462910D02*
X465450D01*
X451988D02*
X455290D01*
X407284D02*
X410586D01*
X397378D02*
X400172D01*
X382392D02*
X385440D01*
X473578Y361498D02*
X476626D01*
X462656D02*
X465196D01*
X451734D02*
X455036D01*
X407538D02*
X410840D01*
X397632D02*
X400172D01*
X382646D02*
X385694D01*
X473324Y361752D02*
X476372D01*
X462402D02*
X465196D01*
X451480D02*
X455036D01*
X407792D02*
X411094D01*
X397632D02*
X400426D01*
X382900D02*
X385948D01*
X473070Y362006D02*
X476118D01*
X462402D02*
X464942D01*
X451226D02*
X454782D01*
X407792D02*
X411348D01*
X397886D02*
X400426D01*
X383154D02*
X386202D01*
X472816Y362260D02*
X475864D01*
X462148D02*
X464942D01*
X450972D02*
X454528D01*
X408046D02*
X411602D01*
X397886D02*
X400680D01*
X383408D02*
X386456D01*
X472562Y362514D02*
X475610D01*
X461894D02*
X464688D01*
X450718D02*
X454274D01*
X408300D02*
X411856D01*
X398140D02*
X400934D01*
X383662D02*
X386710D01*
X472308Y362768D02*
X475356D01*
X461894D02*
X464688D01*
X450464D02*
X454274D01*
X408554D02*
X412110D01*
X398394D02*
X400934D01*
X383916D02*
X386964D01*
X471800Y363022D02*
X475102D01*
X461640D02*
X464434D01*
X450210D02*
X454020D01*
X408554D02*
X412618D01*
X398394D02*
X401188D01*
X384170D02*
X387472D01*
X471546Y363276D02*
X474594D01*
X461386D02*
X464180D01*
X449956D02*
X453766D01*
X408808D02*
X412872D01*
X398648D02*
X401442D01*
X384678D02*
X387726D01*
X471292Y363530D02*
X474340D01*
X461386D02*
X464180D01*
X449448D02*
X453512D01*
X409062D02*
X413126D01*
X398648D02*
X401442D01*
X384932D02*
X387980D01*
X471038Y363784D02*
X474086D01*
X461132D02*
X463926D01*
X449194D02*
X453258D01*
X409316D02*
X413634D01*
X398902D02*
X401696D01*
X385186D02*
X388234D01*
X470784Y364038D02*
X473832D01*
X460878D02*
X463672D01*
X448686D02*
X453004D01*
X409570D02*
X414142D01*
X399156D02*
X401950D01*
X385440D02*
X388488D01*
X470276Y364292D02*
X473578D01*
X460624D02*
X463672D01*
X448178D02*
X452750D01*
X409824D02*
X414650D01*
X399156D02*
X402204D01*
X385694D02*
X388996D01*
X470022Y364546D02*
X473324D01*
X460370D02*
X463418D01*
X447416D02*
X452496D01*
X410078D02*
X415158D01*
X399410D02*
X402458D01*
X385948D02*
X389250D01*
X469768Y364800D02*
X473070D01*
X460116D02*
X463164D01*
X446908D02*
X452242D01*
X410586D02*
X415920D01*
X399664D02*
X402712D01*
X386456D02*
X389504D01*
X469260Y365054D02*
X472562D01*
X460116D02*
X463164D01*
X445892D02*
X451734D01*
X410840D02*
X416682D01*
X399918D02*
X402712D01*
X386710D02*
X390012D01*
X469006Y365308D02*
X472308D01*
X459862D02*
X462910D01*
X444622D02*
X451480D01*
X411094D02*
X418206D01*
X399918D02*
X402966D01*
X386964D02*
X390266D01*
X468752Y365562D02*
X472054D01*
X459608D02*
X462656D01*
X442844D02*
X451226D01*
X411602D02*
X419984D01*
X400172D02*
X403220D01*
X387218D02*
X390520D01*
X468244Y365816D02*
X471800D01*
X459354D02*
X462402D01*
X442844D02*
X450718D01*
X411856D02*
X419984D01*
X400426D02*
X403474D01*
X387472D02*
X391028D01*
X467990Y366070D02*
X471292D01*
X459100D02*
X462148D01*
X442844D02*
X450210D01*
X412364D02*
X419984D01*
X400680D02*
X403982D01*
X387980D02*
X391282D01*
X467736Y366324D02*
X471038D01*
X458592D02*
X461894D01*
X442844D02*
X449956D01*
X412872D02*
X419984D01*
X400934D02*
X404236D01*
X388234D02*
X391536D01*
X467228Y366578D02*
X470784D01*
X458338D02*
X461640D01*
X442844D02*
X449448D01*
X413380D02*
X419984D01*
X401188D02*
X404490D01*
X388488D02*
X392044D01*
X466974Y366832D02*
X470530D01*
X458084D02*
X461640D01*
X442844D02*
X448940D01*
X413888D02*
X419984D01*
X401442D02*
X404744D01*
X388996D02*
X392298D01*
X466720Y367086D02*
X470022D01*
X457830D02*
X461386D01*
X442844D02*
X448178D01*
X414396D02*
X419984D01*
X401442D02*
X404998D01*
X389250D02*
X392806D01*
X466212Y367340D02*
X469768D01*
X457322D02*
X461132D01*
X442844D02*
X447416D01*
X415158D02*
X419984D01*
X401696D02*
X405506D01*
X389504D02*
X393060D01*
X465958Y367594D02*
X469514D01*
X457068D02*
X460878D01*
X442844D02*
X446654D01*
X416174D02*
X419984D01*
X402204D02*
X405760D01*
X390012D02*
X393568D01*
X465450Y367848D02*
X469006D01*
X456814D02*
X460370D01*
X442844D02*
X445384D01*
X417444D02*
X419984D01*
X402458D02*
X406014D01*
X390266D02*
X393822D01*
X464942Y368102D02*
X468752D01*
X456306D02*
X460116D01*
X402712D02*
X406522D01*
X390520D02*
X394330D01*
X464688Y368356D02*
X468244D01*
X455798D02*
X459862D01*
X402966D02*
X407030D01*
X391028D02*
X394584D01*
X464180Y368610D02*
X467990D01*
X455544D02*
X459608D01*
X403220D02*
X407284D01*
X391282D02*
X395092D01*
X463926Y368864D02*
X467482D01*
X455036D02*
X459354D01*
X403474D02*
X407792D01*
X391790D02*
X395346D01*
X463418Y369118D02*
X467228D01*
X454528D02*
X458846D01*
X403982D02*
X408300D01*
X392044D02*
X395854D01*
X462910Y369372D02*
X466720D01*
X454020D02*
X458592D01*
X404236D02*
X408808D01*
X392552D02*
X396362D01*
X462656Y369626D02*
X466466D01*
X453258D02*
X458338D01*
X404490D02*
X409570D01*
X392806D02*
X396616D01*
X462148Y369880D02*
X465958D01*
X452750D02*
X457830D01*
X404998D02*
X410078D01*
X393314D02*
X397124D01*
X461640Y370134D02*
X465704D01*
X451988D02*
X457576D01*
X405506D02*
X410840D01*
X393568D02*
X397632D01*
X461132Y370388D02*
X465196D01*
X450972D02*
X457068D01*
X405760D02*
X411856D01*
X394076D02*
X398140D01*
X460878Y370642D02*
X464942D01*
X449956D02*
X456560D01*
X406268D02*
X412872D01*
X394330D02*
X398394D01*
X460370Y370896D02*
X464434D01*
X448432D02*
X456052D01*
X406776D02*
X414396D01*
X394838D02*
X398902D01*
X459862Y371150D02*
X463926D01*
X445892D02*
X455544D01*
X407284D02*
X416936D01*
X395346D02*
X399410D01*
X459354Y371404D02*
X463672D01*
X445892D02*
X455036D01*
X407792D02*
X416936D01*
X395854D02*
X399918D01*
X458846Y371658D02*
X463164D01*
X445892D02*
X454528D01*
X408300D02*
X416936D01*
X396108D02*
X400426D01*
X458338Y371912D02*
X462656D01*
X445892D02*
X453766D01*
X409062D02*
X416936D01*
X396616D02*
X400934D01*
X457830Y372166D02*
X462148D01*
X445892D02*
X453258D01*
X409570D02*
X416936D01*
X397124D02*
X401442D01*
X457322Y372420D02*
X461894D01*
X445892D02*
X452496D01*
X410332D02*
X416936D01*
X397378D02*
X401950D01*
X456560Y372674D02*
X461386D01*
X445892D02*
X451480D01*
X411348D02*
X416936D01*
X397886D02*
X402712D01*
X456052Y372928D02*
X460878D01*
X445892D02*
X450464D01*
X412364D02*
X416936D01*
X398394D02*
X403220D01*
X455544Y373182D02*
X460370D01*
X445892D02*
X448940D01*
X413888D02*
X416936D01*
X398902D02*
X403728D01*
X455036Y373436D02*
X459862D01*
X399410D02*
X404236D01*
X454274Y373690D02*
X459354D01*
X399918D02*
X404998D01*
X453766Y373944D02*
X458846D01*
X400426D02*
X405506D01*
X453004Y374198D02*
X458338D01*
X400934D02*
X406268D01*
X452496Y374452D02*
X457576D01*
X401696D02*
X407030D01*
X451734Y374706D02*
X457068D01*
X402204D02*
X407538D01*
X450972Y374960D02*
X456560D01*
X402712D02*
X408300D01*
X450210Y375214D02*
X456052D01*
X403220D02*
X409062D01*
X449448Y375468D02*
X455290D01*
X403982D02*
X409824D01*
X448686Y375722D02*
X454782D01*
X404490D02*
X410840D01*
X447670Y375976D02*
X454020D01*
X405252D02*
X411602D01*
X446908Y376230D02*
X453512D01*
X405760D02*
X412618D01*
X445892Y376484D02*
X452750D01*
X406522D02*
X413380D01*
X444876Y376738D02*
X451988D01*
X407284D02*
X414650D01*
X443606Y376992D02*
X451226D01*
X408046D02*
X415666D01*
X442590Y377246D02*
X450464D01*
X408808D02*
X416936D01*
X441066Y377500D02*
X449702D01*
X409570D02*
X418206D01*
X439542Y377754D02*
X448940D01*
X410332D02*
X419730D01*
X437510Y378008D02*
X447924D01*
X411348D02*
X421762D01*
X435224Y378262D02*
X447162D01*
X412110D02*
X424048D01*
X413126Y378516D02*
X446146D01*
X414396Y378770D02*
X445130D01*
X415412Y379024D02*
X443860D01*
X416682Y379278D02*
X442590D01*
X417952Y379532D02*
X441320D01*
X419476Y379786D02*
X439796D01*
X421508Y380040D02*
X437764D01*
X424048Y380294D02*
X435224D01*
D17*
X685500Y251593D02*
X689785D01*
X691213Y252070D01*
X691689Y252546D01*
X692165Y253498D01*
Y254926D01*
X691689Y255878D01*
X691213Y256354D01*
X689785Y256831D01*
X685500D01*
Y246833D01*
X694403Y253498D02*
Y246833D01*
Y250641D02*
X694879Y252070D01*
X695831Y253022D01*
X696783Y253498D01*
X698212D01*
X701497D02*
X700544Y253022D01*
X699592Y252070D01*
X699116Y250641D01*
Y249689D01*
X699592Y248261D01*
X700544Y247309D01*
X701497Y246833D01*
X702925D01*
X703877Y247309D01*
X704829Y248261D01*
X705305Y249689D01*
Y250641D01*
X704829Y252070D01*
X703877Y253022D01*
X702925Y253498D01*
X701497D01*
X713208D02*
Y245880D01*
X712732Y244452D01*
X712256Y243976D01*
X711304Y243500D01*
X709876D01*
X708923Y243976D01*
X713208Y252070D02*
X712256Y253022D01*
X711304Y253498D01*
X709876D01*
X708923Y253022D01*
X707971Y252070D01*
X707495Y250641D01*
Y249689D01*
X707971Y248261D01*
X708923Y247309D01*
X709876Y246833D01*
X711304D01*
X712256Y247309D01*
X713208Y248261D01*
X629500Y228498D02*
X633309Y218500D01*
X637117Y228498D02*
X633309Y218500D01*
X641259Y228498D02*
X640307Y228022D01*
X639355Y227070D01*
X638879Y226117D01*
X638403Y224689D01*
Y222309D01*
X638879Y220880D01*
X639355Y219928D01*
X640307Y218976D01*
X641259Y218500D01*
X643164D01*
X644116Y218976D01*
X645068Y219928D01*
X645544Y220880D01*
X646020Y222309D01*
Y224689D01*
X645544Y226117D01*
X645068Y227070D01*
X644116Y228022D01*
X643164Y228498D01*
X641259D01*
X648353D02*
Y218500D01*
X654066D01*
X659446Y227070D02*
Y218500D01*
X655161Y222785D02*
X663731D01*
X867162Y517053D02*
X857164Y513244D01*
X867162Y509436D01*
X863829Y510864D02*
Y515625D01*
X860497Y519386D02*
X865258D01*
X866686Y519862D01*
X867162Y520814D01*
Y522243D01*
X866686Y523195D01*
X865258Y524623D01*
X860497D02*
X867162D01*
X857164Y532954D02*
X867162D01*
X861925D02*
X860973Y532002D01*
X860497Y531050D01*
Y529622D01*
X860973Y528670D01*
X861925Y527718D01*
X863353Y527241D01*
X864305D01*
X865734Y527718D01*
X866686Y528670D01*
X867162Y529622D01*
Y531050D01*
X866686Y532002D01*
X865734Y532954D01*
X857164Y536573D02*
X857640Y537049D01*
X857164Y537525D01*
X856688Y537049D01*
X857164Y536573D01*
X860497Y537049D02*
X867162D01*
X860497Y541667D02*
X860973Y540715D01*
X861925Y539762D01*
X863353Y539286D01*
X864305D01*
X865734Y539762D01*
X866686Y540715D01*
X867162Y541667D01*
Y543095D01*
X866686Y544047D01*
X865734Y545000D01*
X864305Y545476D01*
X863353D01*
X861925Y545000D01*
X860973Y544047D01*
X860497Y543095D01*
Y541667D01*
Y557901D02*
X860973Y556949D01*
X861925Y555997D01*
X863353Y555521D01*
X864305D01*
X865734Y555997D01*
X866686Y556949D01*
X867162Y557901D01*
Y559330D01*
X866686Y560282D01*
X865734Y561234D01*
X864305Y561710D01*
X863353D01*
X861925Y561234D01*
X860973Y560282D01*
X860497Y559330D01*
Y557901D01*
Y563900D02*
X865258D01*
X866686Y564376D01*
X867162Y565328D01*
Y566757D01*
X866686Y567709D01*
X865258Y569137D01*
X860497D02*
X867162D01*
X857164Y573184D02*
X865258D01*
X866686Y573660D01*
X867162Y574612D01*
Y575564D01*
X860497Y571756D02*
Y575088D01*
X528500Y228498D02*
Y218500D01*
Y228498D02*
X532785D01*
X534213Y228022D01*
X534689Y227546D01*
X535165Y226593D01*
Y225641D01*
X534689Y224689D01*
X534213Y224213D01*
X532785Y223737D01*
X528500D02*
X532785D01*
X534213Y223261D01*
X534689Y222785D01*
X535165Y221833D01*
Y220404D01*
X534689Y219452D01*
X534213Y218976D01*
X532785Y218500D01*
X528500D01*
X545020D02*
X541212Y228498D01*
X537403Y218500D01*
X538831Y221833D02*
X543592D01*
X547353Y228498D02*
Y218500D01*
Y228498D02*
X554018Y218500D01*
Y228498D02*
Y218500D01*
X556780Y228498D02*
Y218500D01*
Y228498D02*
X560112D01*
X561540Y228022D01*
X562493Y227070D01*
X562969Y226117D01*
X563445Y224689D01*
Y222309D01*
X562969Y220880D01*
X562493Y219928D01*
X561540Y218976D01*
X560112Y218500D01*
X556780D01*
X569967Y227070D02*
Y218500D01*
X565682Y222785D02*
X574252D01*
X539071Y289498D02*
Y279500D01*
Y289498D02*
X542880Y279500D01*
X546688Y289498D02*
X542880Y279500D01*
X546688Y289498D02*
Y279500D01*
X549545Y289498D02*
Y279500D01*
X558305Y288070D02*
X557353Y289022D01*
X555924Y289498D01*
X554020D01*
X552592Y289022D01*
X551640Y288070D01*
Y287117D01*
X552116Y286165D01*
X552592Y285689D01*
X553544Y285213D01*
X556400Y284261D01*
X557353Y283785D01*
X557829Y283309D01*
X558305Y282356D01*
Y280928D01*
X557353Y279976D01*
X555924Y279500D01*
X554020D01*
X552592Y279976D01*
X551640Y280928D01*
X563399Y289498D02*
X562447Y289022D01*
X561495Y288070D01*
X561018Y287117D01*
X560542Y285689D01*
Y283309D01*
X561018Y281880D01*
X561495Y280928D01*
X562447Y279976D01*
X563399Y279500D01*
X565303D01*
X566255Y279976D01*
X567208Y280928D01*
X567684Y281880D01*
X568160Y283309D01*
Y285689D01*
X567684Y287117D01*
X567208Y288070D01*
X566255Y289022D01*
X565303Y289498D01*
X563399D01*
X356403Y228498D02*
Y218500D01*
Y228498D02*
X360688D01*
X362116Y228022D01*
X362592Y227546D01*
X363068Y226593D01*
Y225641D01*
X362592Y224689D01*
X362116Y224213D01*
X360688Y223737D01*
X356403D02*
X360688D01*
X362116Y223261D01*
X362592Y222785D01*
X363068Y221833D01*
Y220404D01*
X362592Y219452D01*
X362116Y218976D01*
X360688Y218500D01*
X356403D01*
X365306Y228498D02*
X367686Y218500D01*
X370067Y228498D02*
X367686Y218500D01*
X370067Y228498D02*
X372447Y218500D01*
X374828Y228498D02*
X372447Y218500D01*
X33457Y120578D02*
X29648Y130576D01*
X25839Y120578D01*
X27267Y123910D02*
X32028D01*
X35789Y130576D02*
Y120578D01*
Y130576D02*
X39598Y120578D01*
X43407Y130576D02*
X39598Y120578D01*
X43407Y130576D02*
Y120578D01*
X61736D02*
X57927Y130576D01*
X54119Y120578D01*
X55547Y123910D02*
X60308D01*
X64069Y130576D02*
Y120578D01*
Y130576D02*
X70734Y120578D01*
Y130576D02*
Y120578D01*
X76828Y130576D02*
Y120578D01*
X73496Y130576D02*
X80161D01*
X680997Y287117D02*
X680521Y288070D01*
X679569Y289022D01*
X678617Y289498D01*
X676713D01*
X675761Y289022D01*
X674808Y288070D01*
X674332Y287117D01*
X673856Y285689D01*
Y283309D01*
X674332Y281880D01*
X674808Y280928D01*
X675761Y279976D01*
X676713Y279500D01*
X678617D01*
X679569Y279976D01*
X680521Y280928D01*
X680997Y281880D01*
Y283309D01*
X678617D02*
X680997D01*
X683283Y289498D02*
Y279500D01*
Y289498D02*
X689948Y279500D01*
Y289498D02*
Y279500D01*
X692709Y289498D02*
Y279500D01*
Y289498D02*
X696042D01*
X697470Y289022D01*
X698422Y288070D01*
X698898Y287117D01*
X699374Y285689D01*
Y283309D01*
X698898Y281880D01*
X698422Y280928D01*
X697470Y279976D01*
X696042Y279500D01*
X692709D01*
X597704Y657880D02*
Y647882D01*
Y657880D02*
X601037D01*
X602465Y657403D01*
X603417Y656451D01*
X603893Y655499D01*
X604369Y654071D01*
Y651690D01*
X603893Y650262D01*
X603417Y649310D01*
X602465Y648358D01*
X601037Y647882D01*
X597704D01*
X606607Y651690D02*
X612320D01*
Y652643D01*
X611844Y653595D01*
X611368Y654071D01*
X610416Y654547D01*
X608987D01*
X608035Y654071D01*
X607083Y653119D01*
X606607Y651690D01*
Y650738D01*
X607083Y649310D01*
X608035Y648358D01*
X608987Y647882D01*
X610416D01*
X611368Y648358D01*
X612320Y649310D01*
X614462Y654547D02*
X617319Y647882D01*
X620175Y654547D02*
X617319Y647882D01*
X622270Y648834D02*
X621794Y648358D01*
X622270Y647882D01*
X622746Y648358D01*
X622270Y648834D01*
X632792Y657880D02*
Y647882D01*
Y653119D02*
X633744Y654071D01*
X634696Y654547D01*
X636124D01*
X637077Y654071D01*
X638029Y653119D01*
X638505Y651690D01*
Y650738D01*
X638029Y649310D01*
X637077Y648358D01*
X636124Y647882D01*
X634696D01*
X633744Y648358D01*
X632792Y649310D01*
X643028Y654547D02*
X642076Y654071D01*
X641123Y653119D01*
X640647Y651690D01*
Y650738D01*
X641123Y649310D01*
X642076Y648358D01*
X643028Y647882D01*
X644456D01*
X645408Y648358D01*
X646360Y649310D01*
X646836Y650738D01*
Y651690D01*
X646360Y653119D01*
X645408Y654071D01*
X644456Y654547D01*
X643028D01*
X654740D02*
Y647882D01*
Y653119D02*
X653787Y654071D01*
X652835Y654547D01*
X651407D01*
X650455Y654071D01*
X649502Y653119D01*
X649026Y651690D01*
Y650738D01*
X649502Y649310D01*
X650455Y648358D01*
X651407Y647882D01*
X652835D01*
X653787Y648358D01*
X654740Y649310D01*
X657405Y654547D02*
Y647882D01*
Y651690D02*
X657882Y653119D01*
X658834Y654071D01*
X659786Y654547D01*
X661214D01*
X667832Y657880D02*
Y647882D01*
Y653119D02*
X666880Y654071D01*
X665928Y654547D01*
X664499D01*
X663547Y654071D01*
X662595Y653119D01*
X662119Y651690D01*
Y650738D01*
X662595Y649310D01*
X663547Y648358D01*
X664499Y647882D01*
X665928D01*
X666880Y648358D01*
X667832Y649310D01*
X685019Y656451D02*
X684066Y657403D01*
X682638Y657880D01*
X680734D01*
X679306Y657403D01*
X678353Y656451D01*
Y655499D01*
X678829Y654547D01*
X679306Y654071D01*
X680258Y653595D01*
X683114Y652643D01*
X684066Y652167D01*
X684543Y651690D01*
X685019Y650738D01*
Y649310D01*
X684066Y648358D01*
X682638Y647882D01*
X680734D01*
X679306Y648358D01*
X678353Y649310D01*
X688208Y657880D02*
X688685Y657403D01*
X689161Y657880D01*
X688685Y658356D01*
X688208Y657880D01*
X688685Y654547D02*
Y647882D01*
X695683Y657880D02*
X690922Y651214D01*
X698064D01*
X695683Y657880D02*
Y647882D01*
X706490Y657880D02*
X701729Y647882D01*
X699825Y657880D02*
X706490D01*
X709680D02*
X714917D01*
X712060Y654071D01*
X713489D01*
X714441Y653595D01*
X714917Y653119D01*
X715393Y651690D01*
Y650738D01*
X714917Y649310D01*
X713965Y648358D01*
X712537Y647882D01*
X711108D01*
X709680Y648358D01*
X709204Y648834D01*
X708728Y649786D01*
X723344Y657880D02*
X718583D01*
X718107Y653595D01*
X718583Y654071D01*
X720011Y654547D01*
X721439D01*
X722868Y654071D01*
X723820Y653119D01*
X724296Y651690D01*
Y650738D01*
X723820Y649310D01*
X722868Y648358D01*
X721439Y647882D01*
X720011D01*
X718583Y648358D01*
X718107Y648834D01*
X717631Y649786D01*
X940030Y289589D02*
Y282448D01*
X940506Y281019D01*
X941458Y280067D01*
X942886Y279591D01*
X943838D01*
X945267Y280067D01*
X946219Y281019D01*
X946695Y282448D01*
Y289589D01*
X956122Y288161D02*
X955169Y289113D01*
X953741Y289589D01*
X951837D01*
X950408Y289113D01*
X949456Y288161D01*
Y287209D01*
X949932Y286257D01*
X950408Y285780D01*
X951361Y285304D01*
X954217Y284352D01*
X955169Y283876D01*
X955645Y283400D01*
X956122Y282448D01*
Y281019D01*
X955169Y280067D01*
X953741Y279591D01*
X951837D01*
X950408Y280067D01*
X949456Y281019D01*
X958359Y289589D02*
Y279591D01*
Y289589D02*
X962644D01*
X964072Y289113D01*
X964548Y288637D01*
X965024Y287685D01*
Y286733D01*
X964548Y285780D01*
X964072Y285304D01*
X962644Y284828D01*
X958359D02*
X962644D01*
X964072Y284352D01*
X964548Y283876D01*
X965024Y282924D01*
Y281496D01*
X964548Y280543D01*
X964072Y280067D01*
X962644Y279591D01*
X958359D01*
X637952Y289498D02*
Y279500D01*
Y289498D02*
X641760Y279500D01*
X645569Y289498D02*
X641760Y279500D01*
X645569Y289498D02*
Y279500D01*
X651282Y289498D02*
X650330Y289022D01*
X649378Y288070D01*
X648902Y287117D01*
X648426Y285689D01*
Y283309D01*
X648902Y281880D01*
X649378Y280928D01*
X650330Y279976D01*
X651282Y279500D01*
X653187D01*
X654139Y279976D01*
X655091Y280928D01*
X655567Y281880D01*
X656043Y283309D01*
Y285689D01*
X655567Y287117D01*
X655091Y288070D01*
X654139Y289022D01*
X653187Y289498D01*
X651282D01*
X665041Y288070D02*
X664089Y289022D01*
X662661Y289498D01*
X660757D01*
X659328Y289022D01*
X658376Y288070D01*
Y287117D01*
X658852Y286165D01*
X659328Y285689D01*
X660280Y285213D01*
X663137Y284261D01*
X664089Y283785D01*
X664565Y283309D01*
X665041Y282356D01*
Y280928D01*
X664089Y279976D01*
X662661Y279500D01*
X660757D01*
X659328Y279976D01*
X658376Y280928D01*
X667279Y289498D02*
Y279500D01*
X528500Y112498D02*
Y102500D01*
Y112498D02*
X532785D01*
X534213Y112022D01*
X534689Y111546D01*
X535165Y110594D01*
Y109641D01*
X534689Y108689D01*
X534213Y108213D01*
X532785Y107737D01*
X528500D02*
X532785D01*
X534213Y107261D01*
X534689Y106785D01*
X535165Y105833D01*
Y104404D01*
X534689Y103452D01*
X534213Y102976D01*
X532785Y102500D01*
X528500D01*
X545020D02*
X541212Y112498D01*
X537403Y102500D01*
X538831Y105833D02*
X543592D01*
X547353Y112498D02*
Y102500D01*
Y112498D02*
X554018Y102500D01*
Y112498D02*
Y102500D01*
X556780Y112498D02*
Y102500D01*
Y112498D02*
X560112D01*
X561540Y112022D01*
X562493Y111070D01*
X562969Y110117D01*
X563445Y108689D01*
Y106309D01*
X562969Y104880D01*
X562493Y103928D01*
X561540Y102976D01*
X560112Y102500D01*
X556780D01*
X565682Y106785D02*
X574252D01*
X607380Y289498D02*
Y279500D01*
Y289498D02*
X611665D01*
X613093Y289022D01*
X613569Y288546D01*
X614045Y287593D01*
Y286641D01*
X613569Y285689D01*
X613093Y285213D01*
X611665Y284737D01*
X607380D01*
X610713D02*
X614045Y279500D01*
X622948Y288070D02*
X621996Y289022D01*
X620568Y289498D01*
X618663D01*
X617235Y289022D01*
X616283Y288070D01*
Y287117D01*
X616759Y286165D01*
X617235Y285689D01*
X618187Y285213D01*
X621044Y284261D01*
X621996Y283785D01*
X622472Y283309D01*
X622948Y282356D01*
Y280928D01*
X621996Y279976D01*
X620568Y279500D01*
X618663D01*
X617235Y279976D01*
X616283Y280928D01*
X628518Y289498D02*
Y279500D01*
X625186Y289498D02*
X631851D01*
X452974Y218500D02*
X449165Y228498D01*
X445356Y218500D01*
X446785Y221833D02*
X451545D01*
X462448Y226117D02*
X461972Y227070D01*
X461020Y228022D01*
X460067Y228498D01*
X458163D01*
X457211Y228022D01*
X456259Y227070D01*
X455783Y226117D01*
X455307Y224689D01*
Y222309D01*
X455783Y220880D01*
X456259Y219928D01*
X457211Y218976D01*
X458163Y218500D01*
X460067D01*
X461020Y218976D01*
X461972Y219928D01*
X462448Y220880D01*
Y222309D01*
X460067D02*
X462448D01*
X471874Y226117D02*
X471398Y227070D01*
X470446Y228022D01*
X469494Y228498D01*
X467590D01*
X466637Y228022D01*
X465685Y227070D01*
X465209Y226117D01*
X464733Y224689D01*
Y222309D01*
X465209Y220880D01*
X465685Y219928D01*
X466637Y218976D01*
X467590Y218500D01*
X469494D01*
X470446Y218976D01*
X471398Y219928D01*
X471874Y220880D01*
X96934Y628498D02*
X96458Y627070D01*
X95506Y626117D01*
X94078Y625641D01*
X93602D01*
X92173Y626117D01*
X91221Y627070D01*
X90745Y628498D01*
Y628974D01*
X91221Y630402D01*
X92173Y631354D01*
X93602Y631830D01*
X94078D01*
X95506Y631354D01*
X96458Y630402D01*
X96934Y628498D01*
Y626117D01*
X96458Y623737D01*
X95506Y622309D01*
X94078Y621833D01*
X93125D01*
X91697Y622309D01*
X91221Y623261D01*
X99648Y631830D02*
X103456Y621833D01*
X107265Y631830D02*
X103456Y621833D01*
X116406Y628498D02*
Y618500D01*
Y627070D02*
X117358Y628022D01*
X118310Y628498D01*
X119739D01*
X120691Y628022D01*
X121643Y627070D01*
X122119Y625641D01*
Y624689D01*
X121643Y623261D01*
X120691Y622309D01*
X119739Y621833D01*
X118310D01*
X117358Y622309D01*
X116406Y623261D01*
X126642Y628498D02*
X125690Y628022D01*
X124738Y627070D01*
X124262Y625641D01*
Y624689D01*
X124738Y623261D01*
X125690Y622309D01*
X126642Y621833D01*
X128070D01*
X129022Y622309D01*
X129975Y623261D01*
X130451Y624689D01*
Y625641D01*
X129975Y627070D01*
X129022Y628022D01*
X128070Y628498D01*
X126642D01*
X132641D02*
X134545Y621833D01*
X136449Y628498D02*
X134545Y621833D01*
X136449Y628498D02*
X138354Y621833D01*
X140258Y628498D02*
X138354Y621833D01*
X142591Y625641D02*
X148304D01*
Y626594D01*
X147828Y627546D01*
X147352Y628022D01*
X146400Y628498D01*
X144971D01*
X144019Y628022D01*
X143067Y627070D01*
X142591Y625641D01*
Y624689D01*
X143067Y623261D01*
X144019Y622309D01*
X144971Y621833D01*
X146400D01*
X147352Y622309D01*
X148304Y623261D01*
X150446Y628498D02*
Y621833D01*
Y625641D02*
X150922Y627070D01*
X151875Y628022D01*
X152827Y628498D01*
X154255D01*
X581521Y288070D02*
X580569Y289022D01*
X579141Y289498D01*
X577237D01*
X575808Y289022D01*
X574856Y288070D01*
Y287117D01*
X575332Y286165D01*
X575808Y285689D01*
X576761Y285213D01*
X579617Y284261D01*
X580569Y283785D01*
X581045Y283309D01*
X581521Y282356D01*
Y280928D01*
X580569Y279976D01*
X579141Y279500D01*
X577237D01*
X575808Y279976D01*
X574856Y280928D01*
X590900Y287117D02*
X590424Y288070D01*
X589472Y289022D01*
X588520Y289498D01*
X586616D01*
X585663Y289022D01*
X584711Y288070D01*
X584235Y287117D01*
X583759Y285689D01*
Y283309D01*
X584235Y281880D01*
X584711Y280928D01*
X585663Y279976D01*
X586616Y279500D01*
X588520D01*
X589472Y279976D01*
X590424Y280928D01*
X590900Y281880D01*
X593709Y289498D02*
Y279500D01*
X600374Y289498D02*
X593709Y282833D01*
X596090Y285213D02*
X600374Y279500D01*
X29148Y267575D02*
Y257577D01*
Y267575D02*
X35338D01*
X29148Y262814D02*
X32957D01*
X36480Y267575D02*
Y257577D01*
Y267575D02*
X40289Y257577D01*
X44098Y267575D02*
X40289Y257577D01*
X44098Y267575D02*
Y257577D01*
X62427D02*
X58618Y267575D01*
X54810Y257577D01*
X56238Y260909D02*
X60999D01*
X64760Y267575D02*
Y257577D01*
Y267575D02*
X71425Y257577D01*
Y267575D02*
Y257577D01*
X77519Y267575D02*
Y257577D01*
X74186Y267575D02*
X80852D01*
X629500Y112498D02*
X633309Y102500D01*
X637117Y112498D02*
X633309Y102500D01*
X641259Y112498D02*
X640307Y112022D01*
X639355Y111070D01*
X638879Y110117D01*
X638403Y108689D01*
Y106309D01*
X638879Y104880D01*
X639355Y103928D01*
X640307Y102976D01*
X641259Y102500D01*
X643164D01*
X644116Y102976D01*
X645068Y103928D01*
X645544Y104880D01*
X646020Y106309D01*
Y108689D01*
X645544Y110117D01*
X645068Y111070D01*
X644116Y112022D01*
X643164Y112498D01*
X641259D01*
X648353D02*
Y102500D01*
X654066D01*
X655161Y106785D02*
X663731D01*
X452236Y103500D02*
X448427Y113498D01*
X444618Y103500D01*
X446046Y106833D02*
X450807D01*
X454568Y113498D02*
X458377Y103500D01*
X462186Y113498D02*
X458377Y103500D01*
X470613Y111117D02*
X470136Y112070D01*
X469184Y113022D01*
X468232Y113498D01*
X466328D01*
X465376Y113022D01*
X464423Y112070D01*
X463947Y111117D01*
X463471Y109689D01*
Y107309D01*
X463947Y105880D01*
X464423Y104928D01*
X465376Y103976D01*
X466328Y103500D01*
X468232D01*
X469184Y103976D01*
X470136Y104928D01*
X470613Y105880D01*
X353689Y113498D02*
Y103500D01*
Y113498D02*
X357974D01*
X359402Y113022D01*
X359879Y112546D01*
X360355Y111594D01*
Y110641D01*
X359879Y109689D01*
X359402Y109213D01*
X357974Y108737D01*
X353689D02*
X357974D01*
X359402Y108261D01*
X359879Y107785D01*
X360355Y106833D01*
Y105404D01*
X359879Y104452D01*
X359402Y103976D01*
X357974Y103500D01*
X353689D01*
X362592Y113498D02*
Y103500D01*
Y113498D02*
X368781D01*
X362592Y108737D02*
X366401D01*
X372780Y113498D02*
X371828Y113022D01*
X370876Y112070D01*
X370400Y111117D01*
X369924Y109689D01*
Y107309D01*
X370400Y105880D01*
X370876Y104928D01*
X371828Y103976D01*
X372780Y103500D01*
X374685D01*
X375637Y103976D01*
X376589Y104928D01*
X377065Y105880D01*
X377541Y107309D01*
Y109689D01*
X377065Y111117D01*
X376589Y112070D01*
X375637Y113022D01*
X374685Y113498D01*
X372780D01*
X21690Y416264D02*
X22642Y416740D01*
X24070Y418168D01*
Y408170D01*
X18166Y387787D02*
Y388264D01*
X18642Y389216D01*
X19118Y389692D01*
X20070Y390168D01*
X21975D01*
X22927Y389692D01*
X23403Y389216D01*
X23879Y388264D01*
Y387311D01*
X23403Y386359D01*
X22451Y384931D01*
X17690Y380170D01*
X24355D01*
X164879Y414835D02*
X164403Y413407D01*
X163451Y412455D01*
X162023Y411979D01*
X161546D01*
X160118Y412455D01*
X159166Y413407D01*
X158690Y414835D01*
Y415311D01*
X159166Y416740D01*
X160118Y417692D01*
X161546Y418168D01*
X162023D01*
X163451Y417692D01*
X164403Y416740D01*
X164879Y414835D01*
Y412455D01*
X164403Y410074D01*
X163451Y408646D01*
X162023Y408170D01*
X161070D01*
X159642Y408646D01*
X159166Y409598D01*
X158690Y389263D02*
X159642Y389740D01*
X161070Y391168D01*
Y381170D01*
X168878Y391168D02*
X167450Y390692D01*
X166498Y389263D01*
X166022Y386883D01*
Y385455D01*
X166498Y383074D01*
X167450Y381646D01*
X168878Y381170D01*
X169830D01*
X171259Y381646D01*
X172211Y383074D01*
X172687Y385455D01*
Y386883D01*
X172211Y389263D01*
X171259Y390692D01*
X169830Y391168D01*
X168878D01*
X102000Y33998D02*
X105809Y24000D01*
X109617Y33998D02*
X105809Y24000D01*
X110903Y27809D02*
X116616D01*
Y28761D01*
X116140Y29713D01*
X115664Y30189D01*
X114712Y30665D01*
X113283D01*
X112331Y30189D01*
X111379Y29237D01*
X110903Y27809D01*
Y26857D01*
X111379Y25428D01*
X112331Y24476D01*
X113283Y24000D01*
X114712D01*
X115664Y24476D01*
X116616Y25428D01*
X118758Y30665D02*
Y24000D01*
Y27809D02*
X119234Y29237D01*
X120187Y30189D01*
X121139Y30665D01*
X122567D01*
X123948Y24952D02*
X123472Y24476D01*
X123948Y24000D01*
X124424Y24476D01*
X123948Y24952D01*
X134469Y32094D02*
X135421Y32570D01*
X136850Y33998D01*
Y24000D01*
X142277Y24952D02*
X141801Y24476D01*
X142277Y24000D01*
X142753Y24476D01*
X142277Y24952D01*
X147800Y33998D02*
X146371Y33522D01*
X145419Y32094D01*
X144943Y29713D01*
Y28285D01*
X145419Y25904D01*
X146371Y24476D01*
X147800Y24000D01*
X148752D01*
X150180Y24476D01*
X151132Y25904D01*
X151608Y28285D01*
Y29713D01*
X151132Y32094D01*
X150180Y33522D01*
X148752Y33998D01*
X147800D01*
X162178Y31617D02*
Y32094D01*
X162654Y33046D01*
X163130Y33522D01*
X164082Y33998D01*
X165986D01*
X166938Y33522D01*
X167414Y33046D01*
X167891Y32094D01*
Y31141D01*
X167414Y30189D01*
X166462Y28761D01*
X161702Y24000D01*
X168367D01*
X173461Y33998D02*
X172033Y33522D01*
X171080Y32094D01*
X170604Y29713D01*
Y28285D01*
X171080Y25904D01*
X172033Y24476D01*
X173461Y24000D01*
X174413D01*
X175841Y24476D01*
X176793Y25904D01*
X177270Y28285D01*
Y29713D01*
X176793Y32094D01*
X175841Y33522D01*
X174413Y33998D01*
X173461D01*
X179983Y31617D02*
Y32094D01*
X180459Y33046D01*
X180935Y33522D01*
X181888Y33998D01*
X183792D01*
X184744Y33522D01*
X185220Y33046D01*
X185696Y32094D01*
Y31141D01*
X185220Y30189D01*
X184268Y28761D01*
X179507Y24000D01*
X186172D01*
X191267Y33998D02*
X189838Y33522D01*
X188886Y32094D01*
X188410Y29713D01*
Y28285D01*
X188886Y25904D01*
X189838Y24476D01*
X191267Y24000D01*
X192219D01*
X193647Y24476D01*
X194599Y25904D01*
X195075Y28285D01*
Y29713D01*
X194599Y32094D01*
X193647Y33522D01*
X192219Y33998D01*
X191267D01*
X131000Y441998D02*
X137665Y432000D01*
Y441998D02*
X131000Y432000D01*
X139903Y436761D02*
X144188D01*
X145616Y437237D01*
X146092Y437713D01*
X146568Y438665D01*
Y440093D01*
X146092Y441046D01*
X145616Y441522D01*
X144188Y441998D01*
X139903D01*
Y432000D01*
X149758Y441998D02*
X154995D01*
X152138Y438189D01*
X153567D01*
X154519Y437713D01*
X154995Y437237D01*
X155471Y435809D01*
Y434856D01*
X154995Y433428D01*
X154043Y432476D01*
X152614Y432000D01*
X151186D01*
X149758Y432476D01*
X149282Y432952D01*
X148806Y433904D01*
X686000Y272998D02*
X692665Y263000D01*
Y272998D02*
X686000Y263000D01*
X694903Y267761D02*
X699188D01*
X700616Y268237D01*
X701092Y268713D01*
X701568Y269665D01*
Y271094D01*
X701092Y272046D01*
X700616Y272522D01*
X699188Y272998D01*
X694903D01*
Y263000D01*
X704282Y270617D02*
Y271094D01*
X704758Y272046D01*
X705234Y272522D01*
X706186Y272998D01*
X708091D01*
X709043Y272522D01*
X709519Y272046D01*
X709995Y271094D01*
Y270141D01*
X709519Y269189D01*
X708567Y267761D01*
X703806Y263000D01*
X710471D01*
X881824Y614600D02*
X888489Y604602D01*
Y614600D02*
X881824Y604602D01*
X897392Y613172D02*
X896440Y614124D01*
X895012Y614600D01*
X893107D01*
X891679Y614124D01*
X890727Y613172D01*
Y612219D01*
X891203Y611267D01*
X891679Y610791D01*
X892631Y610315D01*
X895488Y609363D01*
X896440Y608887D01*
X896916Y608411D01*
X897392Y607458D01*
Y606030D01*
X896440Y605078D01*
X895012Y604602D01*
X893107D01*
X891679Y605078D01*
X890727Y606030D01*
X899630Y612696D02*
X900582Y613172D01*
X902010Y614600D01*
Y604602D01*
X186000Y172998D02*
Y163000D01*
Y172998D02*
X190285D01*
X191713Y172522D01*
X192189Y172046D01*
X192665Y171094D01*
Y170141D01*
X192189Y169189D01*
X191713Y168713D01*
X190285Y168237D01*
X186000D01*
X189333D02*
X192665Y163000D01*
X199664Y172998D02*
X194903Y166333D01*
X202044D01*
X199664Y172998D02*
Y163000D01*
X564644Y452783D02*
X567000Y441000D01*
X559930Y448070D02*
X564644Y452783D01*
X567000Y441000D02*
X571713Y445713D01*
X568246Y456385D02*
X567909Y455375D01*
Y454028D01*
X568246Y453018D01*
X568919Y451672D01*
X570602Y449988D01*
X571949Y449315D01*
X572959Y448979D01*
X574305Y448979D01*
X575315Y449315D01*
X576662Y450662D01*
X576998Y451672D01*
Y453018D01*
X576662Y454028D01*
X575988Y455375D01*
X574305Y457058D01*
X572959Y457731D01*
X571949Y458068D01*
X570602D01*
X569592Y457731D01*
X568246Y456385D01*
X574978Y451672D02*
X579018D01*
X575281Y460054D02*
X574945Y460391D01*
X574608Y461401D01*
Y462074D01*
X574945Y463084D01*
X576291Y464431D01*
X577301Y464767D01*
X577975D01*
X578985Y464431D01*
X579658Y463757D01*
X579995Y462747D01*
X580331Y461064D01*
Y454331D01*
X585044Y459044D01*
X760412Y522652D02*
X764221Y512654D01*
X768029Y522652D02*
X764221Y512654D01*
X769315Y522652D02*
Y512654D01*
Y522652D02*
X772647D01*
X774076Y522176D01*
X775028Y521224D01*
X775504Y520271D01*
X775980Y518843D01*
Y516463D01*
X775504Y515034D01*
X775028Y514082D01*
X774076Y513130D01*
X772647Y512654D01*
X769315D01*
X782979Y522652D02*
X778218Y515987D01*
X785359D01*
X782979Y522652D02*
Y512654D01*
X147000Y535998D02*
X150809Y526000D01*
X154617Y535998D02*
X150809Y526000D01*
X155903Y535998D02*
Y526000D01*
Y535998D02*
X159235D01*
X160664Y535522D01*
X161616Y534570D01*
X162092Y533617D01*
X162568Y532189D01*
Y529809D01*
X162092Y528380D01*
X161616Y527428D01*
X160664Y526476D01*
X159235Y526000D01*
X155903D01*
X165758Y535998D02*
X170995D01*
X168138Y532189D01*
X169567D01*
X170519Y531713D01*
X170995Y531237D01*
X171471Y529809D01*
Y528857D01*
X170995Y527428D01*
X170043Y526476D01*
X168614Y526000D01*
X167186D01*
X165758Y526476D01*
X165282Y526952D01*
X164806Y527904D01*
X94000Y491998D02*
Y482000D01*
Y491998D02*
X97333D01*
X98761Y491522D01*
X99713Y490570D01*
X100189Y489617D01*
X100665Y488189D01*
Y485809D01*
X100189Y484380D01*
X99713Y483428D01*
X98761Y482476D01*
X97333Y482000D01*
X94000D01*
X110520D02*
X106712Y491998D01*
X102903Y482000D01*
X104331Y485333D02*
X109092D01*
X112853Y490093D02*
X113805Y490570D01*
X115233Y491998D01*
Y482000D01*
X47141Y435617D02*
X46665Y436570D01*
X45713Y437522D01*
X44761Y437998D01*
X42856D01*
X41904Y437522D01*
X40952Y436570D01*
X40476Y435617D01*
X40000Y434189D01*
Y431809D01*
X40476Y430380D01*
X40952Y429428D01*
X41904Y428476D01*
X42856Y428000D01*
X44761D01*
X45713Y428476D01*
X46665Y429428D01*
X47141Y430380D01*
X55663Y437998D02*
X50902D01*
X50426Y433713D01*
X50902Y434189D01*
X52331Y434665D01*
X53759D01*
X55187Y434189D01*
X56139Y433237D01*
X56616Y431809D01*
Y430857D01*
X56139Y429428D01*
X55187Y428476D01*
X53759Y428000D01*
X52331D01*
X50902Y428476D01*
X50426Y428952D01*
X49950Y429904D01*
X73141Y435617D02*
X72665Y436570D01*
X71713Y437522D01*
X70761Y437998D01*
X68857D01*
X67904Y437522D01*
X66952Y436570D01*
X66476Y435617D01*
X66000Y434189D01*
Y431809D01*
X66476Y430380D01*
X66952Y429428D01*
X67904Y428476D01*
X68857Y428000D01*
X70761D01*
X71713Y428476D01*
X72665Y429428D01*
X73141Y430380D01*
X76902Y437998D02*
X82139D01*
X79283Y434189D01*
X80711D01*
X81663Y433713D01*
X82139Y433237D01*
X82615Y431809D01*
Y430857D01*
X82139Y429428D01*
X81187Y428476D01*
X79759Y428000D01*
X78331D01*
X76902Y428476D01*
X76426Y428952D01*
X75950Y429904D01*
X709002Y203000D02*
X719000D01*
X709002D02*
Y207285D01*
X709478Y208713D01*
X709954Y209189D01*
X710907Y209665D01*
X711859D01*
X712811Y209189D01*
X713287Y208713D01*
X713763Y207285D01*
Y203000D02*
Y207285D01*
X714239Y208713D01*
X714715Y209189D01*
X715667Y209665D01*
X717096D01*
X718048Y209189D01*
X718524Y208713D01*
X719000Y207285D01*
Y203000D01*
X709002Y211903D02*
X719000D01*
X709002D02*
Y216188D01*
X709478Y217616D01*
X709954Y218092D01*
X710907Y218568D01*
X711859D01*
X712811Y218092D01*
X713287Y217616D01*
X713763Y216188D01*
Y211903D01*
Y215236D02*
X719000Y218568D01*
X710907Y220806D02*
X710430Y221758D01*
X709002Y223186D01*
X719000D01*
X289000Y309998D02*
Y300000D01*
Y309998D02*
X293285D01*
X294713Y309522D01*
X295189Y309046D01*
X295665Y308093D01*
Y307141D01*
X295189Y306189D01*
X294713Y305713D01*
X293285Y305237D01*
X289000D01*
X292333D02*
X295665Y300000D01*
X303616Y308570D02*
X303140Y309522D01*
X301712Y309998D01*
X300759D01*
X299331Y309522D01*
X298379Y308093D01*
X297903Y305713D01*
Y303333D01*
X298379Y301428D01*
X299331Y300476D01*
X300759Y300000D01*
X301236D01*
X302664Y300476D01*
X303616Y301428D01*
X304092Y302857D01*
Y303333D01*
X303616Y304761D01*
X302664Y305713D01*
X301236Y306189D01*
X300759D01*
X299331Y305713D01*
X298379Y304761D01*
X297903Y303333D01*
X271000Y301998D02*
Y292000D01*
Y301998D02*
X275285D01*
X276713Y301522D01*
X277189Y301046D01*
X277665Y300093D01*
Y299141D01*
X277189Y298189D01*
X276713Y297713D01*
X275285Y297237D01*
X271000D01*
X274333D02*
X277665Y292000D01*
X285616Y301998D02*
X280855D01*
X280379Y297713D01*
X280855Y298189D01*
X282283Y298665D01*
X283711D01*
X285140Y298189D01*
X286092Y297237D01*
X286568Y295809D01*
Y294856D01*
X286092Y293428D01*
X285140Y292476D01*
X283711Y292000D01*
X282283D01*
X280855Y292476D01*
X280379Y292952D01*
X279903Y293904D01*
X317665Y111570D02*
X316713Y112522D01*
X315285Y112998D01*
X313380D01*
X311952Y112522D01*
X311000Y111570D01*
Y110617D01*
X311476Y109665D01*
X311952Y109189D01*
X312904Y108713D01*
X315761Y107761D01*
X316713Y107285D01*
X317189Y106809D01*
X317665Y105857D01*
Y104428D01*
X316713Y103476D01*
X315285Y103000D01*
X313380D01*
X311952Y103476D01*
X311000Y104428D01*
X319903Y112998D02*
Y103000D01*
Y112998D02*
X324188D01*
X325616Y112522D01*
X326092Y112046D01*
X326568Y111094D01*
Y110141D01*
X326092Y109189D01*
X325616Y108713D01*
X324188Y108237D01*
X319903D02*
X324188D01*
X325616Y107761D01*
X326092Y107285D01*
X326568Y106333D01*
Y104904D01*
X326092Y103952D01*
X325616Y103476D01*
X324188Y103000D01*
X319903D01*
X331186Y112998D02*
X329758Y112522D01*
X329282Y111570D01*
Y110617D01*
X329758Y109665D01*
X330710Y109189D01*
X332614Y108713D01*
X334043Y108237D01*
X334995Y107285D01*
X335471Y106333D01*
Y104904D01*
X334995Y103952D01*
X334519Y103476D01*
X333091Y103000D01*
X331186D01*
X329758Y103476D01*
X329282Y103952D01*
X328806Y104904D01*
Y106333D01*
X329282Y107285D01*
X330234Y108237D01*
X331662Y108713D01*
X333567Y109189D01*
X334519Y109665D01*
X334995Y110617D01*
Y111570D01*
X334519Y112522D01*
X333091Y112998D01*
X331186D01*
X316665Y227570D02*
X315713Y228522D01*
X314285Y228998D01*
X312380D01*
X310952Y228522D01*
X310000Y227570D01*
Y226617D01*
X310476Y225665D01*
X310952Y225189D01*
X311904Y224713D01*
X314761Y223761D01*
X315713Y223285D01*
X316189Y222809D01*
X316665Y221856D01*
Y220428D01*
X315713Y219476D01*
X314285Y219000D01*
X312380D01*
X310952Y219476D01*
X310000Y220428D01*
X318903Y228998D02*
Y219000D01*
Y228998D02*
X323188D01*
X324616Y228522D01*
X325092Y228046D01*
X325568Y227094D01*
Y226141D01*
X325092Y225189D01*
X324616Y224713D01*
X323188Y224237D01*
X318903D02*
X323188D01*
X324616Y223761D01*
X325092Y223285D01*
X325568Y222333D01*
Y220904D01*
X325092Y219952D01*
X324616Y219476D01*
X323188Y219000D01*
X318903D01*
X334471Y228998D02*
X329710Y219000D01*
X327806Y228998D02*
X334471D01*
X598000Y480998D02*
Y471000D01*
Y480998D02*
X602285D01*
X603713Y480522D01*
X604189Y480046D01*
X604665Y479094D01*
Y478141D01*
X604189Y477189D01*
X603713Y476713D01*
X602285Y476237D01*
X598000D01*
X601333D02*
X604665Y471000D01*
X606903Y479094D02*
X607855Y479570D01*
X609283Y480998D01*
Y471000D01*
X614235Y479094D02*
X615187Y479570D01*
X616615Y480998D01*
Y471000D01*
X631000Y480998D02*
Y471000D01*
X637665Y480998D02*
Y471000D01*
X631000Y476237D02*
X637665D01*
X640427Y480998D02*
Y471000D01*
X646140D01*
X648187Y480998D02*
X653424D01*
X650567Y477189D01*
X651995D01*
X652948Y476713D01*
X653424Y476237D01*
X653900Y474809D01*
Y473857D01*
X653424Y472428D01*
X652472Y471476D01*
X651043Y471000D01*
X649615D01*
X648187Y471476D01*
X647711Y471952D01*
X647235Y472904D01*
X306141Y647617D02*
X305665Y648570D01*
X304713Y649522D01*
X303761Y649998D01*
X301856D01*
X300904Y649522D01*
X299952Y648570D01*
X299476Y647617D01*
X299000Y646189D01*
Y643809D01*
X299476Y642380D01*
X299952Y641428D01*
X300904Y640476D01*
X301856Y640000D01*
X303761D01*
X304713Y640476D01*
X305665Y641428D01*
X306141Y642380D01*
X315139Y646665D02*
X314663Y645237D01*
X313711Y644285D01*
X312283Y643809D01*
X311807D01*
X310378Y644285D01*
X309426Y645237D01*
X308950Y646665D01*
Y647141D01*
X309426Y648570D01*
X310378Y649522D01*
X311807Y649998D01*
X312283D01*
X313711Y649522D01*
X314663Y648570D01*
X315139Y646665D01*
Y644285D01*
X314663Y641904D01*
X313711Y640476D01*
X312283Y640000D01*
X311331D01*
X309902Y640476D01*
X309426Y641428D01*
X836000Y453998D02*
X842665Y444000D01*
Y453998D02*
X836000Y444000D01*
X851568Y452570D02*
X850616Y453522D01*
X849188Y453998D01*
X847283D01*
X845855Y453522D01*
X844903Y452570D01*
Y451617D01*
X845379Y450665D01*
X845855Y450189D01*
X846807Y449713D01*
X849664Y448761D01*
X850616Y448285D01*
X851092Y447809D01*
X851568Y446856D01*
Y445428D01*
X850616Y444476D01*
X849188Y444000D01*
X847283D01*
X845855Y444476D01*
X844903Y445428D01*
X854282Y451617D02*
Y452094D01*
X854758Y453046D01*
X855234Y453522D01*
X856186Y453998D01*
X858091D01*
X859043Y453522D01*
X859519Y453046D01*
X859995Y452094D01*
Y451141D01*
X859519Y450189D01*
X858567Y448761D01*
X853806Y444000D01*
X860471D01*
X813000Y466998D02*
Y457000D01*
Y466998D02*
X817285D01*
X818713Y466522D01*
X819189Y466046D01*
X819665Y465093D01*
Y464141D01*
X819189Y463189D01*
X818713Y462713D01*
X817285Y462237D01*
X813000D01*
X816333D02*
X819665Y457000D01*
X821903Y465093D02*
X822855Y465570D01*
X824283Y466998D01*
Y457000D01*
X832091Y466998D02*
X830663Y466522D01*
X829711Y465093D01*
X829235Y462713D01*
Y461285D01*
X829711Y458904D01*
X830663Y457476D01*
X832091Y457000D01*
X833043D01*
X834472Y457476D01*
X835424Y458904D01*
X835900Y461285D01*
Y462713D01*
X835424Y465093D01*
X834472Y466522D01*
X833043Y466998D01*
X832091D01*
X812000Y444998D02*
Y435000D01*
Y444998D02*
X816285D01*
X817713Y444522D01*
X818189Y444046D01*
X818665Y443093D01*
Y442141D01*
X818189Y441189D01*
X817713Y440713D01*
X816285Y440237D01*
X812000D01*
X815333D02*
X818665Y435000D01*
X827092Y441665D02*
X826616Y440237D01*
X825664Y439285D01*
X824236Y438809D01*
X823759D01*
X822331Y439285D01*
X821379Y440237D01*
X820903Y441665D01*
Y442141D01*
X821379Y443570D01*
X822331Y444522D01*
X823759Y444998D01*
X824236D01*
X825664Y444522D01*
X826616Y443570D01*
X827092Y441665D01*
Y439285D01*
X826616Y436904D01*
X825664Y435476D01*
X824236Y435000D01*
X823283D01*
X821855Y435476D01*
X821379Y436428D01*
X103000Y297998D02*
Y288000D01*
X108713D01*
X109808Y296094D02*
X110760Y296570D01*
X112189Y297998D01*
Y288000D01*
X168000Y194998D02*
Y185000D01*
X173713D01*
X175284Y192617D02*
Y193093D01*
X175760Y194046D01*
X176236Y194522D01*
X177188Y194998D01*
X179093D01*
X180045Y194522D01*
X180521Y194046D01*
X180997Y193093D01*
Y192141D01*
X180521Y191189D01*
X179569Y189761D01*
X174808Y185000D01*
X181473D01*
X717000Y466998D02*
Y457000D01*
X723665Y466998D02*
Y457000D01*
X717000Y462237D02*
X723665D01*
X726426Y466998D02*
Y457000D01*
X732140D01*
X733711Y464617D02*
Y465093D01*
X734187Y466046D01*
X734663Y466522D01*
X735615Y466998D01*
X737519D01*
X738472Y466522D01*
X738948Y466046D01*
X739424Y465093D01*
Y464141D01*
X738948Y463189D01*
X737996Y461761D01*
X733235Y457000D01*
X739900D01*
X717000Y444998D02*
Y435000D01*
X723665Y444998D02*
Y435000D01*
X717000Y440237D02*
X723665D01*
X726426Y444998D02*
Y435000D01*
X732140D01*
X733235Y443093D02*
X734187Y443570D01*
X735615Y444998D01*
Y435000D01*
X758000Y315998D02*
Y306000D01*
Y315998D02*
X761333D01*
X762761Y315522D01*
X763713Y314570D01*
X764189Y313617D01*
X764665Y312189D01*
Y309809D01*
X764189Y308380D01*
X763713Y307428D01*
X762761Y306476D01*
X761333Y306000D01*
X758000D01*
X766903Y315998D02*
Y306000D01*
Y315998D02*
X770236D01*
X771664Y315522D01*
X772616Y314570D01*
X773092Y313617D01*
X773568Y312189D01*
Y309809D01*
X773092Y308380D01*
X772616Y307428D01*
X771664Y306476D01*
X770236Y306000D01*
X766903D01*
X776758Y315998D02*
X781995D01*
X779138Y312189D01*
X780567D01*
X781519Y311713D01*
X781995Y311237D01*
X782471Y309809D01*
Y308857D01*
X781995Y307428D01*
X781043Y306476D01*
X779614Y306000D01*
X778186D01*
X776758Y306476D01*
X776282Y306952D01*
X775806Y307904D01*
X704144Y416118D02*
X703668Y417071D01*
X702716Y418023D01*
X701764Y418499D01*
X699859D01*
X698907Y418023D01*
X697955Y417071D01*
X697479Y416118D01*
X697003Y414690D01*
Y412310D01*
X697479Y410881D01*
X697955Y409929D01*
X698907Y408977D01*
X699859Y408501D01*
X701764D01*
X702716Y408977D01*
X703668Y409929D01*
X704144Y410881D01*
X706953Y416594D02*
X707905Y417071D01*
X709334Y418499D01*
Y408501D01*
X716665Y418499D02*
X715237Y418023D01*
X714761Y417071D01*
Y416118D01*
X715237Y415166D01*
X716189Y414690D01*
X718094Y414214D01*
X719522Y413738D01*
X720474Y412786D01*
X720950Y411833D01*
Y410405D01*
X720474Y409453D01*
X719998Y408977D01*
X718570Y408501D01*
X716665D01*
X715237Y408977D01*
X714761Y409453D01*
X714285Y410405D01*
Y411833D01*
X714761Y412786D01*
X715713Y413738D01*
X717141Y414214D01*
X719046Y414690D01*
X719998Y415166D01*
X720474Y416118D01*
Y417071D01*
X719998Y418023D01*
X718570Y418499D01*
X716665D01*
X820383Y380141D02*
X819430Y379665D01*
X818478Y378713D01*
X818002Y377761D01*
Y375857D01*
X818478Y374904D01*
X819430Y373952D01*
X820383Y373476D01*
X821811Y373000D01*
X824191D01*
X825620Y373476D01*
X826572Y373952D01*
X827524Y374904D01*
X828000Y375857D01*
Y377761D01*
X827524Y378713D01*
X826572Y379665D01*
X825620Y380141D01*
X819906Y382950D02*
X819430Y383902D01*
X818002Y385331D01*
X828000D01*
X818002Y396947D02*
X828000Y392186D01*
X818002Y390282D02*
Y396947D01*
X250000Y417998D02*
Y408000D01*
X256665Y417998D02*
Y408000D01*
X250000Y413237D02*
X256665D01*
X266568Y415617D02*
X266092Y416570D01*
X265140Y417522D01*
X264188Y417998D01*
X262283D01*
X261331Y417522D01*
X260379Y416570D01*
X259903Y415617D01*
X259427Y414189D01*
Y411809D01*
X259903Y410380D01*
X260379Y409428D01*
X261331Y408476D01*
X262283Y408000D01*
X264188D01*
X265140Y408476D01*
X266092Y409428D01*
X266568Y410380D01*
Y411809D01*
X264188D02*
X266568D01*
X268853Y416093D02*
X269805Y416570D01*
X271234Y417998D01*
Y408000D01*
X411665Y111570D02*
X410713Y112522D01*
X409285Y112998D01*
X407380D01*
X405952Y112522D01*
X405000Y111570D01*
Y110617D01*
X405476Y109665D01*
X405952Y109189D01*
X406904Y108713D01*
X409761Y107761D01*
X410713Y107285D01*
X411189Y106809D01*
X411665Y105857D01*
Y104428D01*
X410713Y103476D01*
X409285Y103000D01*
X407380D01*
X405952Y103476D01*
X405000Y104428D01*
X413903Y112998D02*
Y103000D01*
Y112998D02*
X418188D01*
X419616Y112522D01*
X420092Y112046D01*
X420568Y111094D01*
Y110141D01*
X420092Y109189D01*
X419616Y108713D01*
X418188Y108237D01*
X413903D02*
X418188D01*
X419616Y107761D01*
X420092Y107285D01*
X420568Y106333D01*
Y104904D01*
X420092Y103952D01*
X419616Y103476D01*
X418188Y103000D01*
X413903D01*
X428519Y111570D02*
X428043Y112522D01*
X426614Y112998D01*
X425662D01*
X424234Y112522D01*
X423282Y111094D01*
X422806Y108713D01*
Y106333D01*
X423282Y104428D01*
X424234Y103476D01*
X425662Y103000D01*
X426138D01*
X427567Y103476D01*
X428519Y104428D01*
X428995Y105857D01*
Y106333D01*
X428519Y107761D01*
X427567Y108713D01*
X426138Y109189D01*
X425662D01*
X424234Y108713D01*
X423282Y107761D01*
X422806Y106333D01*
X414665Y226570D02*
X413713Y227522D01*
X412285Y227998D01*
X410380D01*
X408952Y227522D01*
X408000Y226570D01*
Y225617D01*
X408476Y224665D01*
X408952Y224189D01*
X409904Y223713D01*
X412761Y222761D01*
X413713Y222285D01*
X414189Y221809D01*
X414665Y220856D01*
Y219428D01*
X413713Y218476D01*
X412285Y218000D01*
X410380D01*
X408952Y218476D01*
X408000Y219428D01*
X416903Y227998D02*
Y218000D01*
Y227998D02*
X421188D01*
X422616Y227522D01*
X423092Y227046D01*
X423568Y226094D01*
Y225141D01*
X423092Y224189D01*
X422616Y223713D01*
X421188Y223237D01*
X416903D02*
X421188D01*
X422616Y222761D01*
X423092Y222285D01*
X423568Y221333D01*
Y219904D01*
X423092Y218952D01*
X422616Y218476D01*
X421188Y218000D01*
X416903D01*
X431519Y227998D02*
X426758D01*
X426282Y223713D01*
X426758Y224189D01*
X428186Y224665D01*
X429614D01*
X431043Y224189D01*
X431995Y223237D01*
X432471Y221809D01*
Y220856D01*
X431995Y219428D01*
X431043Y218476D01*
X429614Y218000D01*
X428186D01*
X426758Y218476D01*
X426282Y218952D01*
X425806Y219904D01*
X503665Y110570D02*
X502713Y111522D01*
X501285Y111998D01*
X499380D01*
X497952Y111522D01*
X497000Y110570D01*
Y109617D01*
X497476Y108665D01*
X497952Y108189D01*
X498904Y107713D01*
X501761Y106761D01*
X502713Y106285D01*
X503189Y105809D01*
X503665Y104857D01*
Y103428D01*
X502713Y102476D01*
X501285Y102000D01*
X499380D01*
X497952Y102476D01*
X497000Y103428D01*
X505903Y111998D02*
Y102000D01*
Y111998D02*
X510188D01*
X511616Y111522D01*
X512092Y111046D01*
X512568Y110093D01*
Y109141D01*
X512092Y108189D01*
X511616Y107713D01*
X510188Y107237D01*
X505903D02*
X510188D01*
X511616Y106761D01*
X512092Y106285D01*
X512568Y105333D01*
Y103904D01*
X512092Y102952D01*
X511616Y102476D01*
X510188Y102000D01*
X505903D01*
X519567Y111998D02*
X514806Y105333D01*
X521947D01*
X519567Y111998D02*
Y102000D01*
X504665Y226570D02*
X503713Y227522D01*
X502285Y227998D01*
X500380D01*
X498952Y227522D01*
X498000Y226570D01*
Y225617D01*
X498476Y224665D01*
X498952Y224189D01*
X499904Y223713D01*
X502761Y222761D01*
X503713Y222285D01*
X504189Y221809D01*
X504665Y220856D01*
Y219428D01*
X503713Y218476D01*
X502285Y218000D01*
X500380D01*
X498952Y218476D01*
X498000Y219428D01*
X506903Y227998D02*
Y218000D01*
Y227998D02*
X511188D01*
X512616Y227522D01*
X513092Y227046D01*
X513568Y226094D01*
Y225141D01*
X513092Y224189D01*
X512616Y223713D01*
X511188Y223237D01*
X506903D02*
X511188D01*
X512616Y222761D01*
X513092Y222285D01*
X513568Y221333D01*
Y219904D01*
X513092Y218952D01*
X512616Y218476D01*
X511188Y218000D01*
X506903D01*
X516758Y227998D02*
X521995D01*
X519138Y224189D01*
X520567D01*
X521519Y223713D01*
X521995Y223237D01*
X522471Y221809D01*
Y220856D01*
X521995Y219428D01*
X521043Y218476D01*
X519614Y218000D01*
X518186D01*
X516758Y218476D01*
X516282Y218952D01*
X515806Y219904D01*
X505436Y435337D02*
X505773Y436347D01*
Y437693D01*
X505436Y438703D01*
X504089Y440050D01*
X503079Y440386D01*
X501733Y440386D01*
X500723Y440050D01*
X499376Y439376D01*
X497693Y437693D01*
X497020Y436347D01*
X496683Y435337D01*
Y433990D01*
X497020Y432980D01*
X498367Y431633D01*
X499376Y431297D01*
X500723D01*
X501733Y431633D01*
X507759Y433687D02*
X508769Y433350D01*
X510789D01*
X503719Y426281D01*
X518330Y425810D02*
X514963Y429176D01*
X511597Y426483D01*
X512270D01*
X513616Y425810D01*
X514626Y424800D01*
X515300Y423453D01*
Y422107D01*
X514626Y420760D01*
X513953Y420087D01*
X512607Y419413D01*
X511260D01*
X509913Y420087D01*
X508904Y421096D01*
X508230Y422443D01*
Y423116D01*
X508567Y424126D01*
X545266Y472487D02*
X545603Y473497D01*
Y474844D01*
X545266Y475854D01*
X543920Y477201D01*
X542910Y477537D01*
X541563Y477537D01*
X540553Y477200D01*
X539207Y476527D01*
X537523Y474844D01*
X536850Y473497D01*
X536513Y472487D01*
Y471141D01*
X536850Y470131D01*
X538197Y468784D01*
X539207Y468448D01*
X540553D01*
X541563Y468784D01*
X547589Y470838D02*
X548599Y470501D01*
X550619D01*
X543549Y463432D01*
X557486Y463634D02*
X549407Y462287D01*
X554457Y457237D01*
X557486Y463634D02*
X550417Y456564D01*
X584141Y442617D02*
X583665Y443570D01*
X582713Y444522D01*
X581761Y444998D01*
X579856D01*
X578904Y444522D01*
X577952Y443570D01*
X577476Y442617D01*
X577000Y441189D01*
Y438809D01*
X577476Y437380D01*
X577952Y436428D01*
X578904Y435476D01*
X579856Y435000D01*
X581761D01*
X582713Y435476D01*
X583665Y436428D01*
X584141Y437380D01*
X586950Y443093D02*
X587902Y443570D01*
X589331Y444998D01*
Y435000D01*
X599995Y443570D02*
X599519Y444522D01*
X598091Y444998D01*
X597138D01*
X595710Y444522D01*
X594758Y443093D01*
X594282Y440713D01*
Y438333D01*
X594758Y436428D01*
X595710Y435476D01*
X597138Y435000D01*
X597615D01*
X599043Y435476D01*
X599995Y436428D01*
X600471Y437856D01*
Y438333D01*
X599995Y439761D01*
X599043Y440713D01*
X597615Y441189D01*
X597138D01*
X595710Y440713D01*
X594758Y439761D01*
X594282Y438333D01*
X620141Y306617D02*
X619665Y307570D01*
X618713Y308522D01*
X617761Y308998D01*
X615857D01*
X614904Y308522D01*
X613952Y307570D01*
X613476Y306617D01*
X613000Y305189D01*
Y302809D01*
X613476Y301380D01*
X613952Y300428D01*
X614904Y299476D01*
X615857Y299000D01*
X617761D01*
X618713Y299476D01*
X619665Y300428D01*
X620141Y301380D01*
X622950Y307094D02*
X623902Y307570D01*
X625331Y308998D01*
Y299000D01*
X631234Y308998D02*
X636471D01*
X633615Y305189D01*
X635043D01*
X635995Y304713D01*
X636471Y304237D01*
X636947Y302809D01*
Y301856D01*
X636471Y300428D01*
X635519Y299476D01*
X634091Y299000D01*
X632662D01*
X631234Y299476D01*
X630758Y299952D01*
X630282Y300904D01*
X614141Y442617D02*
X613665Y443570D01*
X612713Y444522D01*
X611761Y444998D01*
X609856D01*
X608904Y444522D01*
X607952Y443570D01*
X607476Y442617D01*
X607000Y441189D01*
Y438809D01*
X607476Y437380D01*
X607952Y436428D01*
X608904Y435476D01*
X609856Y435000D01*
X611761D01*
X612713Y435476D01*
X613665Y436428D01*
X614141Y437380D01*
X616950Y443093D02*
X617902Y443570D01*
X619331Y444998D01*
Y435000D01*
X624758Y442617D02*
Y443093D01*
X625234Y444046D01*
X625710Y444522D01*
X626662Y444998D01*
X628567D01*
X629519Y444522D01*
X629995Y444046D01*
X630471Y443093D01*
Y442141D01*
X629995Y441189D01*
X629043Y439761D01*
X624282Y435000D01*
X630947D01*
X157250Y324998D02*
X161059Y315000D01*
X164867Y324998D02*
X161059Y315000D01*
X166153Y324998D02*
Y315000D01*
Y324998D02*
X169485D01*
X170914Y324522D01*
X171866Y323570D01*
X172342Y322617D01*
X172818Y321189D01*
Y318809D01*
X172342Y317380D01*
X171866Y316428D01*
X170914Y315476D01*
X169485Y315000D01*
X166153D01*
X175532Y322617D02*
Y323093D01*
X176008Y324046D01*
X176484Y324522D01*
X177436Y324998D01*
X179340D01*
X180293Y324522D01*
X180769Y324046D01*
X181245Y323093D01*
Y322141D01*
X180769Y321189D01*
X179817Y319761D01*
X175056Y315000D01*
X181721D01*
X98000Y193998D02*
X101809Y184000D01*
X105617Y193998D02*
X101809Y184000D01*
X106903Y193998D02*
Y184000D01*
Y193998D02*
X110236D01*
X111664Y193522D01*
X112616Y192570D01*
X113092Y191617D01*
X113568Y190189D01*
Y187809D01*
X113092Y186380D01*
X112616Y185428D01*
X111664Y184476D01*
X110236Y184000D01*
X106903D01*
X115806Y192094D02*
X116758Y192570D01*
X118186Y193998D01*
Y184000D01*
X209070Y399070D02*
X202000Y392000D01*
X209070Y399070D02*
X212099Y396040D01*
X212773Y394693D01*
X212773Y394020D01*
X212436Y393010D01*
X211763Y392337D01*
X210753Y392000D01*
X210079D01*
X208733Y392673D01*
X205703Y395703D01*
X208060Y393347D02*
X206713Y387287D01*
X214018Y390754D02*
X214355Y391091D01*
X215365Y391428D01*
X216038D01*
X217048Y391091D01*
X218395Y389744D01*
X218731Y388735D01*
Y388061D01*
X218395Y387051D01*
X217721Y386378D01*
X216711Y386041D01*
X215028Y385705D01*
X208295D01*
X213008Y380992D01*
X199070Y389070D02*
X192000Y382000D01*
X199070Y389070D02*
X202099Y386040D01*
X202773Y384693D01*
X202773Y384020D01*
X202436Y383010D01*
X201763Y382337D01*
X200753Y382000D01*
X200079D01*
X198733Y382673D01*
X195703Y385703D01*
X198060Y383347D02*
X196713Y377287D01*
X204018Y381428D02*
X205028Y381091D01*
X207048D01*
X199979Y374021D01*
X189069Y380070D02*
X182000Y373000D01*
X189069Y380070D02*
X192099Y377040D01*
X192773Y375693D01*
X192773Y375020D01*
X192436Y374010D01*
X191763Y373337D01*
X190753Y373000D01*
X190079D01*
X188733Y373673D01*
X185703Y376703D01*
X188060Y374347D02*
X186713Y368287D01*
X196038Y373101D02*
X199741Y369398D01*
X195028Y368725D01*
X196038Y367715D01*
X196375Y366705D01*
X196375Y366031D01*
X195702Y364685D01*
X195028Y364012D01*
X193682Y363338D01*
X192335D01*
X190988Y364012D01*
X189979Y365022D01*
X189305Y366368D01*
Y367041D01*
X189642Y368051D01*
X331000Y321998D02*
Y312000D01*
Y321998D02*
X335285D01*
X336713Y321522D01*
X337189Y321046D01*
X337665Y320093D01*
Y319141D01*
X337189Y318189D01*
X336713Y317713D01*
X335285Y317237D01*
X331000D01*
X334333D02*
X337665Y312000D01*
X342283Y321998D02*
X340855Y321522D01*
X340379Y320570D01*
Y319617D01*
X340855Y318665D01*
X341807Y318189D01*
X343712Y317713D01*
X345140Y317237D01*
X346092Y316285D01*
X346568Y315333D01*
Y313904D01*
X346092Y312952D01*
X345616Y312476D01*
X344188Y312000D01*
X342283D01*
X340855Y312476D01*
X340379Y312952D01*
X339903Y313904D01*
Y315333D01*
X340379Y316285D01*
X341331Y317237D01*
X342759Y317713D01*
X344664Y318189D01*
X345616Y318665D01*
X346092Y319617D01*
Y320570D01*
X345616Y321522D01*
X344188Y321998D01*
X342283D01*
X332000Y293998D02*
Y284000D01*
Y293998D02*
X336285D01*
X337713Y293522D01*
X338189Y293046D01*
X338665Y292094D01*
Y291141D01*
X338189Y290189D01*
X337713Y289713D01*
X336285Y289237D01*
X332000D01*
X335333D02*
X338665Y284000D01*
X347568Y293998D02*
X342807Y284000D01*
X340903Y293998D02*
X347568D01*
X127141Y169617D02*
X126665Y170570D01*
X125713Y171522D01*
X124761Y171998D01*
X122857D01*
X121904Y171522D01*
X120952Y170570D01*
X120476Y169617D01*
X120000Y168189D01*
Y165809D01*
X120476Y164380D01*
X120952Y163428D01*
X121904Y162476D01*
X122857Y162000D01*
X124761D01*
X125713Y162476D01*
X126665Y163428D01*
X127141Y164380D01*
X130426Y169617D02*
Y170093D01*
X130902Y171046D01*
X131378Y171522D01*
X132331Y171998D01*
X134235D01*
X135187Y171522D01*
X135663Y171046D01*
X136139Y170093D01*
Y169141D01*
X135663Y168189D01*
X134711Y166761D01*
X129950Y162000D01*
X136615D01*
X114141Y331617D02*
X113665Y332570D01*
X112713Y333522D01*
X111761Y333998D01*
X109857D01*
X108904Y333522D01*
X107952Y332570D01*
X107476Y331617D01*
X107000Y330189D01*
Y327809D01*
X107476Y326380D01*
X107952Y325428D01*
X108904Y324476D01*
X109857Y324000D01*
X111761D01*
X112713Y324476D01*
X113665Y325428D01*
X114141Y326380D01*
X116950Y332094D02*
X117902Y332570D01*
X119331Y333998D01*
Y324000D01*
X311663Y400436D02*
X310653Y400773D01*
X309307D01*
X308297Y400436D01*
X306950Y399089D01*
X306614Y398079D01*
X306614Y396733D01*
X306950Y395723D01*
X307624Y394376D01*
X309307Y392693D01*
X310653Y392020D01*
X311663Y391683D01*
X313010D01*
X314020Y392020D01*
X315366Y393367D01*
X315703Y394376D01*
Y395723D01*
X315366Y396733D01*
X316679Y408819D02*
X320382Y398382D01*
X311966Y404105D02*
X316679Y408819D01*
X324663Y388436D02*
X323653Y388773D01*
X322307D01*
X321297Y388436D01*
X319950Y387089D01*
X319614Y386079D01*
X319614Y384733D01*
X319950Y383723D01*
X320624Y382376D01*
X322307Y380693D01*
X323653Y380020D01*
X324663Y379683D01*
X326010D01*
X327020Y380020D01*
X328367Y381367D01*
X328703Y382376D01*
Y383723D01*
X328367Y384733D01*
X326313Y390759D02*
X326650Y391769D01*
Y393789D01*
X333719Y386719D01*
X332171Y399310D02*
X331497Y397963D01*
X331834Y396280D01*
X333181Y394260D01*
X334190Y393250D01*
X336210Y391903D01*
X337893Y391567D01*
X339240Y392240D01*
X339913Y392913D01*
X340587Y394260D01*
X340250Y395943D01*
X338904Y397963D01*
X337893Y398973D01*
X335874Y400320D01*
X334190Y400656D01*
X332844Y399983D01*
X332171Y399310D01*
X282891Y344617D02*
X282415Y345570D01*
X281463Y346522D01*
X280511Y346998D01*
X278606D01*
X277654Y346522D01*
X276702Y345570D01*
X276226Y344617D01*
X275750Y343189D01*
Y340809D01*
X276226Y339380D01*
X276702Y338428D01*
X277654Y337476D01*
X278606Y337000D01*
X280511D01*
X281463Y337476D01*
X282415Y338428D01*
X282891Y339380D01*
X285700Y345093D02*
X286652Y345570D01*
X288081Y346998D01*
Y337000D01*
X293032Y345093D02*
X293984Y345570D01*
X295412Y346998D01*
Y337000D01*
X281141Y358617D02*
X280665Y359570D01*
X279713Y360522D01*
X278761Y360998D01*
X276856D01*
X275904Y360522D01*
X274952Y359570D01*
X274476Y358617D01*
X274000Y357189D01*
Y354809D01*
X274476Y353380D01*
X274952Y352428D01*
X275904Y351476D01*
X276856Y351000D01*
X278761D01*
X279713Y351476D01*
X280665Y352428D01*
X281141Y353380D01*
X286331Y360998D02*
X284902Y360522D01*
X284426Y359570D01*
Y358617D01*
X284902Y357665D01*
X285855Y357189D01*
X287759Y356713D01*
X289187Y356237D01*
X290139Y355285D01*
X290616Y354333D01*
Y352904D01*
X290139Y351952D01*
X289663Y351476D01*
X288235Y351000D01*
X286331D01*
X284902Y351476D01*
X284426Y351952D01*
X283950Y352904D01*
Y354333D01*
X284426Y355285D01*
X285378Y356237D01*
X286807Y356713D01*
X288711Y357189D01*
X289663Y357665D01*
X290139Y358617D01*
Y359570D01*
X289663Y360522D01*
X288235Y360998D01*
X286331D01*
X603665Y227570D02*
X602713Y228522D01*
X601285Y228998D01*
X599380D01*
X597952Y228522D01*
X597000Y227570D01*
Y226617D01*
X597476Y225665D01*
X597952Y225189D01*
X598904Y224713D01*
X601761Y223761D01*
X602713Y223285D01*
X603189Y222809D01*
X603665Y221856D01*
Y220428D01*
X602713Y219476D01*
X601285Y219000D01*
X599380D01*
X597952Y219476D01*
X597000Y220428D01*
X605903Y228998D02*
Y219000D01*
Y228998D02*
X610188D01*
X611616Y228522D01*
X612092Y228046D01*
X612568Y227094D01*
Y226141D01*
X612092Y225189D01*
X611616Y224713D01*
X610188Y224237D01*
X605903D02*
X610188D01*
X611616Y223761D01*
X612092Y223285D01*
X612568Y222333D01*
Y220904D01*
X612092Y219952D01*
X611616Y219476D01*
X610188Y219000D01*
X605903D01*
X614806Y227094D02*
X615758Y227570D01*
X617186Y228998D01*
Y219000D01*
X44000Y365998D02*
X50665Y356000D01*
Y365998D02*
X44000Y356000D01*
X52903Y365998D02*
X55283Y356000D01*
X57664Y365998D02*
X55283Y356000D01*
X57664Y365998D02*
X60044Y356000D01*
X62425Y365998D02*
X60044Y356000D01*
X64424Y364094D02*
X65376Y364570D01*
X66805Y365998D01*
Y356000D01*
X42000Y230998D02*
X48665Y221000D01*
Y230998D02*
X42000Y221000D01*
X50903Y230998D02*
X53283Y221000D01*
X55664Y230998D02*
X53283Y221000D01*
X55664Y230998D02*
X58044Y221000D01*
X60425Y230998D02*
X58044Y221000D01*
X62900Y228617D02*
Y229093D01*
X63376Y230046D01*
X63853Y230522D01*
X64805Y230998D01*
X66709D01*
X67661Y230522D01*
X68137Y230046D01*
X68613Y229093D01*
Y228141D01*
X68137Y227189D01*
X67185Y225761D01*
X62424Y221000D01*
X69089D01*
X14000Y513998D02*
X20665Y504000D01*
Y513998D02*
X14000Y504000D01*
X22903Y508761D02*
X27188D01*
X28616Y509237D01*
X29092Y509713D01*
X29568Y510665D01*
Y512094D01*
X29092Y513046D01*
X28616Y513522D01*
X27188Y513998D01*
X22903D01*
Y504000D01*
X31806Y512094D02*
X32758Y512570D01*
X34186Y513998D01*
Y504000D01*
X601665Y110570D02*
X600713Y111522D01*
X599285Y111998D01*
X597380D01*
X595952Y111522D01*
X595000Y110570D01*
Y109617D01*
X595476Y108665D01*
X595952Y108189D01*
X596904Y107713D01*
X599761Y106761D01*
X600713Y106285D01*
X601189Y105809D01*
X601665Y104857D01*
Y103428D01*
X600713Y102476D01*
X599285Y102000D01*
X597380D01*
X595952Y102476D01*
X595000Y103428D01*
X603903Y111998D02*
Y102000D01*
Y111998D02*
X608188D01*
X609616Y111522D01*
X610092Y111046D01*
X610568Y110093D01*
Y109141D01*
X610092Y108189D01*
X609616Y107713D01*
X608188Y107237D01*
X603903D02*
X608188D01*
X609616Y106761D01*
X610092Y106285D01*
X610568Y105333D01*
Y103904D01*
X610092Y102952D01*
X609616Y102476D01*
X608188Y102000D01*
X603903D01*
X613282Y109617D02*
Y110093D01*
X613758Y111046D01*
X614234Y111522D01*
X615186Y111998D01*
X617090D01*
X618043Y111522D01*
X618519Y111046D01*
X618995Y110093D01*
Y109141D01*
X618519Y108189D01*
X617567Y106761D01*
X612806Y102000D01*
X619471D01*
X221000Y261998D02*
Y252000D01*
Y261998D02*
X224333D01*
X225761Y261522D01*
X226713Y260570D01*
X227189Y259617D01*
X227665Y258189D01*
Y255809D01*
X227189Y254380D01*
X226713Y253428D01*
X225761Y252476D01*
X224333Y252000D01*
X221000D01*
X229903Y261998D02*
Y252000D01*
Y261998D02*
X233235D01*
X234664Y261522D01*
X235616Y260570D01*
X236092Y259617D01*
X236568Y258189D01*
Y255809D01*
X236092Y254380D01*
X235616Y253428D01*
X234664Y252476D01*
X233235Y252000D01*
X229903D01*
X238806Y260093D02*
X239758Y260570D01*
X241186Y261998D01*
Y252000D01*
X633000Y327998D02*
Y318000D01*
Y327998D02*
X636333D01*
X637761Y327522D01*
X638713Y326570D01*
X639189Y325617D01*
X639665Y324189D01*
Y321809D01*
X639189Y320380D01*
X638713Y319428D01*
X637761Y318476D01*
X636333Y318000D01*
X633000D01*
X641903Y327998D02*
Y318000D01*
Y327998D02*
X645236D01*
X646664Y327522D01*
X647616Y326570D01*
X648092Y325617D01*
X648568Y324189D01*
Y321809D01*
X648092Y320380D01*
X647616Y319428D01*
X646664Y318476D01*
X645236Y318000D01*
X641903D01*
X651282Y325617D02*
Y326093D01*
X651758Y327046D01*
X652234Y327522D01*
X653186Y327998D01*
X655090D01*
X656043Y327522D01*
X656519Y327046D01*
X656995Y326093D01*
Y325141D01*
X656519Y324189D01*
X655567Y322761D01*
X650806Y318000D01*
X657471D01*
D18*
X640125Y457125D02*
D03*
X762875Y440875D02*
D03*
X762875Y461875D02*
D03*
D19*
X643750Y457250D02*
D03*
X759250Y440750D02*
D03*
X759250Y461750D02*
D03*
M02*
