M48
;Layer_Color=9474304
;FILE_FORMAT=4:4
METRIC,LZ
;TYPE=PLATED
T1F00S00C0.6000
T2F00S00C0.7112
T5F00S00C0.9000
T6F00S00C1.0000
T8F00S00C1.3000
T9F00S00C1.5000
T11F00S00C3.1000
%
T01
X0015Y0005
X0025
X0095Y001
Y002
X008Y003
X007
X00691Y00385
X0067Y00375
X006585Y003845
X00652Y00361
X00614Y00368
Y0038975
X00592Y00388844
X00599Y00339
X00633Y00428
X0058775Y0045675
X00692562Y0045127
X00731Y00452
X0072Y00415
X00499
X00485Y00424
X00518Y00393
X0052675Y0036925
X00534Y00357
X00516999Y00345999
X00506999Y00335999
X0045Y003
X0035Y0035
X0031Y00324
Y00283
X00294Y00263
X0025Y0025
Y0015
X00159Y00213
X00151Y00266
X00185Y00294
X00219Y0037
X0024425Y0037025
X002Y005
X0035
X00472586Y00508198
X00505Y0047
X00121Y00266
Y00238
X002Y006
X0035
X0059673Y0055027
X0075Y0055
T02
X00569Y00308
X00645Y00296
X0076741Y00385631
X00769Y00666
T05
X0085Y00365
X0087
Y0039
X008494
X001426Y003876
Y00413
X001172
Y003876
X000918
X000664
X00041
Y00413
X000664
X000918
T06
X005622Y00259
X005876
X00613
X006384
X006638
X003508Y0067
X003254
X003
X002746
T08
X00753Y00038
X00803
X00853
X00828Y00213
X00778
T09
X00956Y00487
X00981
X000818Y00341
X00031
Y002902
X00056Y00315
X000818Y002902
Y002058
X00031
Y00155
X00056Y001798
X000818Y00155
X00906Y00537
X00956Y00587
X00981
T11
X0005Y0005
X0095
X004329Y004273
X001979
X0005Y0065
X001959Y006653
X004309
X0095Y0065
M30
