G04*
G04 #@! TF.GenerationSoftware,Altium Limited,Altium Designer,19.1.8 (144)*
G04*
G04 Layer_Physical_Order=1*
G04 Layer_Color=255*
%FSLAX44Y44*%
%MOMM*%
G71*
G01*
G75*
%ADD10C,0.2540*%
%ADD20R,0.6000X1.8000*%
%ADD21R,0.6000X1.4000*%
%ADD22R,0.9500X0.9000*%
%ADD23R,1.5000X1.8000*%
%ADD24R,0.9000X0.9500*%
%ADD25R,0.8500X1.3500*%
G04:AMPARAMS|DCode=26|XSize=1.4mm|YSize=0.9mm|CornerRadius=0mm|HoleSize=0mm|Usage=FLASHONLY|Rotation=225.000|XOffset=0mm|YOffset=0mm|HoleType=Round|Shape=Rectangle|*
%AMROTATEDRECTD26*
4,1,4,0.1768,0.8132,0.8132,0.1768,-0.1768,-0.8132,-0.8132,-0.1768,0.1768,0.8132,0.0*
%
%ADD26ROTATEDRECTD26*%

G04:AMPARAMS|DCode=27|XSize=0.6mm|YSize=1.3mm|CornerRadius=0mm|HoleSize=0mm|Usage=FLASHONLY|Rotation=225.000|XOffset=0mm|YOffset=0mm|HoleType=Round|Shape=Rectangle|*
%AMROTATEDRECTD27*
4,1,4,-0.2475,0.6718,0.6718,-0.2475,0.2475,-0.6718,-0.6718,0.2475,-0.2475,0.6718,0.0*
%
%ADD27ROTATEDRECTD27*%

G04:AMPARAMS|DCode=28|XSize=0.4mm|YSize=1.3mm|CornerRadius=0mm|HoleSize=0mm|Usage=FLASHONLY|Rotation=225.000|XOffset=0mm|YOffset=0mm|HoleType=Round|Shape=Rectangle|*
%AMROTATEDRECTD28*
4,1,4,-0.3182,0.6010,0.6010,-0.3182,0.3182,-0.6010,-0.6010,0.3182,-0.3182,0.6010,0.0*
%
%ADD28ROTATEDRECTD28*%

%ADD29R,1.8000X1.5000*%
%ADD30R,1.0000X0.9000*%
%ADD31R,0.6000X1.0000*%
G04:AMPARAMS|DCode=32|XSize=0.9mm|YSize=0.95mm|CornerRadius=0mm|HoleSize=0mm|Usage=FLASHONLY|Rotation=45.000|XOffset=0mm|YOffset=0mm|HoleType=Round|Shape=Rectangle|*
%AMROTATEDRECTD32*
4,1,4,0.0177,-0.6541,-0.6541,0.0177,-0.0177,0.6541,0.6541,-0.0177,0.0177,-0.6541,0.0*
%
%ADD32ROTATEDRECTD32*%

%ADD33O,1.5000X0.4500*%
G04:AMPARAMS|DCode=34|XSize=0.9mm|YSize=0.95mm|CornerRadius=0mm|HoleSize=0mm|Usage=FLASHONLY|Rotation=315.000|XOffset=0mm|YOffset=0mm|HoleType=Round|Shape=Rectangle|*
%AMROTATEDRECTD34*
4,1,4,-0.6541,-0.0177,0.0177,0.6541,0.6541,0.0177,-0.0177,-0.6541,-0.6541,-0.0177,0.0*
%
%ADD34ROTATEDRECTD34*%

%ADD35O,1.5000X0.3800*%
%ADD36O,1.4000X0.5000*%
%ADD37O,0.5000X1.4000*%
%ADD70C,0.4000*%
%ADD71C,1.5000*%
G04:AMPARAMS|DCode=72|XSize=6mm|YSize=3mm|CornerRadius=1.2mm|HoleSize=0mm|Usage=FLASHONLY|Rotation=180.000|XOffset=0mm|YOffset=0mm|HoleType=Round|Shape=RoundedRectangle|*
%AMROUNDEDRECTD72*
21,1,6.0000,0.6000,0,0,180.0*
21,1,3.6000,3.0000,0,0,180.0*
1,1,2.4000,-1.8000,0.3000*
1,1,2.4000,1.8000,0.3000*
1,1,2.4000,1.8000,-0.3000*
1,1,2.4000,-1.8000,-0.3000*
%
%ADD72ROUNDEDRECTD72*%
G04:AMPARAMS|DCode=73|XSize=6mm|YSize=3mm|CornerRadius=1.2mm|HoleSize=0mm|Usage=FLASHONLY|Rotation=270.000|XOffset=0mm|YOffset=0mm|HoleType=Round|Shape=RoundedRectangle|*
%AMROUNDEDRECTD73*
21,1,6.0000,0.6000,0,0,270.0*
21,1,3.6000,3.0000,0,0,270.0*
1,1,2.4000,-0.3000,-1.8000*
1,1,2.4000,-0.3000,1.8000*
1,1,2.4000,0.3000,1.8000*
1,1,2.4000,0.3000,-1.8000*
%
%ADD73ROUNDEDRECTD73*%
%ADD74O,2.0000X3.0000*%
%ADD75C,2.5000*%
G04:AMPARAMS|DCode=76|XSize=4mm|YSize=4.5mm|CornerRadius=1mm|HoleSize=0mm|Usage=FLASHONLY|Rotation=180.000|XOffset=0mm|YOffset=0mm|HoleType=Round|Shape=RoundedRectangle|*
%AMROUNDEDRECTD76*
21,1,4.0000,2.5000,0,0,180.0*
21,1,2.0000,4.5000,0,0,180.0*
1,1,2.0000,-1.0000,1.2500*
1,1,2.0000,1.0000,1.2500*
1,1,2.0000,1.0000,-1.2500*
1,1,2.0000,-1.0000,-1.2500*
%
%ADD76ROUNDEDRECTD76*%
%ADD77C,2.0000*%
%ADD78C,1.2000*%
%ADD79O,3.0000X1.5000*%
%ADD80O,1.5000X3.0000*%
G04:AMPARAMS|DCode=81|XSize=3mm|YSize=4.5mm|CornerRadius=1.2mm|HoleSize=0mm|Usage=FLASHONLY|Rotation=90.000|XOffset=0mm|YOffset=0mm|HoleType=Round|Shape=RoundedRectangle|*
%AMROUNDEDRECTD81*
21,1,3.0000,2.1000,0,0,90.0*
21,1,0.6000,4.5000,0,0,90.0*
1,1,2.4000,1.0500,0.3000*
1,1,2.4000,1.0500,-0.3000*
1,1,2.4000,-1.0500,-0.3000*
1,1,2.4000,-1.0500,0.3000*
%
%ADD81ROUNDEDRECTD81*%
%ADD82C,1.7000*%
G04:AMPARAMS|DCode=83|XSize=2.5mm|YSize=2.5mm|CornerRadius=0.625mm|HoleSize=0mm|Usage=FLASHONLY|Rotation=0.000|XOffset=0mm|YOffset=0mm|HoleType=Round|Shape=RoundedRectangle|*
%AMROUNDEDRECTD83*
21,1,2.5000,1.2500,0,0,0.0*
21,1,1.2500,2.5000,0,0,0.0*
1,1,1.2500,0.6250,-0.6250*
1,1,1.2500,-0.6250,-0.6250*
1,1,1.2500,-0.6250,0.6250*
1,1,1.2500,0.6250,0.6250*
%
%ADD83ROUNDEDRECTD83*%
%ADD84C,6.0000*%
%ADD85C,1.0000*%
%ADD86C,1.2700*%
G36*
X930967Y676690D02*
X931077Y675000D01*
X927799Y672201D01*
X924600Y668455D01*
X922025Y664254D01*
X920140Y659702D01*
X918990Y654911D01*
X918603Y650000D01*
X918990Y645088D01*
X920140Y640298D01*
X922025Y635746D01*
X924600Y631545D01*
X927799Y627799D01*
X931545Y624599D01*
X935746Y622025D01*
X940298Y620140D01*
X945088Y618990D01*
X950000Y618603D01*
X954911Y618990D01*
X959702Y620140D01*
X964254Y622025D01*
X968455Y624599D01*
X972201Y627799D01*
X975400Y631545D01*
X976491Y633326D01*
X981491Y631916D01*
Y596307D01*
X981000Y595876D01*
X978703Y595574D01*
X976562Y594687D01*
X974724Y593276D01*
X973313Y591438D01*
X972427Y589297D01*
X972124Y587000D01*
X972427Y584703D01*
X973313Y582562D01*
X974724Y580724D01*
X976562Y579313D01*
X978703Y578427D01*
X981000Y578124D01*
X981491Y577693D01*
Y496307D01*
X981000Y495876D01*
X978703Y495574D01*
X976562Y494687D01*
X974724Y493276D01*
X973313Y491438D01*
X972427Y489297D01*
X972124Y487000D01*
X972427Y484703D01*
X973313Y482562D01*
X974724Y480724D01*
X976562Y479313D01*
X978703Y478427D01*
X981000Y478124D01*
X981491Y477693D01*
Y68085D01*
X976491Y66674D01*
X975400Y68454D01*
X972201Y72201D01*
X968455Y75401D01*
X964254Y77975D01*
X959702Y79860D01*
X954912Y81010D01*
X950000Y81397D01*
X945089Y81010D01*
X940298Y79860D01*
X935746Y77975D01*
X931545Y75401D01*
X927799Y72201D01*
X924600Y68454D01*
X922025Y64254D01*
X920140Y59702D01*
X918990Y54911D01*
X918603Y50000D01*
X918990Y45089D01*
X920140Y40298D01*
X922025Y35746D01*
X924600Y31546D01*
X927799Y27799D01*
X931077Y25000D01*
X930967Y23310D01*
X929482Y20000D01*
X861836D01*
X860584Y25000D01*
X861396Y25434D01*
X863686Y27314D01*
X865566Y29604D01*
X866962Y32217D01*
X867822Y35052D01*
X867988Y36730D01*
X853000D01*
X838012D01*
X838178Y35052D01*
X839038Y32217D01*
X840434Y29604D01*
X842314Y27314D01*
X844604Y25434D01*
X845416Y25000D01*
X844164Y20000D01*
X808671D01*
X807676Y25000D01*
X809959Y25946D01*
X812842Y28158D01*
X815054Y31040D01*
X816445Y34397D01*
X816919Y38000D01*
X816445Y41603D01*
X815054Y44960D01*
X812842Y47842D01*
X809959Y50054D01*
X806602Y51445D01*
X805620Y51574D01*
Y238993D01*
X805421Y239996D01*
X804853Y240846D01*
X689620Y356078D01*
Y373753D01*
X690487Y376782D01*
X693458Y379066D01*
X693609Y379166D01*
X695542Y380458D01*
X696826Y382380D01*
X715000D01*
X716003Y382579D01*
X716853Y383147D01*
X719585Y385880D01*
X725699D01*
X726614Y385305D01*
X728453Y383295D01*
X729699Y378701D01*
X728718Y377232D01*
X728626Y376770D01*
X738500D01*
X748374D01*
X748282Y377232D01*
X747301Y378701D01*
X747114Y380751D01*
X747363Y382000D01*
X747363Y382000D01*
X747114Y383248D01*
X747114Y383249D01*
X746407Y384307D01*
X746407Y386193D01*
X747040Y387141D01*
X747114Y387251D01*
Y387252D01*
X747363Y388500D01*
X751358Y391596D01*
X751449Y391635D01*
X756341D01*
X758205Y389569D01*
X759826Y386635D01*
X759694Y385631D01*
X759957Y383634D01*
X760728Y381773D01*
X761954Y380175D01*
X763552Y378949D01*
X765413Y378178D01*
X766635Y378017D01*
Y371044D01*
X766635Y371044D01*
X766891Y369756D01*
X767621Y368665D01*
X776165Y360121D01*
X777256Y359392D01*
X778544Y359135D01*
X778544Y359135D01*
X789551D01*
X789641Y359096D01*
X792065Y357218D01*
X793699Y352701D01*
X792718Y351232D01*
X792626Y350770D01*
X802500D01*
Y348230D01*
X792626D01*
X792718Y347768D01*
X793699Y346299D01*
X793886Y344249D01*
X793637Y343000D01*
X793637Y343000D01*
X793886Y341752D01*
X793886Y341752D01*
X794593Y340693D01*
Y338807D01*
X793960Y337859D01*
X793886Y337749D01*
Y337748D01*
X793637Y336500D01*
X793886Y335252D01*
Y335252D01*
X794593Y334193D01*
Y332307D01*
X793886Y331249D01*
X793886Y331248D01*
X793637Y330000D01*
X793637Y330000D01*
X793886Y328751D01*
X793886Y328751D01*
X793886Y328751D01*
X794593Y327693D01*
X794593Y327693D01*
X795651Y326986D01*
X795651Y326986D01*
X796900Y326737D01*
X796900Y326737D01*
X797013Y326737D01*
X797013Y326737D01*
X798051Y326737D01*
X808100D01*
X809349Y326986D01*
X809938Y327380D01*
X835388D01*
X836391Y327579D01*
X837241Y328147D01*
X865394Y356300D01*
X867442Y355452D01*
X870000Y355116D01*
X872558Y355452D01*
X874942Y356440D01*
X876989Y358011D01*
X878560Y360058D01*
X879548Y362442D01*
X879884Y365000D01*
X879548Y367558D01*
X878560Y369942D01*
X876989Y371989D01*
X874942Y373560D01*
X873271Y374252D01*
X872727Y376997D01*
X872753Y377376D01*
X873336Y379432D01*
X875568Y380357D01*
X877874Y382126D01*
X879643Y384432D01*
X880756Y387118D01*
X880968Y388730D01*
X870000D01*
Y390000D01*
X868730D01*
Y400968D01*
X867118Y400756D01*
X864432Y399643D01*
X862126Y397874D01*
X862001Y397710D01*
X857125Y397084D01*
X856433Y397199D01*
X855742Y397486D01*
X854342Y398560D01*
X852765Y399214D01*
Y451600D01*
X852508Y452888D01*
X851779Y453979D01*
X851779Y453979D01*
X822095Y483664D01*
Y483770D01*
X822095Y483770D01*
X821839Y485058D01*
X821300Y485864D01*
Y498800D01*
X800700D01*
Y481200D01*
X815578D01*
X815621Y480982D01*
X816351Y479891D01*
X846035Y450206D01*
Y399214D01*
X844458Y398560D01*
X842411Y396989D01*
X840840Y394942D01*
X839852Y392558D01*
X839515Y390000D01*
X839852Y387442D01*
X840840Y385058D01*
X842411Y383011D01*
X844458Y381440D01*
X846842Y380452D01*
X849400Y380116D01*
X851958Y380452D01*
X854342Y381440D01*
X855742Y382514D01*
X856433Y382801D01*
X857125Y382916D01*
X862001Y382290D01*
X862126Y382126D01*
X864432Y380357D01*
X866663Y379432D01*
X867247Y377376D01*
X867273Y376997D01*
X866729Y374252D01*
X865058Y373560D01*
X863011Y371990D01*
X862556Y371780D01*
X857444D01*
X856989Y371990D01*
X854942Y373560D01*
X852558Y374548D01*
X850000Y374884D01*
X847442Y374548D01*
X845058Y373560D01*
X843011Y371989D01*
X841440Y369942D01*
X840452Y367558D01*
X840115Y365000D01*
X840452Y362442D01*
X841440Y360058D01*
X843011Y358011D01*
X844479Y356884D01*
X845127Y354406D01*
X845245Y350950D01*
X836129Y341835D01*
X829566Y341900D01*
X828800Y342700D01*
Y351474D01*
X830040Y355960D01*
X830040D01*
X830040Y355960D01*
Y361980D01*
X823000D01*
Y364520D01*
X830040D01*
Y370540D01*
X823317D01*
X821318Y375367D01*
X821408Y375702D01*
X831853Y386147D01*
X832421Y386997D01*
X832620Y388000D01*
Y441000D01*
X832421Y442003D01*
X831853Y442853D01*
X810853Y463853D01*
X810003Y464421D01*
X809000Y464620D01*
X808050D01*
Y467800D01*
X798550D01*
X794750Y467800D01*
X790950Y467800D01*
X781450D01*
Y467800D01*
X776550Y468041D01*
Y470050D01*
X765450D01*
Y454050D01*
X765450Y453950D01*
X765450Y449050D01*
X765450Y448950D01*
Y432950D01*
X776550D01*
Y434959D01*
X781450Y435200D01*
Y435200D01*
X790950D01*
X794750Y435200D01*
X798550Y435200D01*
X808050D01*
Y438380D01*
X818915D01*
X822380Y434915D01*
Y391085D01*
X818552Y387257D01*
X813277Y387563D01*
X811570Y392201D01*
X812282Y393268D01*
X812374Y393730D01*
X802500D01*
X792626D01*
X792718Y393268D01*
X793699Y391799D01*
X793886Y389749D01*
X793637Y388500D01*
X793637Y388500D01*
X793886Y387251D01*
X794593Y386193D01*
Y384307D01*
X793960Y383359D01*
X793886Y383249D01*
X793886Y383248D01*
X793637Y382000D01*
X793637Y382000D01*
X793886Y380751D01*
Y380751D01*
X794593Y379693D01*
Y377807D01*
X793886Y376749D01*
X793637Y375500D01*
X793886Y374252D01*
X793699Y372201D01*
X792718Y370732D01*
X792373Y369000D01*
X788099Y365865D01*
X779938D01*
X773365Y372438D01*
Y380825D01*
X774092Y381773D01*
X774863Y383634D01*
X775126Y385631D01*
X774863Y387628D01*
X774092Y389489D01*
X772866Y391087D01*
X771268Y392313D01*
X769407Y393084D01*
X768222Y393240D01*
X764083Y397379D01*
X762991Y398108D01*
X761704Y398365D01*
X761704Y398365D01*
X751449D01*
X751358Y398404D01*
X747363Y401500D01*
X747363Y401500D01*
X747114Y402748D01*
X747114Y402749D01*
X746407Y403807D01*
X746407Y405693D01*
X747040Y406641D01*
X747114Y406751D01*
Y406752D01*
X747363Y408000D01*
X747363Y408000D01*
X747114Y409249D01*
X747114Y409249D01*
X746407Y410307D01*
X746407Y412193D01*
X747114Y413251D01*
X747114Y413252D01*
X747363Y414500D01*
X747363Y414500D01*
X747114Y415748D01*
X747114Y415749D01*
X747114Y415749D01*
X746407Y416807D01*
X746407Y416807D01*
X745349Y417514D01*
X745349Y417514D01*
X744100Y417763D01*
X744100Y417763D01*
X743987Y417763D01*
X743987Y417763D01*
X742949Y417763D01*
X732900D01*
X731651Y417514D01*
X731423Y417361D01*
X725954D01*
X725935Y417458D01*
X724542Y419542D01*
X722458Y420934D01*
X720000Y421423D01*
X717542Y420934D01*
X717491Y420900D01*
X712491Y423416D01*
Y457732D01*
X741394Y486635D01*
X758700D01*
Y481200D01*
X779300D01*
Y498800D01*
X758700D01*
Y493365D01*
X740000D01*
X738712Y493108D01*
X737621Y492379D01*
X737621Y492379D01*
X706747Y461505D01*
X706017Y460414D01*
X705761Y459126D01*
X705761Y459126D01*
Y407040D01*
X701520D01*
Y400000D01*
X700250D01*
Y398730D01*
X692960D01*
Y396132D01*
X691316Y392182D01*
X688779Y390982D01*
X688542Y390934D01*
X686458Y389542D01*
X685614Y388279D01*
X681906Y387152D01*
X679867Y386954D01*
X661199Y405623D01*
X660349Y406191D01*
X659346Y406390D01*
X626875D01*
Y411500D01*
X626580Y412983D01*
X627123Y415417D01*
X633353Y421647D01*
X635458Y422066D01*
X637542Y423458D01*
X638935Y425542D01*
X639423Y428000D01*
X638935Y430458D01*
X637542Y432542D01*
X635458Y433935D01*
X633000Y434423D01*
X630542Y433935D01*
X628458Y432542D01*
X623540Y434040D01*
Y434040D01*
X617520D01*
Y427000D01*
X614980D01*
Y434040D01*
X608960D01*
Y434040D01*
X604370Y435031D01*
Y451200D01*
X609000Y451200D01*
X612800Y451200D01*
X622300D01*
X626450Y449148D01*
Y448950D01*
X637550D01*
Y465050D01*
X626450D01*
Y464852D01*
X622300Y462800D01*
X612800D01*
X609000Y462800D01*
X605200Y462800D01*
X595700D01*
X595700Y462800D01*
X590700Y462356D01*
X590208Y462684D01*
X587750Y463173D01*
X585292Y462684D01*
X583208Y461292D01*
X581815Y459208D01*
X581327Y456750D01*
X581815Y454292D01*
X583208Y452208D01*
X585292Y450816D01*
X587750Y450327D01*
X590208Y450816D01*
X590718Y451156D01*
X594130Y451186D01*
X599079Y447674D01*
X599130Y447621D01*
Y437967D01*
X596540Y434040D01*
X590520D01*
Y427000D01*
X587980D01*
Y434040D01*
X581960D01*
X581960Y434040D01*
Y434040D01*
X577474Y432800D01*
X568700D01*
Y428077D01*
X563700Y426006D01*
X560368Y429337D01*
X563274Y432243D01*
X552243Y443274D01*
X551055Y442086D01*
X546596Y446544D01*
X552395Y452343D01*
X544192Y460546D01*
X534039Y450392D01*
X528904Y451925D01*
X527625Y455518D01*
X531655Y459549D01*
X526677Y464527D01*
X527575Y465425D01*
X526677Y466323D01*
X533423Y473068D01*
X529343Y477148D01*
X523450Y471255D01*
X522853Y471853D01*
X522003Y472421D01*
X521000Y472620D01*
X512076D01*
X511586Y473802D01*
X510378Y475378D01*
X508802Y476586D01*
X506968Y477346D01*
X506270Y477438D01*
Y470000D01*
X505000D01*
Y468730D01*
X497562D01*
X497654Y468032D01*
X498414Y466198D01*
X499622Y464622D01*
X501198Y463414D01*
X502380Y462924D01*
Y457000D01*
X502579Y455997D01*
X503147Y455147D01*
X505244Y453050D01*
X498852Y446657D01*
X502932Y442577D01*
X509677Y449323D01*
X510575Y448425D01*
X511473Y449323D01*
X516451Y444345D01*
X519624Y447517D01*
X523220Y446644D01*
X525070Y441423D01*
X515454Y431808D01*
X523657Y423605D01*
X529455Y429404D01*
X533914Y424945D01*
X532727Y423757D01*
X543757Y412727D01*
X545508Y414478D01*
X546000Y414380D01*
X559232D01*
X563126Y411500D01*
Y402500D01*
X563420Y401017D01*
X564006Y400142D01*
X564260Y399760D01*
X564260D01*
X565517Y398920D01*
X565518D01*
X567000Y398625D01*
X568483Y398920D01*
X571000Y399031D01*
X573517Y398920D01*
X574049Y398815D01*
X575000Y398625D01*
X578816Y396029D01*
X579635Y395014D01*
Y380736D01*
X579002Y379788D01*
X578745Y378500D01*
Y341034D01*
X572621Y334909D01*
X571892Y333818D01*
X571610Y333649D01*
X565967Y336062D01*
X565911Y336161D01*
X565890Y336252D01*
Y342334D01*
X565691Y343337D01*
X565123Y344187D01*
X563093Y346217D01*
X561465Y348524D01*
X561105Y351317D01*
X561246Y352355D01*
X561375Y353000D01*
X561080Y354483D01*
X560978Y357000D01*
X561080Y359517D01*
X561375Y361000D01*
X561080Y362483D01*
X560978Y365000D01*
X561080Y367517D01*
X561375Y369000D01*
X561080Y370483D01*
X560969Y373000D01*
X561080Y375517D01*
X561185Y376049D01*
X561375Y377000D01*
X561080Y378483D01*
X560969Y381000D01*
X561079Y383517D01*
X561185Y384049D01*
X561374Y385000D01*
X561079Y386483D01*
X560978Y389000D01*
X561079Y391517D01*
X561374Y393000D01*
X561079Y394483D01*
X560240Y395740D01*
X558983Y396580D01*
X557500Y396874D01*
X548500D01*
X547017Y396580D01*
X545760Y395740D01*
X545681Y395620D01*
X523826D01*
X522542Y397542D01*
X520458Y398935D01*
X518000Y399423D01*
X515542Y398935D01*
X513458Y397542D01*
X512066Y395458D01*
X511577Y393000D01*
X512066Y390542D01*
X513458Y388458D01*
X514189Y387969D01*
X515369Y383358D01*
X515306Y382015D01*
X492416Y359125D01*
X491848Y358275D01*
X491649Y357272D01*
Y290689D01*
X491848Y289686D01*
X492416Y288836D01*
X549105Y232147D01*
X549955Y231579D01*
X550958Y231380D01*
X598915D01*
X627380Y202915D01*
Y154620D01*
X606398D01*
Y155000D01*
X606009Y157950D01*
X604870Y160699D01*
X603059Y163059D01*
X600699Y164870D01*
X597950Y166009D01*
X595000Y166397D01*
X592050Y166009D01*
X589301Y164870D01*
X586941Y163059D01*
X585130Y160699D01*
X583991Y157950D01*
X583602Y155000D01*
Y145000D01*
X583991Y142050D01*
X585130Y139301D01*
X586941Y136941D01*
X589301Y135129D01*
X592050Y133991D01*
X595000Y133603D01*
X597950Y133991D01*
X600699Y135129D01*
X603059Y136941D01*
X604870Y139301D01*
X606009Y142050D01*
X606398Y145000D01*
Y149380D01*
X648603D01*
Y145000D01*
X648991Y142050D01*
X650129Y139301D01*
X651941Y136941D01*
X654301Y135129D01*
X657050Y133991D01*
X660000Y133603D01*
X662950Y133991D01*
X665699Y135129D01*
X668059Y136941D01*
X669380Y138661D01*
X671687Y138486D01*
X674380Y137277D01*
Y95073D01*
X669380Y93375D01*
X668944Y93944D01*
X666324Y95954D01*
X663274Y97217D01*
X661270Y97481D01*
Y80000D01*
Y62519D01*
X663274Y62783D01*
X666324Y64046D01*
X668944Y66056D01*
X669380Y66625D01*
X674380Y64927D01*
Y58085D01*
X665963Y49668D01*
X665699Y49871D01*
X662950Y51009D01*
X660000Y51398D01*
X657050Y51009D01*
X654301Y49871D01*
X651941Y48059D01*
X650129Y45699D01*
X648991Y42950D01*
X648603Y40000D01*
Y37620D01*
X606398D01*
Y40000D01*
X606009Y42950D01*
X604870Y45699D01*
X603059Y48059D01*
X600699Y49871D01*
X597950Y51009D01*
X595000Y51398D01*
X592050Y51009D01*
X589301Y49871D01*
X586941Y48059D01*
X585130Y45699D01*
X583991Y42950D01*
X583602Y40000D01*
Y30000D01*
X583991Y27050D01*
X584840Y25000D01*
X583865Y22489D01*
X582489Y20517D01*
X577511D01*
X576135Y22489D01*
X575160Y25000D01*
X576009Y27050D01*
X576398Y30000D01*
Y40000D01*
X576009Y42950D01*
X574870Y45699D01*
X573059Y48059D01*
X570699Y49871D01*
X567950Y51009D01*
X565000Y51398D01*
X562050Y51009D01*
X559301Y49871D01*
X556941Y48059D01*
X555129Y45699D01*
X553991Y42950D01*
X553602Y40000D01*
Y37620D01*
X511398D01*
Y40000D01*
X511009Y42950D01*
X509870Y45699D01*
X508059Y48059D01*
X505699Y49871D01*
X502950Y51009D01*
X500000Y51398D01*
X497050Y51009D01*
X494301Y49871D01*
X491941Y48059D01*
X490129Y45699D01*
X488991Y42950D01*
X488602Y40000D01*
Y30000D01*
X488991Y27050D01*
X489840Y25000D01*
X488865Y22489D01*
X487489Y20517D01*
X482511D01*
X481135Y22489D01*
X480160Y25000D01*
X481009Y27050D01*
X481398Y30000D01*
Y40000D01*
X481009Y42950D01*
X479870Y45699D01*
X478059Y48059D01*
X475699Y49871D01*
X472950Y51009D01*
X470000Y51398D01*
X467050Y51009D01*
X464301Y49871D01*
X461941Y48059D01*
X460130Y45699D01*
X458991Y42950D01*
X458602Y40000D01*
Y37620D01*
X416398D01*
Y40000D01*
X416009Y42950D01*
X414870Y45699D01*
X413059Y48059D01*
X410699Y49871D01*
X407950Y51009D01*
X405000Y51398D01*
X402050Y51009D01*
X399301Y49871D01*
X396941Y48059D01*
X395130Y45699D01*
X393991Y42950D01*
X393602Y40000D01*
Y30000D01*
X393991Y27050D01*
X394840Y25000D01*
X393865Y22489D01*
X392489Y20517D01*
X387511Y20517D01*
X386135Y22489D01*
X385160Y25000D01*
X386009Y27050D01*
X386398Y30000D01*
Y40000D01*
X386009Y42950D01*
X384871Y45699D01*
X383059Y48059D01*
X380699Y49871D01*
X377950Y51009D01*
X375000Y51398D01*
X372050Y51009D01*
X369301Y49871D01*
X366941Y48059D01*
X365130Y45699D01*
X363991Y42950D01*
X363602Y40000D01*
Y37620D01*
X321398D01*
Y40000D01*
X321009Y42950D01*
X319871Y45699D01*
X318059Y48059D01*
X315699Y49871D01*
X312950Y51009D01*
X310000Y51398D01*
X307050Y51009D01*
X304301Y49871D01*
X301941Y48059D01*
X300130Y45699D01*
X298991Y42950D01*
X298603Y40000D01*
Y30000D01*
X298991Y27050D01*
X299840Y25000D01*
X298865Y22489D01*
X297128Y20000D01*
X70518D01*
X69033Y23310D01*
X68924Y25000D01*
X72201Y27799D01*
X75401Y31546D01*
X77975Y35746D01*
X79860Y40298D01*
X81010Y45089D01*
X81397Y50000D01*
X81010Y54911D01*
X79860Y59702D01*
X77975Y64254D01*
X75401Y68454D01*
X72201Y72201D01*
X68454Y75401D01*
X64254Y77975D01*
X59702Y79860D01*
X54911Y81010D01*
X50000Y81397D01*
X45089Y81010D01*
X40298Y79860D01*
X35746Y77975D01*
X31546Y75401D01*
X27799Y72201D01*
X26491Y70670D01*
X21491Y72514D01*
X21491Y135000D01*
X198991D01*
Y146960D01*
X199980D01*
Y154000D01*
Y161040D01*
X198991D01*
X198991Y270758D01*
X199750Y271381D01*
X210250D01*
X211635Y271656D01*
X212809Y272441D01*
X212810Y272441D01*
X213594Y273615D01*
X213869Y275000D01*
X213594Y276385D01*
X213594Y276385D01*
X212809Y277559D01*
Y278791D01*
X213594Y279965D01*
X213594Y279965D01*
X213869Y281350D01*
X213594Y282735D01*
X213010Y284525D01*
X213594Y286315D01*
X213869Y287700D01*
X213594Y289085D01*
X213594Y289085D01*
X212809Y290259D01*
Y291491D01*
X213594Y292665D01*
X213594Y292665D01*
X213869Y294050D01*
X213594Y295435D01*
X213010Y297225D01*
X213594Y299015D01*
X213594Y299015D01*
X213594Y299015D01*
X213869Y300400D01*
X213594Y301785D01*
X213594Y301785D01*
X213594Y301785D01*
X213010Y303575D01*
X213594Y305365D01*
X213869Y306750D01*
X213594Y308135D01*
X213594Y308135D01*
X212809Y309309D01*
Y310541D01*
X213594Y311715D01*
X213594Y311715D01*
X213869Y313100D01*
X213594Y314485D01*
X213010Y316275D01*
X213594Y318065D01*
X213594Y318065D01*
X213594Y318065D01*
X213869Y319450D01*
X213594Y320835D01*
X213594Y320835D01*
X213594Y320835D01*
X213010Y322625D01*
X213594Y324415D01*
X213594Y324415D01*
X213594Y324415D01*
X213869Y325800D01*
X213936Y327634D01*
X215853Y330147D01*
X220853Y335147D01*
X221421Y335997D01*
X226380Y335298D01*
Y302000D01*
X226579Y300997D01*
X227147Y300147D01*
X241447Y285847D01*
X242297Y285279D01*
X243300Y285080D01*
X244898D01*
X244948Y285058D01*
X248866Y281350D01*
X249238Y279481D01*
X250111Y278175D01*
X249238Y276869D01*
X249119Y276270D01*
X259000D01*
Y275000D01*
X260270D01*
Y270116D01*
X264250D01*
X265960Y270456D01*
X266134Y270480D01*
X270960Y268106D01*
Y263210D01*
X276730D01*
Y270500D01*
X279270D01*
Y263210D01*
X281556D01*
X285132Y263055D01*
X287414Y259197D01*
X288622Y257622D01*
X290198Y256414D01*
X292032Y255654D01*
X292730Y255562D01*
Y263000D01*
X294000D01*
Y264270D01*
X301438D01*
X301346Y264968D01*
X300832Y266210D01*
X301040Y271210D01*
X302290Y273790D01*
X306197Y276414D01*
X308032Y275654D01*
X308730Y275562D01*
Y283000D01*
X311270D01*
Y275518D01*
X315960Y275460D01*
Y275460D01*
X321730D01*
Y282750D01*
X323000D01*
Y284020D01*
X330040D01*
Y286714D01*
X330040Y290040D01*
X331634Y294380D01*
X333000D01*
X334003Y294579D01*
X334853Y295147D01*
X338085Y298380D01*
X348000D01*
X349003Y298579D01*
X349853Y299147D01*
X463085Y412380D01*
X493174D01*
X494458Y410458D01*
X496542Y409066D01*
X499000Y408577D01*
X501458Y409066D01*
X503542Y410458D01*
X504934Y412542D01*
X505423Y415000D01*
X504934Y417458D01*
X503542Y419542D01*
X501458Y420934D01*
X499000Y421423D01*
X496542Y420934D01*
X495715Y420382D01*
X491229Y423025D01*
X491423Y424000D01*
X490934Y426458D01*
X489542Y428542D01*
X487458Y429934D01*
X485000Y430423D01*
X482542Y429934D01*
X480458Y428542D01*
X479174Y426620D01*
X465000D01*
X463997Y426421D01*
X463147Y425853D01*
X344915Y307620D01*
X339085D01*
X334853Y311853D01*
X334003Y312421D01*
X333000Y312620D01*
X331634D01*
X330040Y316960D01*
X330040Y316960D01*
Y322980D01*
X323000D01*
Y324250D01*
X321730D01*
Y331540D01*
X315960D01*
X315960Y331540D01*
X311270Y331483D01*
Y324000D01*
X308730D01*
Y331438D01*
X308032Y331346D01*
X306197Y330586D01*
X304622Y329378D01*
X303414Y327803D01*
X303300Y327528D01*
X298300Y328522D01*
Y336800D01*
X286200D01*
Y336800D01*
X283800D01*
X282506Y341800D01*
X300448Y359743D01*
X303697Y356494D01*
X310414Y363212D01*
X312253Y365050D01*
X315788Y368586D01*
X322506Y375303D01*
X319257Y378552D01*
X537085Y596380D01*
X858915D01*
X876380Y578915D01*
Y504000D01*
X876579Y502997D01*
X877147Y502147D01*
X889947Y489347D01*
X889927Y489297D01*
X889624Y487000D01*
X889927Y484703D01*
X890813Y482562D01*
X892224Y480724D01*
X894062Y479313D01*
X896203Y478427D01*
X898500Y478124D01*
X913500D01*
X915797Y478427D01*
X917938Y479313D01*
X919776Y480724D01*
X921187Y482562D01*
X922074Y484703D01*
X922376Y487000D01*
X922074Y489297D01*
X921187Y491438D01*
X919776Y493276D01*
X917938Y494687D01*
X915797Y495574D01*
X913500Y495876D01*
X908620D01*
Y503124D01*
X913500D01*
X915797Y503427D01*
X917938Y504313D01*
X919776Y505724D01*
X921187Y507562D01*
X922074Y509703D01*
X922376Y512000D01*
X922074Y514297D01*
X921187Y516438D01*
X919776Y518276D01*
X917938Y519687D01*
X915797Y520574D01*
X913500Y520876D01*
X898500D01*
X896203Y520574D01*
X894062Y519687D01*
X892224Y518276D01*
X890813Y516438D01*
X889927Y514297D01*
X889624Y512000D01*
X889927Y509703D01*
X890813Y507562D01*
X892224Y505724D01*
X894062Y504313D01*
X896203Y503427D01*
X898500Y503124D01*
X903380D01*
Y495876D01*
X898500D01*
X896203Y495574D01*
X894062Y494687D01*
X892906Y493800D01*
X881620Y505085D01*
Y580000D01*
X881421Y581003D01*
X880853Y581853D01*
X883564Y585066D01*
X884248Y585529D01*
X885000Y585380D01*
X889837D01*
X889927Y584703D01*
X890813Y582562D01*
X892224Y580724D01*
X894062Y579313D01*
X896203Y578427D01*
X898500Y578124D01*
X903380D01*
Y570876D01*
X898500D01*
X896203Y570574D01*
X894062Y569687D01*
X892224Y568276D01*
X890813Y566438D01*
X889927Y564297D01*
X889624Y562000D01*
X889927Y559703D01*
X890813Y557562D01*
X892224Y555724D01*
X894062Y554313D01*
X896203Y553427D01*
X898500Y553124D01*
X913500D01*
X915797Y553427D01*
X917938Y554313D01*
X919776Y555724D01*
X921187Y557562D01*
X922074Y559703D01*
X922376Y562000D01*
X922074Y564297D01*
X921187Y566438D01*
X919776Y568276D01*
X917938Y569687D01*
X915797Y570574D01*
X913500Y570876D01*
X908620D01*
Y578124D01*
X913500D01*
X915797Y578427D01*
X917938Y579313D01*
X919776Y580724D01*
X921187Y582562D01*
X922074Y584703D01*
X922376Y587000D01*
X922074Y589297D01*
X921187Y591438D01*
X919776Y593276D01*
X917938Y594687D01*
X915797Y595574D01*
X913500Y595876D01*
X898500D01*
X896203Y595574D01*
X894062Y594687D01*
X892224Y593276D01*
X890813Y591438D01*
X890780Y591358D01*
X885855Y590851D01*
X866853Y609853D01*
X866003Y610421D01*
X865000Y610620D01*
X527000D01*
X525997Y610421D01*
X525147Y609853D01*
X306552Y391257D01*
X303303Y394506D01*
X296586Y387788D01*
X294747Y385950D01*
X291212Y382414D01*
X284494Y375697D01*
X287943Y372248D01*
X264164Y348470D01*
X255299D01*
X253190Y352471D01*
X253072Y353314D01*
X302379Y402621D01*
X303109Y403712D01*
X303365Y405000D01*
X303365Y405000D01*
Y452500D01*
X303365Y452500D01*
X303365Y452500D01*
Y644000D01*
X303365Y644000D01*
X303365Y644000D01*
Y659163D01*
X305699Y660129D01*
X308059Y661941D01*
X309870Y664301D01*
X309994Y664599D01*
X315406D01*
X315529Y664301D01*
X317341Y661941D01*
X319701Y660129D01*
X322450Y658991D01*
X325400Y658603D01*
X328350Y658991D01*
X331099Y660129D01*
X333459Y661941D01*
X335271Y664301D01*
X335394Y664599D01*
X340806D01*
X340929Y664301D01*
X342741Y661941D01*
X345101Y660129D01*
X347850Y658991D01*
X350800Y658603D01*
X353750Y658991D01*
X356499Y660129D01*
X358859Y661941D01*
X360671Y664301D01*
X361809Y667050D01*
X362197Y670000D01*
X361809Y672950D01*
X360960Y675000D01*
X361935Y677511D01*
X363672Y680000D01*
X414763D01*
X417127Y675000D01*
X416864Y674679D01*
X415304Y671760D01*
X414343Y668593D01*
X414019Y665300D01*
X414343Y662007D01*
X415304Y658840D01*
X416864Y655921D01*
X418963Y653363D01*
X421521Y651264D01*
X424440Y649704D01*
X427607Y648743D01*
X430900Y648419D01*
X434193Y648743D01*
X437360Y649704D01*
X440279Y651264D01*
X442837Y653363D01*
X444936Y655921D01*
X446496Y658840D01*
X447457Y662007D01*
X447781Y665300D01*
X447457Y668593D01*
X446496Y671760D01*
X444936Y674679D01*
X444673Y675000D01*
X447037Y680000D01*
X751242D01*
X762044Y669197D01*
X761547Y667997D01*
X761284Y666000D01*
X761547Y664003D01*
X762318Y662142D01*
X763544Y660544D01*
X765142Y659318D01*
X767003Y658547D01*
X769000Y658284D01*
X770997Y658547D01*
X772858Y659318D01*
X774456Y660544D01*
X775682Y662142D01*
X776453Y664003D01*
X776716Y666000D01*
X776453Y667997D01*
X775682Y669858D01*
X774456Y671456D01*
X772858Y672682D01*
X770997Y673453D01*
X770043Y673579D01*
X768808Y675000D01*
X769977Y678472D01*
X771462Y680000D01*
X929482D01*
X930967Y676690D01*
D02*
G37*
G36*
X259898Y670559D02*
X262054Y669224D01*
X262383Y666726D01*
X263646Y663676D01*
X265656Y661056D01*
X268276Y659046D01*
X271326Y657783D01*
X273330Y657519D01*
Y670000D01*
X275870D01*
Y657519D01*
X277874Y657783D01*
X280924Y659046D01*
X283544Y661056D01*
X285179Y663187D01*
X286987Y663594D01*
X290841Y663374D01*
X291941Y661941D01*
X294301Y660129D01*
X295462Y659649D01*
X296391Y654934D01*
X293410Y650800D01*
X285526D01*
X281040Y652040D01*
X277714Y652040D01*
X275020D01*
Y645000D01*
Y637960D01*
X277714D01*
X281040Y637960D01*
X285526Y639200D01*
X294300D01*
X296635Y635167D01*
Y454615D01*
X168508D01*
X166300Y458700D01*
Y474542D01*
X188035Y496276D01*
X190390Y496242D01*
X194114Y495285D01*
X194622Y494622D01*
X196197Y493414D01*
X198032Y492654D01*
X198730Y492562D01*
Y500000D01*
X200000D01*
Y501270D01*
X207438D01*
X207346Y501968D01*
X206586Y503802D01*
X205378Y505378D01*
X204715Y505886D01*
X203758Y509610D01*
X203724Y511965D01*
X216744Y524986D01*
X216744Y524986D01*
X217474Y526077D01*
X217730Y527365D01*
Y631971D01*
X257083Y671325D01*
X259898Y670559D01*
D02*
G37*
G36*
X251622Y675381D02*
X211986Y635744D01*
X211257Y634653D01*
X211000Y633365D01*
X211000Y633365D01*
Y605921D01*
X208919Y604922D01*
X206000Y604566D01*
X205378Y605378D01*
X203803Y606586D01*
X201968Y607346D01*
X201270Y607438D01*
Y600000D01*
Y592562D01*
X201968Y592654D01*
X203803Y593414D01*
X205378Y594622D01*
X206000Y595434D01*
X208919Y595078D01*
X211000Y594079D01*
Y528759D01*
X161542Y479300D01*
X148700D01*
Y472365D01*
X120000D01*
X120000Y472365D01*
X118712Y472108D01*
X117621Y471379D01*
X94606Y448365D01*
X89550D01*
Y450800D01*
X84365D01*
Y458700D01*
X85300D01*
Y475300D01*
X76700D01*
Y458700D01*
X76700D01*
X76734Y456856D01*
X72477Y452040D01*
X68620D01*
Y457460D01*
X71540D01*
Y467730D01*
X66000D01*
X60460D01*
Y457460D01*
X63380D01*
Y452040D01*
X58835D01*
X54998Y456997D01*
X55300Y458700D01*
X55300D01*
Y475300D01*
X46700D01*
Y460226D01*
X39371Y452897D01*
X38642Y451805D01*
X38442Y450800D01*
X35700D01*
Y439200D01*
X35700D01*
X38743Y435460D01*
X38891Y434712D01*
X39621Y433621D01*
X42621Y430621D01*
X42621Y430621D01*
X43712Y429892D01*
X45000Y429635D01*
X100500D01*
X100500Y429635D01*
X101788Y429892D01*
X102879Y430621D01*
X120144Y447885D01*
X190662D01*
X191440Y442896D01*
X188521Y441336D01*
X185963Y439237D01*
X183864Y436679D01*
X182304Y433760D01*
X181343Y430593D01*
X181019Y427300D01*
X181343Y424007D01*
X182304Y420840D01*
X183864Y417921D01*
X185963Y415363D01*
X188521Y413264D01*
X191440Y411704D01*
X194607Y410743D01*
X197900Y410419D01*
X201193Y410743D01*
X204360Y411704D01*
X207279Y413264D01*
X209837Y415363D01*
X211936Y417921D01*
X213496Y420840D01*
X214457Y424007D01*
X214781Y427300D01*
X214457Y430593D01*
X213496Y433760D01*
X211936Y436679D01*
X209837Y439237D01*
X207279Y441336D01*
X204360Y442896D01*
X205138Y447885D01*
X296635D01*
Y406394D01*
X255493Y365251D01*
X251254Y368083D01*
X251362Y368344D01*
X251613Y370250D01*
X251362Y372156D01*
X250627Y373932D01*
X249456Y375456D01*
X247931Y376627D01*
X246870Y377066D01*
Y378250D01*
X246671Y379253D01*
X246103Y380103D01*
X227353Y398853D01*
X226503Y399421D01*
X225500Y399620D01*
X159685D01*
X150421Y408885D01*
X151173Y410703D01*
X151476Y413000D01*
X151173Y415297D01*
X150287Y417438D01*
X148876Y419276D01*
X147038Y420687D01*
X144897Y421573D01*
X142600Y421876D01*
X140303Y421573D01*
X138162Y420687D01*
X136324Y419276D01*
X134913Y417438D01*
X134026Y415297D01*
X133724Y413000D01*
X134026Y410703D01*
X134913Y408562D01*
X136324Y406724D01*
X138162Y405313D01*
X140303Y404426D01*
X142600Y404124D01*
X144897Y404426D01*
X146715Y405179D01*
X151628Y400266D01*
X151662Y398339D01*
X150013Y394810D01*
X147893Y394631D01*
X147038Y395287D01*
X144897Y396174D01*
X142600Y396476D01*
X140303Y396174D01*
X138162Y395287D01*
X136324Y393876D01*
X134913Y392038D01*
X134026Y389897D01*
X133724Y387600D01*
X134026Y385303D01*
X134913Y383162D01*
X135237Y382740D01*
X133465Y378187D01*
X133219Y377916D01*
X128324Y378230D01*
X125970Y382537D01*
X126982Y384979D01*
X127159Y386330D01*
X117200D01*
X106239D01*
X102746Y383834D01*
X102328Y384092D01*
X100463Y385979D01*
X100676Y387600D01*
X100373Y389897D01*
X99487Y392038D01*
X98076Y393876D01*
X96238Y395287D01*
X94097Y396174D01*
X91800Y396476D01*
X89503Y396174D01*
X89264Y396074D01*
X84372Y397853D01*
X83497Y398605D01*
X83398Y398912D01*
X83650Y401144D01*
X87685Y405179D01*
X89503Y404426D01*
X91800Y404124D01*
X94097Y404426D01*
X96238Y405313D01*
X98076Y406724D01*
X99487Y408562D01*
X100373Y410703D01*
X100676Y413000D01*
X100373Y415297D01*
X99487Y417438D01*
X98076Y419276D01*
X96238Y420687D01*
X94097Y421573D01*
X91800Y421876D01*
X89503Y421573D01*
X87362Y420687D01*
X85524Y419276D01*
X84113Y417438D01*
X83226Y415297D01*
X82924Y413000D01*
X83226Y410703D01*
X83979Y408885D01*
X77087Y401993D01*
X76519Y401143D01*
X76320Y400140D01*
Y397107D01*
X75726Y396580D01*
X71320Y394917D01*
X70838Y395287D01*
X68697Y396174D01*
X66400Y396476D01*
X64103Y396174D01*
X63864Y396074D01*
X58972Y397853D01*
X58097Y398605D01*
X57998Y398912D01*
X58250Y401144D01*
X62285Y405179D01*
X64103Y404426D01*
X66400Y404124D01*
X68697Y404426D01*
X70838Y405313D01*
X72676Y406724D01*
X74087Y408562D01*
X74974Y410703D01*
X75276Y413000D01*
X74974Y415297D01*
X74087Y417438D01*
X72676Y419276D01*
X70838Y420687D01*
X68697Y421573D01*
X66400Y421876D01*
X64103Y421573D01*
X61962Y420687D01*
X60124Y419276D01*
X58713Y417438D01*
X57826Y415297D01*
X57524Y413000D01*
X57826Y410703D01*
X58579Y408885D01*
X51687Y401993D01*
X51119Y401143D01*
X50920Y400140D01*
Y397107D01*
X50326Y396580D01*
X45920Y394917D01*
X45438Y395287D01*
X43297Y396174D01*
X41000Y396476D01*
X38703Y396174D01*
X38252Y395987D01*
X33695Y397489D01*
X32580Y398534D01*
X32716Y401010D01*
X36885Y405179D01*
X38703Y404426D01*
X41000Y404124D01*
X43297Y404426D01*
X45438Y405313D01*
X47276Y406724D01*
X48687Y408562D01*
X49573Y410703D01*
X49876Y413000D01*
X49573Y415297D01*
X48687Y417438D01*
X47276Y419276D01*
X45438Y420687D01*
X43297Y421573D01*
X41000Y421876D01*
X38703Y421573D01*
X36562Y420687D01*
X34724Y419276D01*
X33313Y417438D01*
X32427Y415297D01*
X32124Y413000D01*
X32427Y410703D01*
X33179Y408885D01*
X26491Y402197D01*
X25033Y402339D01*
X21491Y403885D01*
Y627486D01*
X26491Y629330D01*
X27799Y627799D01*
X31546Y624599D01*
X35746Y622025D01*
X40298Y620140D01*
X45089Y618990D01*
X50000Y618603D01*
X54911Y618990D01*
X59702Y620140D01*
X64254Y622025D01*
X68454Y624599D01*
X72201Y627799D01*
X75401Y631545D01*
X77975Y635746D01*
X79860Y640298D01*
X81010Y645088D01*
X81397Y650000D01*
X81010Y654911D01*
X79860Y659702D01*
X77975Y664254D01*
X75401Y668455D01*
X72201Y672201D01*
X68924Y675000D01*
X69033Y676690D01*
X70518Y680000D01*
X179763D01*
X182127Y675000D01*
X181864Y674679D01*
X180304Y671760D01*
X179343Y668593D01*
X179019Y665300D01*
X179343Y662007D01*
X180304Y658840D01*
X181864Y655921D01*
X183963Y653363D01*
X186521Y651264D01*
X189440Y649704D01*
X192607Y648743D01*
X195900Y648419D01*
X199193Y648743D01*
X202360Y649704D01*
X205279Y651264D01*
X207837Y653363D01*
X209936Y655921D01*
X211496Y658840D01*
X212457Y662007D01*
X212781Y665300D01*
X212457Y668593D01*
X211496Y671760D01*
X209936Y674679D01*
X209673Y675000D01*
X212037Y680000D01*
X249709D01*
X251622Y675381D01*
D02*
G37*
G36*
X626413Y399059D02*
X628782Y394736D01*
X628891Y394335D01*
X628626Y393000D01*
X628921Y391517D01*
X629022Y389000D01*
X628921Y386483D01*
X628626Y385000D01*
X628921Y383517D01*
X629022Y381000D01*
X628921Y378483D01*
X628626Y377000D01*
X628921Y375517D01*
X629022Y373000D01*
X628921Y370483D01*
X628626Y369000D01*
X628921Y367517D01*
X629023Y365195D01*
X628181Y361760D01*
X625686Y360477D01*
X623743Y360131D01*
X619293Y364581D01*
X619934Y365542D01*
X620423Y368000D01*
X619934Y370458D01*
X618542Y372542D01*
X616458Y373935D01*
X614000Y374423D01*
X611542Y373935D01*
X609458Y372542D01*
X608065Y370458D01*
X607577Y368000D01*
X608065Y365542D01*
X609458Y363458D01*
X611542Y362066D01*
X614000Y361577D01*
X614739Y361724D01*
X625316Y351147D01*
X625930Y350736D01*
X626290Y350365D01*
X628161Y347142D01*
X628701Y345380D01*
X628626Y345000D01*
X628921Y343517D01*
X629022Y341000D01*
X628921Y338483D01*
X628626Y337000D01*
X628921Y335517D01*
X629760Y334260D01*
X631017Y333420D01*
X632500Y333125D01*
X641500D01*
X642983Y333420D01*
X644240Y334260D01*
X645079Y335517D01*
X645375Y337000D01*
X645080Y338483D01*
X644978Y341000D01*
X645080Y343517D01*
X645375Y345000D01*
X645080Y346483D01*
X644978Y349000D01*
X645080Y351517D01*
X645170Y351973D01*
X648401Y354258D01*
X650083Y354958D01*
X652000Y354577D01*
X656616Y351366D01*
X656920Y350845D01*
Y310625D01*
X648925Y302631D01*
X648858Y302682D01*
X646997Y303453D01*
X645000Y303716D01*
X643003Y303453D01*
X641142Y302682D01*
X639544Y301456D01*
X638318Y299858D01*
X637547Y297997D01*
X637284Y296000D01*
X637547Y294003D01*
X638318Y292142D01*
X639544Y290544D01*
X641142Y289318D01*
X643003Y288547D01*
X645000Y288284D01*
X646997Y288547D01*
X648858Y289318D01*
X650456Y290544D01*
X651682Y292142D01*
X652453Y294003D01*
X652716Y296000D01*
X652453Y297997D01*
X652233Y298528D01*
X661393Y307687D01*
X661961Y308537D01*
X662160Y309540D01*
Y355778D01*
X662691Y356572D01*
X662890Y357574D01*
Y364426D01*
X665213Y368059D01*
X666212Y369102D01*
X667221Y369280D01*
X667542Y369066D01*
X670000Y368577D01*
X672458Y369066D01*
X674542Y370458D01*
X674840Y370903D01*
X679840Y369387D01*
Y353112D01*
X680039Y352110D01*
X680607Y351259D01*
X747246Y284620D01*
X745175Y279620D01*
X582085D01*
X565796Y295910D01*
X568416Y300361D01*
X569000Y300284D01*
X570997Y300547D01*
X572858Y301318D01*
X574456Y302544D01*
X575682Y304142D01*
X576453Y306003D01*
X576716Y308000D01*
X576577Y309055D01*
X580192Y310241D01*
X581700Y309063D01*
Y298200D01*
X590474D01*
X594960Y296960D01*
Y296960D01*
X594960Y296960D01*
X600980D01*
Y304000D01*
X602250D01*
Y305270D01*
X609540D01*
Y310608D01*
X610700Y312584D01*
X614699Y314685D01*
X615000Y314625D01*
X616483Y314920D01*
X619000Y315022D01*
X621517Y314920D01*
X623000Y314625D01*
X624483Y314921D01*
X625740Y315760D01*
X626580Y317017D01*
X626875Y318500D01*
Y327500D01*
X626580Y328983D01*
X625740Y330240D01*
X624483Y331079D01*
X623000Y331374D01*
X621517Y331079D01*
X619000Y330978D01*
X616483Y331079D01*
X615000Y331374D01*
X613517Y331079D01*
X611000Y330978D01*
X608517Y331078D01*
X608437Y331145D01*
X607372Y332658D01*
X606299Y334927D01*
X606033Y336277D01*
X606346Y337032D01*
X606438Y337730D01*
X599000D01*
Y339000D01*
X597730D01*
Y346438D01*
X597032Y346346D01*
X595197Y345586D01*
X593622Y344378D01*
X592740Y343228D01*
X589614Y342868D01*
X587315Y342922D01*
X585475Y344868D01*
Y375885D01*
X596500D01*
X596500Y375885D01*
X597788Y376142D01*
X598879Y376871D01*
X603745Y381737D01*
X603746Y381737D01*
X604023Y382153D01*
X605530Y382880D01*
X607341Y383310D01*
X609487Y383671D01*
X609544Y383665D01*
X610197Y383164D01*
X612032Y382404D01*
X612730Y382312D01*
Y389750D01*
X614000D01*
Y391020D01*
X621438D01*
X621346Y391718D01*
X620586Y393553D01*
X619902Y394444D01*
X621716Y397675D01*
X622652Y398695D01*
X623000Y398625D01*
X623000Y398626D01*
X624483Y398921D01*
X624915Y399209D01*
X626413Y399059D01*
D02*
G37*
G36*
X155724Y322570D02*
X155198Y321300D01*
X147200D01*
Y317620D01*
X127300D01*
Y320800D01*
X115200D01*
Y309200D01*
X118630D01*
Y307800D01*
X114700D01*
Y296200D01*
X127300D01*
Y307800D01*
X123870D01*
Y309200D01*
X127300D01*
Y312380D01*
X147200D01*
Y308700D01*
X155800D01*
Y312380D01*
X179915D01*
X190000Y302294D01*
Y301103D01*
X188861Y300541D01*
X188803Y300586D01*
X186968Y301346D01*
X186270Y301438D01*
Y294000D01*
Y286562D01*
X186968Y286654D01*
X188803Y287414D01*
X188861Y287459D01*
X190000Y286897D01*
Y276206D01*
X183147Y269353D01*
X182579Y268503D01*
X182380Y267500D01*
Y190085D01*
X175165Y182870D01*
X165300D01*
Y185550D01*
X152700D01*
Y182620D01*
X145300D01*
Y185800D01*
X133200D01*
Y174200D01*
X145300D01*
Y177380D01*
X152700D01*
Y173950D01*
X165300D01*
Y177630D01*
X176250D01*
X177253Y177829D01*
X178103Y178397D01*
X186853Y187147D01*
X187421Y187997D01*
X187620Y189000D01*
Y266415D01*
X188827Y267621D01*
X190000Y267135D01*
Y161040D01*
X188020D01*
Y154000D01*
Y146960D01*
X190000D01*
Y142500D01*
X95770D01*
X95208Y143639D01*
X95728Y144317D01*
X96614Y146455D01*
X96916Y148750D01*
Y153730D01*
X66684D01*
Y148750D01*
X66986Y146455D01*
X67872Y144317D01*
X68392Y143639D01*
X67831Y142500D01*
X44970D01*
X44408Y143639D01*
X44928Y144317D01*
X45814Y146455D01*
X46116Y148750D01*
Y153730D01*
X31000D01*
Y155000D01*
X29730D01*
Y170116D01*
X24750D01*
X22455Y169814D01*
X21270Y169323D01*
X20000Y170171D01*
Y190629D01*
X21270Y191477D01*
X22455Y190986D01*
X24750Y190684D01*
X29730D01*
Y205800D01*
Y220916D01*
X24750D01*
X22455Y220614D01*
X21270Y220123D01*
X20000Y220971D01*
Y275029D01*
X21270Y275877D01*
X22455Y275386D01*
X24750Y275084D01*
X29730D01*
Y290200D01*
Y305316D01*
X24750D01*
X22455Y305014D01*
X21270Y304523D01*
X20000Y305371D01*
Y325829D01*
X21270Y326677D01*
X22455Y326186D01*
X24750Y325884D01*
X29730D01*
Y341000D01*
X31000D01*
Y342270D01*
X46116D01*
Y347250D01*
X45814Y349545D01*
X45116Y351230D01*
X45770Y352500D01*
X67030D01*
X67684Y351230D01*
X66986Y349545D01*
X66684Y347250D01*
Y342270D01*
X96916D01*
Y347250D01*
X96614Y349545D01*
X95916Y351230D01*
X96570Y352500D01*
X125794D01*
X155724Y322570D01*
D02*
G37*
G36*
X545760Y334260D02*
X547017Y333420D01*
X548500Y333125D01*
X550380D01*
Y269330D01*
X550579Y268328D01*
X551147Y267477D01*
X553022Y265602D01*
X552329Y264699D01*
X551191Y261950D01*
X550802Y259000D01*
X551191Y256050D01*
X552329Y253301D01*
X554141Y250941D01*
X556501Y249129D01*
X559250Y247991D01*
X562200Y247603D01*
X565150Y247991D01*
X567899Y249129D01*
X570259Y250941D01*
X572071Y253301D01*
X572194Y253599D01*
X577606D01*
X577729Y253301D01*
X579541Y250941D01*
X581901Y249129D01*
X584650Y247991D01*
X587600Y247603D01*
X590550Y247991D01*
X593299Y249129D01*
X595659Y250941D01*
X597471Y253301D01*
X597594Y253599D01*
X603006D01*
X603130Y253301D01*
X604941Y250941D01*
X607301Y249129D01*
X610050Y247991D01*
X613000Y247603D01*
X615950Y247991D01*
X618699Y249129D01*
X621059Y250941D01*
X622870Y253301D01*
X622994Y253599D01*
X628406D01*
X628530Y253301D01*
X630341Y250941D01*
X632701Y249129D01*
X635450Y247991D01*
X638400Y247603D01*
X641350Y247991D01*
X644099Y249129D01*
X646459Y250941D01*
X647559Y252374D01*
X651413Y252594D01*
X653221Y252187D01*
X654856Y250056D01*
X657476Y248046D01*
X660526Y246783D01*
X662530Y246519D01*
Y259000D01*
X663800D01*
Y260270D01*
X676281D01*
X676017Y262274D01*
X674754Y265324D01*
X672744Y267944D01*
X670872Y269380D01*
X671203Y272219D01*
X672231Y274380D01*
X751067D01*
X778380Y247066D01*
Y227252D01*
X778000Y226919D01*
X774398Y226445D01*
X771040Y225054D01*
X768158Y222842D01*
X765946Y219960D01*
X764555Y216602D01*
X764081Y213000D01*
X764555Y209398D01*
X765946Y206040D01*
X768158Y203158D01*
X771040Y200946D01*
X774398Y199555D01*
X778000Y199081D01*
X781602Y199555D01*
X784959Y200946D01*
X787842Y203158D01*
X790054Y206040D01*
X790840Y207937D01*
X795840Y206942D01*
Y84545D01*
X760745Y49451D01*
X759959Y50054D01*
X756602Y51445D01*
X753000Y51919D01*
X749398Y51445D01*
X746040Y50054D01*
X743158Y47842D01*
X740946Y44960D01*
X739555Y41603D01*
X739081Y38000D01*
X739555Y34397D01*
X740946Y31040D01*
X743158Y28158D01*
X746040Y25946D01*
X748324Y25000D01*
X747329Y20000D01*
X672872D01*
X671135Y22489D01*
X670160Y25000D01*
X671009Y27050D01*
X671397Y30000D01*
Y40000D01*
X671009Y42950D01*
X669871Y45699D01*
X669668Y45962D01*
X678853Y55147D01*
X679421Y55997D01*
X679620Y57000D01*
Y213000D01*
X679421Y214003D01*
X678853Y214853D01*
X653393Y240313D01*
X652543Y240881D01*
X651540Y241080D01*
X553013D01*
X500729Y293365D01*
Y326598D01*
X502019Y327771D01*
X505729Y329828D01*
X506999Y329576D01*
X509457Y330065D01*
X511541Y331457D01*
X512933Y333541D01*
X513100Y334380D01*
X545681D01*
X545760Y334260D01*
D02*
G37*
G36*
X671813Y214482D02*
X671528Y213263D01*
X666604Y211078D01*
X665897Y211131D01*
X663274Y212217D01*
X661270Y212481D01*
Y195000D01*
Y177519D01*
X663274Y177783D01*
X666324Y179046D01*
X668944Y181056D01*
X669380Y181625D01*
X674380Y179927D01*
Y162722D01*
X671687Y161514D01*
X669380Y161339D01*
X668059Y163059D01*
X665699Y164870D01*
X662950Y166009D01*
X660000Y166397D01*
X657050Y166009D01*
X654301Y164870D01*
X651941Y163059D01*
X650129Y160699D01*
X648991Y157950D01*
X648603Y155000D01*
Y154620D01*
X632620D01*
Y204000D01*
X632421Y205003D01*
X631853Y205853D01*
X606485Y231220D01*
X608399Y235840D01*
X650455D01*
X671813Y214482D01*
D02*
G37*
%LPC*%
G36*
X351270Y607438D02*
Y601270D01*
X357438D01*
X357346Y601968D01*
X356586Y603802D01*
X355378Y605378D01*
X353802Y606586D01*
X351968Y607346D01*
X351270Y607438D01*
D02*
G37*
G36*
X348730D02*
X348032Y607346D01*
X346198Y606586D01*
X344622Y605378D01*
X343414Y603802D01*
X342654Y601968D01*
X342562Y601270D01*
X348730D01*
Y607438D01*
D02*
G37*
G36*
X357438Y598730D02*
X351270D01*
Y592562D01*
X351968Y592654D01*
X353802Y593414D01*
X355378Y594622D01*
X356586Y596198D01*
X357346Y598032D01*
X357438Y598730D01*
D02*
G37*
G36*
X348730D02*
X342562D01*
X342654Y598032D01*
X343414Y596198D01*
X344622Y594622D01*
X346198Y593414D01*
X348032Y592654D01*
X348730Y592562D01*
Y598730D01*
D02*
G37*
G36*
X956000Y595876D02*
X953703Y595574D01*
X951562Y594687D01*
X949724Y593276D01*
X948313Y591438D01*
X947427Y589297D01*
X947124Y587000D01*
X947427Y584703D01*
X948313Y582562D01*
X949724Y580724D01*
X951562Y579313D01*
X953703Y578427D01*
X956000Y578124D01*
X958297Y578427D01*
X960438Y579313D01*
X962276Y580724D01*
X963687Y582562D01*
X964574Y584703D01*
X964876Y587000D01*
X964574Y589297D01*
X963687Y591438D01*
X962276Y593276D01*
X960438Y594687D01*
X958297Y595574D01*
X956000Y595876D01*
D02*
G37*
G36*
X598000Y557708D02*
Y551540D01*
X604168D01*
X604076Y552238D01*
X603316Y554072D01*
X602108Y555648D01*
X600532Y556856D01*
X598698Y557616D01*
X598000Y557708D01*
D02*
G37*
G36*
X595460D02*
X594762Y557616D01*
X592928Y556856D01*
X591352Y555648D01*
X590144Y554072D01*
X589384Y552238D01*
X589292Y551540D01*
X595460D01*
Y557708D01*
D02*
G37*
G36*
X751270Y557438D02*
Y551270D01*
X757438D01*
X757346Y551968D01*
X756586Y553802D01*
X755378Y555378D01*
X753802Y556586D01*
X751968Y557346D01*
X751270Y557438D01*
D02*
G37*
G36*
X748730D02*
X748032Y557346D01*
X746198Y556586D01*
X744622Y555378D01*
X743414Y553802D01*
X742654Y551968D01*
X742562Y551270D01*
X748730D01*
Y557438D01*
D02*
G37*
G36*
X604168Y549000D02*
X598000D01*
Y542832D01*
X598698Y542924D01*
X600532Y543684D01*
X602108Y544892D01*
X603316Y546468D01*
X604076Y548302D01*
X604168Y549000D01*
D02*
G37*
G36*
X595460D02*
X589292D01*
X589384Y548302D01*
X590144Y546468D01*
X591352Y544892D01*
X592928Y543684D01*
X594762Y542924D01*
X595460Y542832D01*
Y549000D01*
D02*
G37*
G36*
X757438Y548730D02*
X751270D01*
Y542562D01*
X751968Y542654D01*
X753802Y543414D01*
X755378Y544622D01*
X756586Y546198D01*
X757346Y548032D01*
X757438Y548730D01*
D02*
G37*
G36*
X748730D02*
X742562D01*
X742654Y548032D01*
X743414Y546198D01*
X744622Y544622D01*
X746198Y543414D01*
X748032Y542654D01*
X748730Y542562D01*
Y548730D01*
D02*
G37*
G36*
X957270Y554459D02*
Y538270D01*
X966127D01*
Y544500D01*
X965782Y547121D01*
X964770Y549563D01*
X963161Y551661D01*
X961063Y553270D01*
X958621Y554282D01*
X957270Y554459D01*
D02*
G37*
G36*
X954730D02*
X953379Y554282D01*
X950937Y553270D01*
X948839Y551661D01*
X947230Y549563D01*
X946218Y547121D01*
X945873Y544500D01*
Y538270D01*
X954730D01*
Y554459D01*
D02*
G37*
G36*
X906000Y545876D02*
X903703Y545574D01*
X901562Y544687D01*
X899724Y543276D01*
X898313Y541438D01*
X897427Y539297D01*
X897124Y537000D01*
X897427Y534703D01*
X898313Y532562D01*
X899724Y530724D01*
X901562Y529313D01*
X903703Y528427D01*
X906000Y528124D01*
X908297Y528427D01*
X910438Y529313D01*
X912276Y530724D01*
X913687Y532562D01*
X914574Y534703D01*
X914876Y537000D01*
X914574Y539297D01*
X913687Y541438D01*
X912276Y543276D01*
X910438Y544687D01*
X908297Y545574D01*
X906000Y545876D01*
D02*
G37*
G36*
X966127Y535730D02*
X957270D01*
Y519541D01*
X958621Y519718D01*
X961063Y520730D01*
X963161Y522339D01*
X964770Y524437D01*
X965782Y526879D01*
X966127Y529500D01*
Y535730D01*
D02*
G37*
G36*
X954730D02*
X945873D01*
Y529500D01*
X946218Y526879D01*
X947230Y524437D01*
X948839Y522339D01*
X950937Y520730D01*
X953379Y519718D01*
X954730Y519541D01*
Y535730D01*
D02*
G37*
G36*
X473856Y515635D02*
Y509468D01*
X480024D01*
X479932Y510166D01*
X479172Y512000D01*
X477964Y513575D01*
X476389Y514784D01*
X474554Y515543D01*
X473856Y515635D01*
D02*
G37*
G36*
X471316D02*
X470618Y515543D01*
X468784Y514784D01*
X467209Y513575D01*
X466000Y512000D01*
X465240Y510166D01*
X465148Y509468D01*
X471316D01*
Y515635D01*
D02*
G37*
G36*
X351270Y507438D02*
Y501270D01*
X357438D01*
X357346Y501968D01*
X356586Y503802D01*
X355378Y505378D01*
X353802Y506586D01*
X351968Y507346D01*
X351270Y507438D01*
D02*
G37*
G36*
X348730D02*
X348032Y507346D01*
X346198Y506586D01*
X344622Y505378D01*
X343414Y503802D01*
X342654Y501968D01*
X342562Y501270D01*
X348730D01*
Y507438D01*
D02*
G37*
G36*
X480024Y506927D02*
X473856D01*
Y500760D01*
X474554Y500852D01*
X476389Y501611D01*
X477964Y502820D01*
X479172Y504395D01*
X479932Y506229D01*
X480024Y506927D01*
D02*
G37*
G36*
X471316D02*
X465148D01*
X465240Y506229D01*
X466000Y504395D01*
X467209Y502820D01*
X468784Y501611D01*
X470618Y500852D01*
X471316Y500760D01*
Y506927D01*
D02*
G37*
G36*
X357438Y498730D02*
X351270D01*
Y492562D01*
X351968Y492654D01*
X353802Y493414D01*
X355378Y494622D01*
X356586Y496198D01*
X357346Y498032D01*
X357438Y498730D01*
D02*
G37*
G36*
X348730D02*
X342562D01*
X342654Y498032D01*
X343414Y496198D01*
X344622Y494622D01*
X346198Y493414D01*
X348032Y492654D01*
X348730Y492562D01*
Y498730D01*
D02*
G37*
G36*
X956000Y495876D02*
X953703Y495574D01*
X951562Y494687D01*
X949724Y493276D01*
X948313Y491438D01*
X947427Y489297D01*
X947124Y487000D01*
X947427Y484703D01*
X948313Y482562D01*
X949724Y480724D01*
X951562Y479313D01*
X953703Y478427D01*
X956000Y478124D01*
X958297Y478427D01*
X960438Y479313D01*
X962276Y480724D01*
X963687Y482562D01*
X964574Y484703D01*
X964876Y487000D01*
X964574Y489297D01*
X963687Y491438D01*
X962276Y493276D01*
X960438Y494687D01*
X958297Y495574D01*
X956000Y495876D01*
D02*
G37*
G36*
X503730Y477438D02*
X503032Y477346D01*
X501198Y476586D01*
X499622Y475378D01*
X498414Y473802D01*
X497654Y471968D01*
X497562Y471270D01*
X503730D01*
Y477438D01*
D02*
G37*
G36*
X755790Y471290D02*
X750270D01*
Y463270D01*
X755790D01*
Y471290D01*
D02*
G37*
G36*
X535219Y471272D02*
X529371Y465425D01*
X533451Y461345D01*
X539299Y467192D01*
X535219Y471272D01*
D02*
G37*
G36*
X747730Y471290D02*
X742210D01*
Y464620D01*
X741000D01*
X739997Y464421D01*
X739147Y463853D01*
X734151Y458856D01*
X732968Y459346D01*
X732270Y459438D01*
Y452000D01*
Y444024D01*
X740897Y435397D01*
X741747Y434829D01*
X742210Y434737D01*
Y431710D01*
X747730D01*
Y441000D01*
X749000D01*
Y442270D01*
X755790D01*
Y450290D01*
X755790D01*
X755790Y452710D01*
X755790D01*
Y460730D01*
X749000D01*
Y462000D01*
X747730D01*
Y471290D01*
D02*
G37*
G36*
X660790Y466290D02*
X655270D01*
Y458270D01*
X660790D01*
Y466290D01*
D02*
G37*
G36*
X652730D02*
X647210D01*
Y458270D01*
X652730D01*
Y466290D01*
D02*
G37*
G36*
X729730Y459438D02*
X729032Y459346D01*
X727197Y458586D01*
X725622Y457378D01*
X724414Y455802D01*
X723654Y453968D01*
X723562Y453270D01*
X729730D01*
Y459438D01*
D02*
G37*
G36*
X693832Y458708D02*
Y452540D01*
X700000D01*
X699908Y453238D01*
X699148Y455073D01*
X697940Y456648D01*
X696365Y457856D01*
X694530Y458616D01*
X693832Y458708D01*
D02*
G37*
G36*
X691292D02*
X690594Y458616D01*
X688760Y457856D01*
X687185Y456648D01*
X685976Y455073D01*
X685216Y453238D01*
X685124Y452540D01*
X691292D01*
Y458708D01*
D02*
G37*
G36*
X660790Y455730D02*
X655270D01*
Y447710D01*
X660790D01*
Y455730D01*
D02*
G37*
G36*
X652730D02*
X647210D01*
Y447710D01*
X652730D01*
Y455730D01*
D02*
G37*
G36*
X729730Y450730D02*
X723562D01*
X723654Y450032D01*
X724414Y448198D01*
X725622Y446622D01*
X727197Y445414D01*
X729032Y444654D01*
X729730Y444562D01*
Y450730D01*
D02*
G37*
G36*
X700000Y450000D02*
X693832D01*
Y443832D01*
X694530Y443924D01*
X696365Y444684D01*
X697940Y445892D01*
X699148Y447467D01*
X699908Y449302D01*
X700000Y450000D01*
D02*
G37*
G36*
X691292D02*
X685124D01*
X685216Y449302D01*
X685976Y447467D01*
X687185Y445892D01*
X688760Y444684D01*
X690594Y443924D01*
X691292Y443832D01*
Y450000D01*
D02*
G37*
G36*
X908600Y455965D02*
X899370D01*
Y439570D01*
X923266D01*
Y441300D01*
X922766Y445096D01*
X921301Y448633D01*
X918970Y451670D01*
X915933Y454001D01*
X912396Y455466D01*
X908600Y455965D01*
D02*
G37*
G36*
X896830D02*
X887600D01*
X883804Y455466D01*
X880267Y454001D01*
X877230Y451670D01*
X874899Y448633D01*
X873434Y445096D01*
X872934Y441300D01*
Y439570D01*
X896830D01*
Y455965D01*
D02*
G37*
G36*
X510575Y446628D02*
X504728Y440781D01*
X508808Y436701D01*
X514655Y442549D01*
X510575Y446628D01*
D02*
G37*
G36*
X755790Y439730D02*
X750270D01*
Y431710D01*
X755790D01*
Y439730D01*
D02*
G37*
G36*
X923266Y437030D02*
X899370D01*
Y420634D01*
X908600D01*
X912396Y421134D01*
X915933Y422599D01*
X918970Y424930D01*
X921301Y427967D01*
X922766Y431504D01*
X923266Y435300D01*
Y437030D01*
D02*
G37*
G36*
X896830D02*
X872934D01*
Y435300D01*
X873434Y431504D01*
X874899Y427967D01*
X877230Y424930D01*
X880267Y422599D01*
X883804Y421134D01*
X887600Y420634D01*
X896830D01*
Y437030D01*
D02*
G37*
G36*
X808100Y417763D02*
X807987Y417763D01*
X807987Y417763D01*
X806949Y417763D01*
X799197D01*
X797013Y417763D01*
X797013Y417763D01*
X796900Y417763D01*
X796900Y417763D01*
X795782Y417540D01*
X795651Y417514D01*
X795651Y417514D01*
X794703Y416881D01*
X794593Y416807D01*
X794593Y416807D01*
X793960Y415859D01*
X793886Y415749D01*
X793886Y415749D01*
X793886Y415748D01*
X793637Y414500D01*
X793637Y414500D01*
X793695Y414211D01*
X793886Y413252D01*
X793886Y413251D01*
X794593Y412193D01*
Y410307D01*
X793886Y409249D01*
X793637Y408000D01*
X793637Y408000D01*
X793886Y406751D01*
X793699Y404701D01*
X792718Y403232D01*
X792626Y402770D01*
X802500D01*
X812374D01*
X812282Y403232D01*
X811301Y404701D01*
X811114Y406751D01*
X811363Y408000D01*
X811363Y408000D01*
X811114Y409249D01*
X810407Y410307D01*
Y412193D01*
X811114Y413251D01*
X811114Y413252D01*
X811363Y414500D01*
X811363Y414500D01*
X811114Y415748D01*
X811114Y415749D01*
X811114Y415749D01*
X810407Y416807D01*
X810407Y416807D01*
X809349Y417514D01*
X809349Y417514D01*
X808100Y417763D01*
X808100Y417763D01*
D02*
G37*
G36*
X432900Y444181D02*
X429607Y443857D01*
X426440Y442896D01*
X423521Y441336D01*
X420963Y439237D01*
X418864Y436679D01*
X417304Y433760D01*
X416343Y430593D01*
X416019Y427300D01*
X416343Y424007D01*
X417304Y420840D01*
X418864Y417921D01*
X420963Y415363D01*
X423521Y413264D01*
X426440Y411704D01*
X429607Y410743D01*
X432900Y410419D01*
X436193Y410743D01*
X439360Y411704D01*
X442279Y413264D01*
X444837Y415363D01*
X446936Y417921D01*
X448496Y420840D01*
X449457Y424007D01*
X449781Y427300D01*
X449457Y430593D01*
X448496Y433760D01*
X446936Y436679D01*
X444837Y439237D01*
X442279Y441336D01*
X439360Y442896D01*
X436193Y443857D01*
X432900Y444181D01*
D02*
G37*
G36*
X698980Y407040D02*
X692960D01*
Y401270D01*
X698980D01*
Y407040D01*
D02*
G37*
G36*
X812374Y400230D02*
X802500D01*
X792626D01*
X792718Y399768D01*
X793668Y398250D01*
X792718Y396732D01*
X792626Y396270D01*
X802500D01*
X812374D01*
X812282Y396732D01*
X811332Y398250D01*
X812282Y399768D01*
X812374Y400230D01*
D02*
G37*
G36*
X871270Y400968D02*
Y391270D01*
X880968D01*
X880756Y392882D01*
X879643Y395568D01*
X877874Y397874D01*
X875568Y399643D01*
X872882Y400756D01*
X871270Y400968D01*
D02*
G37*
G36*
X351270Y357438D02*
Y351270D01*
X357438D01*
X357346Y351968D01*
X356586Y353802D01*
X355378Y355378D01*
X353802Y356586D01*
X351968Y357346D01*
X351270Y357438D01*
D02*
G37*
G36*
X348730D02*
X348032Y357346D01*
X346198Y356586D01*
X344622Y355378D01*
X343414Y353802D01*
X342654Y351968D01*
X342562Y351270D01*
X348730D01*
Y357438D01*
D02*
G37*
G36*
X357438Y348730D02*
X351270D01*
Y342562D01*
X351968Y342654D01*
X353802Y343414D01*
X355378Y344622D01*
X356586Y346198D01*
X357346Y348032D01*
X357438Y348730D01*
D02*
G37*
G36*
X348730D02*
X342562D01*
X342654Y348032D01*
X343414Y346198D01*
X344622Y344622D01*
X346198Y343414D01*
X348032Y342654D01*
X348730Y342562D01*
Y348730D01*
D02*
G37*
G36*
X748374Y374230D02*
X738500D01*
X728626D01*
X728718Y373768D01*
X729699Y372299D01*
X729886Y370248D01*
X729637Y369000D01*
X729886Y367752D01*
X729886Y367751D01*
X730593Y366693D01*
Y364807D01*
X729959Y363859D01*
X729886Y363749D01*
Y363749D01*
X729637Y362500D01*
X729637Y362500D01*
X729886Y361251D01*
X729886Y361251D01*
X730593Y360193D01*
Y358307D01*
X729959Y357359D01*
X729886Y357249D01*
X729886Y357248D01*
X729637Y356000D01*
X729637Y356000D01*
X729886Y354752D01*
Y354751D01*
X730593Y353693D01*
Y351807D01*
X729959Y350859D01*
X729886Y350749D01*
X729886Y350748D01*
X729637Y349500D01*
X729886Y348251D01*
X729886Y348251D01*
X730593Y347193D01*
X730593Y345307D01*
X729959Y344359D01*
X729886Y344249D01*
Y344249D01*
X729637Y343000D01*
X729886Y341752D01*
Y341752D01*
X730593Y340693D01*
X730593Y338807D01*
X729959Y337859D01*
X729886Y337749D01*
Y337748D01*
X729637Y336500D01*
X729886Y335252D01*
Y335252D01*
X730593Y334193D01*
Y332307D01*
X729886Y331249D01*
X729886Y331248D01*
X729637Y330000D01*
X729637Y330000D01*
X729886Y328751D01*
X729886Y328751D01*
X729886Y328751D01*
X730593Y327693D01*
X730593Y327693D01*
X731651Y326986D01*
X731651Y326986D01*
X732900Y326737D01*
X732900Y326737D01*
X733013Y326737D01*
X733013Y326737D01*
X734051Y326737D01*
X741803D01*
X743987Y326737D01*
X743987Y326737D01*
X744100Y326737D01*
X744100Y326737D01*
X745218Y326960D01*
X745349Y326986D01*
X745349Y326986D01*
X746297Y327619D01*
X746407Y327693D01*
X746407Y327693D01*
X747040Y328641D01*
X747114Y328751D01*
X747114Y328751D01*
X747114Y328751D01*
X747363Y330000D01*
X747363Y330000D01*
X747305Y330289D01*
X747114Y331248D01*
X747114Y331249D01*
X746407Y332307D01*
Y334193D01*
X747040Y335141D01*
X747114Y335252D01*
Y335252D01*
X747363Y336500D01*
X747114Y337748D01*
Y337749D01*
X746407Y338807D01*
X746407Y340693D01*
X747040Y341641D01*
X747114Y341752D01*
X747114Y341752D01*
X747363Y343000D01*
X747363Y343000D01*
X747114Y344249D01*
Y344249D01*
X746407Y345307D01*
X746407Y347193D01*
X747040Y348141D01*
X747114Y348251D01*
X747114Y348251D01*
X747363Y349500D01*
X747363Y349500D01*
X747114Y350748D01*
Y350749D01*
X746407Y351807D01*
Y353693D01*
X747040Y354641D01*
X747114Y354751D01*
Y354752D01*
X747363Y356000D01*
X747363Y356000D01*
X747114Y357248D01*
X747114Y357249D01*
X746407Y358307D01*
Y360193D01*
X747040Y361141D01*
X747114Y361251D01*
X747114Y361251D01*
X747363Y362500D01*
X747363Y362500D01*
X747114Y363749D01*
Y363749D01*
X746407Y364807D01*
Y366693D01*
X747114Y367751D01*
X747114Y367752D01*
X747363Y369000D01*
X747114Y370248D01*
X747301Y372299D01*
X748282Y373768D01*
X748374Y374230D01*
D02*
G37*
G36*
X330040Y331540D02*
X324270D01*
Y325520D01*
X330040D01*
Y331540D01*
D02*
G37*
G36*
X907600Y334966D02*
X898370D01*
Y318570D01*
X922265D01*
Y320300D01*
X921766Y324096D01*
X920301Y327633D01*
X917970Y330670D01*
X914933Y333001D01*
X911396Y334466D01*
X907600Y334966D01*
D02*
G37*
G36*
X895830D02*
X886600D01*
X882804Y334466D01*
X879267Y333001D01*
X876230Y330670D01*
X873899Y327633D01*
X872434Y324096D01*
X871935Y320300D01*
Y318570D01*
X895830D01*
Y334966D01*
D02*
G37*
G36*
X801270Y307438D02*
Y301270D01*
X807438D01*
X807346Y301968D01*
X806586Y303803D01*
X805378Y305378D01*
X803802Y306586D01*
X801968Y307346D01*
X801270Y307438D01*
D02*
G37*
G36*
X798730D02*
X798032Y307346D01*
X796198Y306586D01*
X794622Y305378D01*
X793414Y303803D01*
X792654Y301968D01*
X792562Y301270D01*
X798730D01*
Y307438D01*
D02*
G37*
G36*
X451270D02*
Y301270D01*
X457438D01*
X457346Y301968D01*
X456586Y303803D01*
X455378Y305378D01*
X453802Y306586D01*
X451968Y307346D01*
X451270Y307438D01*
D02*
G37*
G36*
X448730D02*
X448032Y307346D01*
X446198Y306586D01*
X444622Y305378D01*
X443414Y303803D01*
X442654Y301968D01*
X442562Y301270D01*
X448730D01*
Y307438D01*
D02*
G37*
G36*
X922265Y316030D02*
X898370D01*
Y299634D01*
X907600D01*
X911396Y300134D01*
X914933Y301599D01*
X917970Y303930D01*
X920301Y306967D01*
X921766Y310504D01*
X922265Y314300D01*
Y316030D01*
D02*
G37*
G36*
X895830D02*
X871935D01*
Y314300D01*
X872434Y310504D01*
X873899Y306967D01*
X876230Y303930D01*
X879267Y301599D01*
X882804Y300134D01*
X886600Y299634D01*
X895830D01*
Y316030D01*
D02*
G37*
G36*
X807438Y298730D02*
X801270D01*
Y292562D01*
X801968Y292654D01*
X803802Y293414D01*
X805378Y294622D01*
X806586Y296197D01*
X807346Y298032D01*
X807438Y298730D01*
D02*
G37*
G36*
X798730D02*
X792562D01*
X792654Y298032D01*
X793414Y296197D01*
X794622Y294622D01*
X796198Y293414D01*
X798032Y292654D01*
X798730Y292562D01*
Y298730D01*
D02*
G37*
G36*
X457438D02*
X451270D01*
Y292562D01*
X451968Y292654D01*
X453802Y293414D01*
X455378Y294622D01*
X456586Y296197D01*
X457346Y298032D01*
X457438Y298730D01*
D02*
G37*
G36*
X448730D02*
X442562D01*
X442654Y298032D01*
X443414Y296197D01*
X444622Y294622D01*
X446198Y293414D01*
X448032Y292654D01*
X448730Y292562D01*
Y298730D01*
D02*
G37*
G36*
X330040Y281480D02*
X324270D01*
Y275460D01*
X330040D01*
Y281480D01*
D02*
G37*
G36*
X257730Y273730D02*
X249119D01*
X249238Y273131D01*
X250297Y271547D01*
X251881Y270488D01*
X253750Y270116D01*
X257730D01*
Y273730D01*
D02*
G37*
G36*
X301438Y261730D02*
X295270D01*
Y255562D01*
X295968Y255654D01*
X297803Y256414D01*
X299378Y257622D01*
X300586Y259198D01*
X301346Y261032D01*
X301438Y261730D01*
D02*
G37*
G36*
X251270Y257438D02*
Y251270D01*
X257438D01*
X257346Y251968D01*
X256586Y253803D01*
X255378Y255378D01*
X253803Y256586D01*
X251968Y257346D01*
X251270Y257438D01*
D02*
G37*
G36*
X248730D02*
X248032Y257346D01*
X246197Y256586D01*
X244622Y255378D01*
X243414Y253803D01*
X242654Y251968D01*
X242562Y251270D01*
X248730D01*
Y257438D01*
D02*
G37*
G36*
X257438Y248730D02*
X251270D01*
Y242562D01*
X251968Y242654D01*
X253803Y243414D01*
X255378Y244622D01*
X256586Y246197D01*
X257346Y248032D01*
X257438Y248730D01*
D02*
G37*
G36*
X248730D02*
X242562D01*
X242654Y248032D01*
X243414Y246197D01*
X244622Y244622D01*
X246197Y243414D01*
X248032Y242654D01*
X248730Y242562D01*
Y248730D01*
D02*
G37*
G36*
X829270Y227988D02*
Y214270D01*
X842988D01*
X842822Y215948D01*
X841962Y218783D01*
X840566Y221396D01*
X838686Y223686D01*
X836396Y225566D01*
X833783Y226962D01*
X830948Y227822D01*
X829270Y227988D01*
D02*
G37*
G36*
X826730D02*
X825052Y227822D01*
X822217Y226962D01*
X819604Y225566D01*
X817314Y223686D01*
X815434Y221396D01*
X814038Y218783D01*
X813178Y215948D01*
X813012Y214270D01*
X826730D01*
Y227988D01*
D02*
G37*
G36*
X498730Y212481D02*
X496726Y212217D01*
X493676Y210954D01*
X491056Y208944D01*
X489046Y206324D01*
X487783Y203274D01*
X487522Y201290D01*
X482478D01*
X482217Y203274D01*
X480954Y206324D01*
X478944Y208944D01*
X476324Y210954D01*
X473274Y212217D01*
X471270Y212481D01*
Y195000D01*
Y177519D01*
X473274Y177783D01*
X476324Y179046D01*
X478944Y181056D01*
X480954Y183676D01*
X482217Y186726D01*
X482478Y188710D01*
X487522D01*
X487783Y186726D01*
X489046Y183676D01*
X491056Y181056D01*
X493676Y179046D01*
X496726Y177783D01*
X498730Y177519D01*
Y195000D01*
Y212481D01*
D02*
G37*
G36*
X403730D02*
X401726Y212217D01*
X398676Y210954D01*
X396056Y208944D01*
X394046Y206324D01*
X392783Y203274D01*
X392522Y201290D01*
X387478D01*
X387217Y203274D01*
X385954Y206324D01*
X383944Y208944D01*
X381324Y210954D01*
X378274Y212217D01*
X376270Y212481D01*
Y195000D01*
Y177519D01*
X378274Y177783D01*
X381324Y179046D01*
X383944Y181056D01*
X385954Y183676D01*
X387217Y186726D01*
X387478Y188710D01*
X392522D01*
X392783Y186726D01*
X394046Y183676D01*
X396056Y181056D01*
X398676Y179046D01*
X401726Y177783D01*
X403730Y177519D01*
Y195000D01*
Y212481D01*
D02*
G37*
G36*
X951270Y207438D02*
Y201270D01*
X957438D01*
X957346Y201968D01*
X956586Y203803D01*
X955378Y205378D01*
X953802Y206586D01*
X951968Y207346D01*
X951270Y207438D01*
D02*
G37*
G36*
X948730D02*
X948032Y207346D01*
X946198Y206586D01*
X944622Y205378D01*
X943414Y203803D01*
X942654Y201968D01*
X942562Y201270D01*
X948730D01*
Y207438D01*
D02*
G37*
G36*
X826730Y211730D02*
X813012D01*
X813178Y210052D01*
X814038Y207217D01*
X815434Y204604D01*
X817314Y202314D01*
X819604Y200434D01*
X822217Y199038D01*
X825052Y198178D01*
X826730Y198012D01*
Y211730D01*
D02*
G37*
G36*
X842988D02*
X829270D01*
Y198012D01*
X830948Y198178D01*
X833783Y199038D01*
X836396Y200434D01*
X838686Y202314D01*
X840566Y204604D01*
X841962Y207217D01*
X842822Y210052D01*
X842988Y211730D01*
D02*
G37*
G36*
X563730Y212481D02*
X561726Y212217D01*
X558676Y210954D01*
X556056Y208944D01*
X554046Y206324D01*
X552783Y203274D01*
X552352Y200000D01*
Y196270D01*
X563730D01*
Y212481D01*
D02*
G37*
G36*
X501270D02*
Y196270D01*
X512648D01*
Y200000D01*
X512217Y203274D01*
X510954Y206324D01*
X508944Y208944D01*
X506324Y210954D01*
X503274Y212217D01*
X501270Y212481D01*
D02*
G37*
G36*
X468730D02*
X466726Y212217D01*
X463676Y210954D01*
X461056Y208944D01*
X459046Y206324D01*
X457783Y203274D01*
X457352Y200000D01*
Y196270D01*
X468730D01*
Y212481D01*
D02*
G37*
G36*
X406270D02*
Y196270D01*
X417648D01*
Y200000D01*
X417217Y203274D01*
X415954Y206324D01*
X413944Y208944D01*
X411324Y210954D01*
X408274Y212217D01*
X406270Y212481D01*
D02*
G37*
G36*
X373730D02*
X371726Y212217D01*
X368676Y210954D01*
X366056Y208944D01*
X364046Y206324D01*
X362783Y203274D01*
X362352Y200000D01*
Y196270D01*
X373730D01*
Y212481D01*
D02*
G37*
G36*
X311270D02*
Y196270D01*
X322648D01*
Y200000D01*
X322217Y203274D01*
X320954Y206324D01*
X318944Y208944D01*
X316324Y210954D01*
X313274Y212217D01*
X311270Y212481D01*
D02*
G37*
G36*
X308730D02*
X306726Y212217D01*
X303676Y210954D01*
X301056Y208944D01*
X299046Y206324D01*
X297783Y203274D01*
X297352Y200000D01*
Y196270D01*
X308730D01*
Y212481D01*
D02*
G37*
G36*
X596270Y212481D02*
Y196270D01*
X607648D01*
Y200000D01*
X607217Y203274D01*
X605954Y206324D01*
X603944Y208944D01*
X601324Y210954D01*
X598274Y212217D01*
X596270Y212481D01*
D02*
G37*
G36*
X957438Y198730D02*
X951270D01*
Y192562D01*
X951968Y192654D01*
X953802Y193414D01*
X955378Y194622D01*
X956586Y196197D01*
X957346Y198032D01*
X957438Y198730D01*
D02*
G37*
G36*
X948730D02*
X942562D01*
X942654Y198032D01*
X943414Y196197D01*
X944622Y194622D01*
X946198Y193414D01*
X948032Y192654D01*
X948730Y192562D01*
Y198730D01*
D02*
G37*
G36*
X563730Y193730D02*
X552352D01*
Y190000D01*
X552783Y186726D01*
X554046Y183676D01*
X556056Y181056D01*
X558676Y179046D01*
X561726Y177783D01*
X563730Y177519D01*
Y193730D01*
D02*
G37*
G36*
X512648D02*
X501270D01*
Y177519D01*
X503274Y177783D01*
X506324Y179046D01*
X508944Y181056D01*
X510954Y183676D01*
X512217Y186726D01*
X512648Y190000D01*
Y193730D01*
D02*
G37*
G36*
X468730D02*
X457352D01*
Y190000D01*
X457783Y186726D01*
X459046Y183676D01*
X461056Y181056D01*
X463676Y179046D01*
X466726Y177783D01*
X468730Y177519D01*
Y193730D01*
D02*
G37*
G36*
X417648D02*
X406270D01*
Y177519D01*
X408274Y177783D01*
X411324Y179046D01*
X413944Y181056D01*
X415954Y183676D01*
X417217Y186726D01*
X417648Y190000D01*
Y193730D01*
D02*
G37*
G36*
X373730D02*
X362352D01*
Y190000D01*
X362783Y186726D01*
X364046Y183676D01*
X366056Y181056D01*
X368676Y179046D01*
X371726Y177783D01*
X373730Y177519D01*
Y193730D01*
D02*
G37*
G36*
X322648D02*
X311270D01*
Y177519D01*
X313274Y177783D01*
X316324Y179046D01*
X318944Y181056D01*
X320954Y183676D01*
X322217Y186726D01*
X322648Y190000D01*
Y193730D01*
D02*
G37*
G36*
X308730D02*
X297352D01*
Y190000D01*
X297783Y186726D01*
X299046Y183676D01*
X301056Y181056D01*
X303676Y179046D01*
X306726Y177783D01*
X308730Y177519D01*
Y193730D01*
D02*
G37*
G36*
X607648Y193730D02*
X596270D01*
Y177519D01*
X598274Y177783D01*
X601324Y179046D01*
X603944Y181056D01*
X605954Y183676D01*
X607217Y186726D01*
X607648Y190000D01*
Y193730D01*
D02*
G37*
G36*
X566270Y212481D02*
Y195000D01*
Y177519D01*
X568274Y177783D01*
X571324Y179046D01*
X573944Y181056D01*
X575954Y183676D01*
X577217Y186726D01*
X577478Y188710D01*
X582522D01*
X582783Y186726D01*
X584046Y183676D01*
X586056Y181056D01*
X588676Y179046D01*
X591726Y177783D01*
X593730Y177519D01*
Y195000D01*
Y212481D01*
X591726Y212217D01*
X588676Y210954D01*
X586056Y208944D01*
X584046Y206324D01*
X582783Y203274D01*
X582522Y201290D01*
X577478D01*
X577217Y203274D01*
X575954Y206324D01*
X573944Y208944D01*
X571324Y210954D01*
X568274Y212217D01*
X566270Y212481D01*
D02*
G37*
G36*
X208540Y161040D02*
X202520D01*
Y155270D01*
X208540D01*
Y161040D01*
D02*
G37*
G36*
X565000Y166397D02*
X562050Y166009D01*
X559301Y164870D01*
X556941Y163059D01*
X555129Y160699D01*
X553991Y157950D01*
X553602Y155000D01*
Y152620D01*
X511398D01*
Y155000D01*
X511009Y157950D01*
X509870Y160699D01*
X508059Y163059D01*
X505699Y164870D01*
X502950Y166009D01*
X500000Y166397D01*
X497050Y166009D01*
X494301Y164870D01*
X491941Y163059D01*
X490129Y160699D01*
X488991Y157950D01*
X488602Y155000D01*
Y145000D01*
X488991Y142050D01*
X490129Y139301D01*
X491941Y136941D01*
X494301Y135129D01*
X497050Y133991D01*
X500000Y133603D01*
X502950Y133991D01*
X505699Y135129D01*
X508059Y136941D01*
X509870Y139301D01*
X511009Y142050D01*
X511398Y145000D01*
Y147380D01*
X553602D01*
Y145000D01*
X553991Y142050D01*
X555129Y139301D01*
X556941Y136941D01*
X559301Y135129D01*
X562050Y133991D01*
X565000Y133603D01*
X567950Y133991D01*
X570699Y135129D01*
X573059Y136941D01*
X574870Y139301D01*
X576009Y142050D01*
X576398Y145000D01*
Y155000D01*
X576009Y157950D01*
X574870Y160699D01*
X573059Y163059D01*
X570699Y164870D01*
X567950Y166009D01*
X565000Y166397D01*
D02*
G37*
G36*
X470000D02*
X467050Y166009D01*
X464301Y164870D01*
X461941Y163059D01*
X460130Y160699D01*
X458991Y157950D01*
X458602Y155000D01*
Y152620D01*
X416398D01*
Y155000D01*
X416009Y157950D01*
X414870Y160699D01*
X413059Y163059D01*
X410699Y164870D01*
X407950Y166009D01*
X405000Y166397D01*
X402050Y166009D01*
X399301Y164870D01*
X396941Y163059D01*
X395130Y160699D01*
X393991Y157950D01*
X393602Y155000D01*
Y145000D01*
X393991Y142050D01*
X395130Y139301D01*
X396941Y136941D01*
X399301Y135129D01*
X402050Y133991D01*
X405000Y133603D01*
X407950Y133991D01*
X410699Y135129D01*
X413059Y136941D01*
X414870Y139301D01*
X416009Y142050D01*
X416398Y145000D01*
Y147380D01*
X458602D01*
Y145000D01*
X458991Y142050D01*
X460130Y139301D01*
X461941Y136941D01*
X464301Y135129D01*
X467050Y133991D01*
X470000Y133603D01*
X472950Y133991D01*
X475699Y135129D01*
X478059Y136941D01*
X479870Y139301D01*
X481009Y142050D01*
X481398Y145000D01*
Y155000D01*
X481009Y157950D01*
X479870Y160699D01*
X478059Y163059D01*
X475699Y164870D01*
X472950Y166009D01*
X470000Y166397D01*
D02*
G37*
G36*
X375000D02*
X372050Y166009D01*
X369301Y164870D01*
X366941Y163059D01*
X365130Y160699D01*
X363991Y157950D01*
X363602Y155000D01*
Y152620D01*
X321398D01*
Y155000D01*
X321009Y157950D01*
X319871Y160699D01*
X318059Y163059D01*
X315699Y164870D01*
X312950Y166009D01*
X310000Y166397D01*
X307050Y166009D01*
X304301Y164870D01*
X301941Y163059D01*
X300130Y160699D01*
X298991Y157950D01*
X298603Y155000D01*
Y145000D01*
X298991Y142050D01*
X300130Y139301D01*
X301941Y136941D01*
X304301Y135129D01*
X307050Y133991D01*
X310000Y133603D01*
X312950Y133991D01*
X315699Y135129D01*
X318059Y136941D01*
X319871Y139301D01*
X321009Y142050D01*
X321398Y145000D01*
Y147380D01*
X363602D01*
Y145000D01*
X363991Y142050D01*
X365130Y139301D01*
X366941Y136941D01*
X369301Y135129D01*
X372050Y133991D01*
X375000Y133603D01*
X377950Y133991D01*
X380699Y135129D01*
X383059Y136941D01*
X384871Y139301D01*
X386009Y142050D01*
X386398Y145000D01*
Y155000D01*
X386009Y157950D01*
X384871Y160699D01*
X383059Y163059D01*
X380699Y164870D01*
X377950Y166009D01*
X375000Y166397D01*
D02*
G37*
G36*
X251270Y157438D02*
Y151270D01*
X257438D01*
X257346Y151968D01*
X256586Y153802D01*
X255378Y155378D01*
X253803Y156586D01*
X251968Y157346D01*
X251270Y157438D01*
D02*
G37*
G36*
X248730D02*
X248032Y157346D01*
X246197Y156586D01*
X244622Y155378D01*
X243414Y153802D01*
X242654Y151968D01*
X242562Y151270D01*
X248730D01*
Y157438D01*
D02*
G37*
G36*
X208540Y152730D02*
X202520D01*
Y146960D01*
X208540D01*
Y152730D01*
D02*
G37*
G36*
X257438Y148730D02*
X251270D01*
Y142562D01*
X251968Y142654D01*
X253803Y143414D01*
X255378Y144622D01*
X256586Y146198D01*
X257346Y148032D01*
X257438Y148730D01*
D02*
G37*
G36*
X248730D02*
X242562D01*
X242654Y148032D01*
X243414Y146198D01*
X244622Y144622D01*
X246197Y143414D01*
X248032Y142654D01*
X248730Y142562D01*
Y148730D01*
D02*
G37*
G36*
X893000Y169398D02*
X873000D01*
X870050Y169009D01*
X867301Y167871D01*
X864941Y166059D01*
X863130Y163699D01*
X861991Y160950D01*
X861602Y158000D01*
Y133000D01*
X861991Y130050D01*
X863130Y127301D01*
X864941Y124941D01*
X867301Y123130D01*
X870050Y121991D01*
X873000Y121602D01*
X893000D01*
X895950Y121991D01*
X898699Y123130D01*
X901059Y124941D01*
X902870Y127301D01*
X904009Y130050D01*
X904398Y133000D01*
Y158000D01*
X904009Y160950D01*
X902870Y163699D01*
X901059Y166059D01*
X898699Y167871D01*
X895950Y169009D01*
X893000Y169398D01*
D02*
G37*
G36*
X951270Y107438D02*
Y101270D01*
X957438D01*
X957346Y101968D01*
X956586Y103802D01*
X955378Y105378D01*
X953802Y106586D01*
X951968Y107346D01*
X951270Y107438D01*
D02*
G37*
G36*
X948730D02*
X948032Y107346D01*
X946198Y106586D01*
X944622Y105378D01*
X943414Y103802D01*
X942654Y101968D01*
X942562Y101270D01*
X948730D01*
Y107438D01*
D02*
G37*
G36*
X957438Y98730D02*
X951270D01*
Y92562D01*
X951968Y92654D01*
X953802Y93414D01*
X955378Y94622D01*
X956586Y96198D01*
X957346Y98032D01*
X957438Y98730D01*
D02*
G37*
G36*
X948730D02*
X942562D01*
X942654Y98032D01*
X943414Y96198D01*
X944622Y94622D01*
X946198Y93414D01*
X948032Y92654D01*
X948730Y92562D01*
Y98730D01*
D02*
G37*
G36*
X498730Y97481D02*
X496726Y97217D01*
X493676Y95954D01*
X491056Y93944D01*
X489046Y91324D01*
X487783Y88274D01*
X487522Y86290D01*
X482478D01*
X482217Y88274D01*
X480954Y91324D01*
X478944Y93944D01*
X476324Y95954D01*
X473274Y97217D01*
X471270Y97481D01*
Y80000D01*
Y62519D01*
X473274Y62783D01*
X476324Y64046D01*
X478944Y66056D01*
X480954Y68676D01*
X482217Y71726D01*
X482478Y73710D01*
X487522D01*
X487783Y71726D01*
X489046Y68676D01*
X491056Y66056D01*
X493676Y64046D01*
X496726Y62783D01*
X498730Y62519D01*
Y80000D01*
Y97481D01*
D02*
G37*
G36*
X373730Y97481D02*
X371726Y97217D01*
X368676Y95954D01*
X366056Y93944D01*
X364046Y91324D01*
X362783Y88274D01*
X362352Y85000D01*
Y81270D01*
X373730D01*
Y97481D01*
D02*
G37*
G36*
X311270D02*
Y81270D01*
X322648D01*
Y85000D01*
X322217Y88274D01*
X320954Y91324D01*
X318944Y93944D01*
X316324Y95954D01*
X313274Y97217D01*
X311270Y97481D01*
D02*
G37*
G36*
X308730D02*
X306726Y97217D01*
X303676Y95954D01*
X301056Y93944D01*
X299046Y91324D01*
X297783Y88274D01*
X297352Y85000D01*
Y81270D01*
X308730D01*
Y97481D01*
D02*
G37*
G36*
X563730Y97481D02*
X561726Y97217D01*
X558676Y95954D01*
X556056Y93944D01*
X554046Y91324D01*
X552783Y88274D01*
X552352Y85000D01*
Y81270D01*
X563730D01*
Y97481D01*
D02*
G37*
G36*
X501270D02*
Y81270D01*
X512648D01*
Y85000D01*
X512217Y88274D01*
X510954Y91324D01*
X508944Y93944D01*
X506324Y95954D01*
X503274Y97217D01*
X501270Y97481D01*
D02*
G37*
G36*
X658730Y97481D02*
X656726Y97217D01*
X653676Y95954D01*
X651056Y93944D01*
X649046Y91324D01*
X647783Y88274D01*
X647352Y85000D01*
Y81270D01*
X658730D01*
Y97481D01*
D02*
G37*
G36*
X596270D02*
Y81270D01*
X607648D01*
Y85000D01*
X607217Y88274D01*
X605954Y91324D01*
X603944Y93944D01*
X601324Y95954D01*
X598274Y97217D01*
X596270Y97481D01*
D02*
G37*
G36*
X468730D02*
X466726Y97217D01*
X463676Y95954D01*
X461056Y93944D01*
X459046Y91324D01*
X457783Y88274D01*
X457352Y85000D01*
Y81270D01*
X468730D01*
Y97481D01*
D02*
G37*
G36*
X406270D02*
Y81270D01*
X417648D01*
Y85000D01*
X417217Y88274D01*
X415954Y91324D01*
X413944Y93944D01*
X411324Y95954D01*
X408274Y97217D01*
X406270Y97481D01*
D02*
G37*
G36*
X373730Y78730D02*
X362352D01*
Y75000D01*
X362783Y71726D01*
X364046Y68676D01*
X366056Y66056D01*
X368676Y64046D01*
X371726Y62783D01*
X373730Y62519D01*
Y78730D01*
D02*
G37*
G36*
X322648D02*
X311270D01*
Y62519D01*
X313274Y62783D01*
X316324Y64046D01*
X318944Y66056D01*
X320954Y68676D01*
X322217Y71726D01*
X322648Y75000D01*
Y78730D01*
D02*
G37*
G36*
X308730D02*
X297352D01*
Y75000D01*
X297783Y71726D01*
X299046Y68676D01*
X301056Y66056D01*
X303676Y64046D01*
X306726Y62783D01*
X308730Y62519D01*
Y78730D01*
D02*
G37*
G36*
X563730Y78730D02*
X552352D01*
Y75000D01*
X552783Y71726D01*
X554046Y68676D01*
X556056Y66056D01*
X558676Y64046D01*
X561726Y62783D01*
X563730Y62519D01*
Y78730D01*
D02*
G37*
G36*
X512648D02*
X501270D01*
Y62519D01*
X503274Y62783D01*
X506324Y64046D01*
X508944Y66056D01*
X510954Y68676D01*
X512217Y71726D01*
X512648Y75000D01*
Y78730D01*
D02*
G37*
G36*
X658730Y78730D02*
X647352D01*
Y75000D01*
X647783Y71726D01*
X649046Y68676D01*
X651056Y66056D01*
X653676Y64046D01*
X656726Y62783D01*
X658730Y62519D01*
Y78730D01*
D02*
G37*
G36*
X607648D02*
X596270D01*
Y62519D01*
X598274Y62783D01*
X601324Y64046D01*
X603944Y66056D01*
X605954Y68676D01*
X607217Y71726D01*
X607648Y75000D01*
Y78730D01*
D02*
G37*
G36*
X566270Y97481D02*
Y80000D01*
Y62519D01*
X568274Y62783D01*
X571324Y64046D01*
X573944Y66056D01*
X575954Y68676D01*
X577217Y71726D01*
X577478Y73710D01*
X582522D01*
X582783Y71726D01*
X584046Y68676D01*
X586056Y66056D01*
X588676Y64046D01*
X591726Y62783D01*
X593730Y62519D01*
Y80000D01*
Y97481D01*
X591726Y97217D01*
X588676Y95954D01*
X586056Y93944D01*
X584046Y91324D01*
X582783Y88274D01*
X582522Y86290D01*
X577478D01*
X577217Y88274D01*
X575954Y91324D01*
X573944Y93944D01*
X571324Y95954D01*
X568274Y97217D01*
X566270Y97481D01*
D02*
G37*
G36*
X468730Y78730D02*
X457352D01*
Y75000D01*
X457783Y71726D01*
X459046Y68676D01*
X461056Y66056D01*
X463676Y64046D01*
X466726Y62783D01*
X468730Y62519D01*
Y78730D01*
D02*
G37*
G36*
X417648D02*
X406270D01*
Y62519D01*
X408274Y62783D01*
X411324Y64046D01*
X413944Y66056D01*
X415954Y68676D01*
X417217Y71726D01*
X417648Y75000D01*
Y78730D01*
D02*
G37*
G36*
X376270Y97481D02*
Y80000D01*
Y62519D01*
X378274Y62783D01*
X381324Y64046D01*
X383944Y66056D01*
X385954Y68676D01*
X387217Y71726D01*
X387478Y73710D01*
X392522D01*
X392783Y71726D01*
X394046Y68676D01*
X396056Y66056D01*
X398676Y64046D01*
X401726Y62783D01*
X403730Y62519D01*
Y80000D01*
Y97481D01*
X401726Y97217D01*
X398676Y95954D01*
X396056Y93944D01*
X394046Y91324D01*
X392783Y88274D01*
X392522Y86290D01*
X387478D01*
X387217Y88274D01*
X385954Y91324D01*
X383944Y93944D01*
X381324Y95954D01*
X378274Y97217D01*
X376270Y97481D01*
D02*
G37*
G36*
X251270Y57438D02*
Y51270D01*
X257438D01*
X257346Y51968D01*
X256586Y53802D01*
X255378Y55378D01*
X253803Y56586D01*
X251968Y57346D01*
X251270Y57438D01*
D02*
G37*
G36*
X248730D02*
X248032Y57346D01*
X246197Y56586D01*
X244622Y55378D01*
X243414Y53802D01*
X242654Y51968D01*
X242562Y51270D01*
X248730D01*
Y57438D01*
D02*
G37*
G36*
X151270D02*
Y51270D01*
X157438D01*
X157346Y51968D01*
X156586Y53802D01*
X155378Y55378D01*
X153802Y56586D01*
X151968Y57346D01*
X151270Y57438D01*
D02*
G37*
G36*
X148730D02*
X148032Y57346D01*
X146198Y56586D01*
X144622Y55378D01*
X143414Y53802D01*
X142654Y51968D01*
X142562Y51270D01*
X148730D01*
Y57438D01*
D02*
G37*
G36*
X257438Y48730D02*
X251270D01*
Y42562D01*
X251968Y42654D01*
X253803Y43414D01*
X255378Y44622D01*
X256586Y46198D01*
X257346Y48032D01*
X257438Y48730D01*
D02*
G37*
G36*
X248730D02*
X242562D01*
X242654Y48032D01*
X243414Y46198D01*
X244622Y44622D01*
X246197Y43414D01*
X248032Y42654D01*
X248730Y42562D01*
Y48730D01*
D02*
G37*
G36*
X157438D02*
X151270D01*
Y42562D01*
X151968Y42654D01*
X153802Y43414D01*
X155378Y44622D01*
X156586Y46198D01*
X157346Y48032D01*
X157438Y48730D01*
D02*
G37*
G36*
X148730D02*
X142562D01*
X142654Y48032D01*
X143414Y46198D01*
X144622Y44622D01*
X146198Y43414D01*
X148032Y42654D01*
X148730Y42562D01*
Y48730D01*
D02*
G37*
G36*
X854270Y52988D02*
Y39270D01*
X867988D01*
X867822Y40948D01*
X866962Y43783D01*
X865566Y46396D01*
X863686Y48686D01*
X861396Y50566D01*
X858783Y51962D01*
X855948Y52822D01*
X854270Y52988D01*
D02*
G37*
G36*
X851730D02*
X850052Y52822D01*
X847217Y51962D01*
X844604Y50566D01*
X842314Y48686D01*
X840434Y46396D01*
X839038Y43783D01*
X838178Y40948D01*
X838012Y39270D01*
X851730D01*
Y52988D01*
D02*
G37*
G36*
X272480Y652040D02*
X266460D01*
Y646270D01*
X272480D01*
Y652040D01*
D02*
G37*
G36*
Y643730D02*
X266460D01*
Y637960D01*
X272480D01*
Y643730D01*
D02*
G37*
G36*
X207438Y498730D02*
X201270D01*
Y492562D01*
X201968Y492654D01*
X203803Y493414D01*
X205378Y494622D01*
X206586Y496198D01*
X207346Y498032D01*
X207438Y498730D01*
D02*
G37*
G36*
X198730Y607438D02*
X198032Y607346D01*
X196197Y606586D01*
X194622Y605378D01*
X193414Y603802D01*
X192654Y601968D01*
X192562Y601270D01*
X198730D01*
Y607438D01*
D02*
G37*
G36*
Y598730D02*
X192562D01*
X192654Y598032D01*
X193414Y596198D01*
X194622Y594622D01*
X196197Y593414D01*
X198032Y592654D01*
X198730Y592562D01*
Y598730D01*
D02*
G37*
G36*
X80500Y601415D02*
X74500D01*
X71028Y600958D01*
X67793Y599618D01*
X65014Y597486D01*
X62882Y594707D01*
X61542Y591472D01*
X61085Y588000D01*
Y552000D01*
X61542Y548528D01*
X62882Y545293D01*
X65014Y542514D01*
X67793Y540382D01*
X71028Y539042D01*
X74500Y538585D01*
X74527D01*
X76993Y533585D01*
X76799Y533333D01*
X75334Y529796D01*
X74834Y526000D01*
Y524270D01*
X106230D01*
Y540666D01*
X94869D01*
X92118Y545293D01*
X93458Y548528D01*
X93915Y552000D01*
Y588000D01*
X93458Y591472D01*
X92118Y594707D01*
X89986Y597486D01*
X87207Y599618D01*
X83972Y600958D01*
X80500Y601415D01*
D02*
G37*
G36*
X106230Y521730D02*
X74834D01*
Y520000D01*
X75334Y516204D01*
X76281Y513918D01*
X75983Y511586D01*
X73673Y508528D01*
X72329Y508661D01*
X69995Y510995D01*
X69000Y511407D01*
X63000D01*
X62005Y510995D01*
X56550Y505540D01*
X54460D01*
Y495270D01*
X56500D01*
Y503500D01*
X63000Y510000D01*
X69000D01*
X75500Y503500D01*
Y495270D01*
X77540D01*
Y500892D01*
X77540Y503478D01*
X77668Y504646D01*
X81149Y507318D01*
X81753Y507307D01*
X82566Y507134D01*
X82818Y507030D01*
X85704Y505834D01*
X89500Y505335D01*
X106230D01*
Y521730D01*
D02*
G37*
G36*
X140166D02*
X108770D01*
Y505335D01*
X125500D01*
X129296Y505834D01*
X132833Y507299D01*
X135870Y509630D01*
X138201Y512667D01*
X139666Y516204D01*
X140166Y520000D01*
Y521730D01*
D02*
G37*
G36*
X140500Y601415D02*
X134500D01*
X131028Y600958D01*
X127793Y599618D01*
X125014Y597486D01*
X122882Y594707D01*
X121542Y591472D01*
X121085Y588000D01*
Y552000D01*
X121542Y548528D01*
X122882Y545293D01*
X120131Y540666D01*
X108770D01*
Y524270D01*
X140166D01*
Y526000D01*
X139666Y529796D01*
X138201Y533333D01*
X138007Y533585D01*
X140473Y538585D01*
X140500D01*
X143972Y539042D01*
X147207Y540382D01*
X147293Y540448D01*
X154135Y533606D01*
Y521300D01*
X148700D01*
Y500700D01*
X166300D01*
Y521300D01*
X160865D01*
Y535000D01*
X160609Y536288D01*
X159879Y537379D01*
X159879Y537379D01*
X152052Y545207D01*
X152118Y545293D01*
X153458Y548528D01*
X153915Y552000D01*
Y588000D01*
X153458Y591472D01*
X152118Y594707D01*
X149986Y597486D01*
X147207Y599618D01*
X143972Y600958D01*
X140500Y601415D01*
D02*
G37*
G36*
X77540Y492730D02*
X75500D01*
Y484500D01*
X69000Y478000D01*
X63000Y478000D01*
X56500Y484500D01*
Y492730D01*
X54460D01*
Y482460D01*
X56550D01*
X60460Y478550D01*
Y470270D01*
X66000D01*
X71540D01*
Y478550D01*
X75450Y482460D01*
X77540D01*
Y492730D01*
D02*
G37*
G36*
X118470Y422959D02*
Y414270D01*
X127159D01*
X126982Y415621D01*
X125970Y418063D01*
X124361Y420161D01*
X122263Y421770D01*
X119821Y422782D01*
X118470Y422959D01*
D02*
G37*
G36*
X115930D02*
X114579Y422782D01*
X112137Y421770D01*
X110039Y420161D01*
X108430Y418063D01*
X107418Y415621D01*
X107241Y414270D01*
X115930D01*
Y422959D01*
D02*
G37*
G36*
X127159Y411730D02*
X118470D01*
Y403041D01*
X119821Y403218D01*
X122263Y404230D01*
X124361Y405839D01*
X125970Y407937D01*
X126982Y410379D01*
X127159Y411730D01*
D02*
G37*
G36*
X115930D02*
X107241D01*
X107418Y410379D01*
X108430Y407937D01*
X110039Y405839D01*
X112137Y404230D01*
X114579Y403218D01*
X115930Y403041D01*
Y411730D01*
D02*
G37*
G36*
X118470Y397559D02*
Y388870D01*
X127159D01*
X126982Y390221D01*
X125970Y392663D01*
X124361Y394761D01*
X122263Y396370D01*
X119821Y397382D01*
X118470Y397559D01*
D02*
G37*
G36*
X115930D02*
X114579Y397382D01*
X112137Y396370D01*
X110039Y394761D01*
X108430Y392663D01*
X107418Y390221D01*
X107241Y388870D01*
X115930D01*
Y397559D01*
D02*
G37*
G36*
X621438Y388480D02*
X615270D01*
Y382312D01*
X615968Y382404D01*
X617803Y383164D01*
X619378Y384372D01*
X620586Y385947D01*
X621346Y387782D01*
X621438Y388480D01*
D02*
G37*
G36*
X600270Y346438D02*
Y340270D01*
X606438D01*
X606346Y340968D01*
X605586Y342803D01*
X604378Y344378D01*
X602803Y345586D01*
X600968Y346346D01*
X600270Y346438D01*
D02*
G37*
G36*
X701270Y307438D02*
Y301270D01*
X707438D01*
X707346Y301968D01*
X706586Y303803D01*
X705378Y305378D01*
X703802Y306586D01*
X701968Y307346D01*
X701270Y307438D01*
D02*
G37*
G36*
X698730D02*
X698032Y307346D01*
X696198Y306586D01*
X694622Y305378D01*
X693414Y303803D01*
X692654Y301968D01*
X692562Y301270D01*
X698730D01*
Y307438D01*
D02*
G37*
G36*
X609540Y302730D02*
X603520D01*
Y296960D01*
X609540D01*
Y302730D01*
D02*
G37*
G36*
X707438Y298730D02*
X701270D01*
Y292562D01*
X701968Y292654D01*
X703802Y293414D01*
X705378Y294622D01*
X706586Y296197D01*
X707346Y298032D01*
X707438Y298730D01*
D02*
G37*
G36*
X698730D02*
X692562D01*
X692654Y298032D01*
X693414Y296197D01*
X694622Y294622D01*
X696198Y293414D01*
X698032Y292654D01*
X698730Y292562D01*
Y298730D01*
D02*
G37*
G36*
X96916Y339730D02*
X83070D01*
Y325884D01*
X88050D01*
X90345Y326186D01*
X92483Y327072D01*
X94319Y328481D01*
X95728Y330317D01*
X96614Y332455D01*
X96916Y334750D01*
Y339730D01*
D02*
G37*
G36*
X80530D02*
X66684D01*
Y334750D01*
X66986Y332455D01*
X67872Y330317D01*
X69281Y328481D01*
X71117Y327072D01*
X73255Y326186D01*
X75550Y325884D01*
X80530D01*
Y339730D01*
D02*
G37*
G36*
X46116D02*
X32270D01*
Y325884D01*
X37250D01*
X39545Y326186D01*
X41683Y327072D01*
X43519Y328481D01*
X44928Y330317D01*
X45814Y332455D01*
X46116Y334750D01*
Y339730D01*
D02*
G37*
G36*
X56000Y328919D02*
X52397Y328445D01*
X49040Y327054D01*
X46158Y324842D01*
X43946Y321959D01*
X42555Y318603D01*
X42081Y315000D01*
X42555Y311397D01*
X43946Y308041D01*
X46158Y305158D01*
X49040Y302946D01*
X52397Y301555D01*
X56000Y301081D01*
X59602Y301555D01*
X62959Y302946D01*
X65842Y305158D01*
X68054Y308041D01*
X69445Y311397D01*
X69574Y312380D01*
X100700D01*
Y309200D01*
X112800D01*
Y320800D01*
X100700D01*
Y317620D01*
X69574D01*
X69445Y318603D01*
X68054Y321959D01*
X65842Y324842D01*
X62959Y327054D01*
X59602Y328445D01*
X56000Y328919D01*
D02*
G37*
G36*
X183730Y301438D02*
X183032Y301346D01*
X181197Y300586D01*
X179622Y299378D01*
X178414Y297803D01*
X177654Y295968D01*
X177562Y295270D01*
X183730D01*
Y301438D01*
D02*
G37*
G36*
X147540Y298540D02*
X143270D01*
Y292270D01*
X147540D01*
Y298540D01*
D02*
G37*
G36*
X140730D02*
X136460D01*
Y292270D01*
X140730D01*
Y298540D01*
D02*
G37*
G36*
X166540Y298540D02*
X162270D01*
Y292270D01*
X166540D01*
Y298540D01*
D02*
G37*
G36*
X159730D02*
X155460D01*
Y292270D01*
X159730D01*
Y298540D01*
D02*
G37*
G36*
X88050Y305316D02*
X83070D01*
Y291470D01*
X96916D01*
Y296450D01*
X96614Y298745D01*
X95728Y300883D01*
X94319Y302719D01*
X92483Y304128D01*
X90345Y305014D01*
X88050Y305316D01*
D02*
G37*
G36*
X80530D02*
X75550D01*
X73255Y305014D01*
X71117Y304128D01*
X69281Y302719D01*
X67872Y300883D01*
X66986Y298745D01*
X66684Y296450D01*
Y291470D01*
X80530D01*
Y305316D01*
D02*
G37*
G36*
X37250D02*
X32270D01*
Y291470D01*
X46116D01*
Y296450D01*
X45814Y298745D01*
X44928Y300883D01*
X43519Y302719D01*
X41683Y304128D01*
X39545Y305014D01*
X37250Y305316D01*
D02*
G37*
G36*
X183730Y292730D02*
X177562D01*
X177654Y292032D01*
X178414Y290198D01*
X179622Y288622D01*
X181197Y287414D01*
X183032Y286654D01*
X183730Y286562D01*
Y292730D01*
D02*
G37*
G36*
X128540Y292040D02*
X122270D01*
Y286270D01*
X128540D01*
Y292040D01*
D02*
G37*
G36*
X119730D02*
X113460D01*
Y286270D01*
X119730D01*
Y292040D01*
D02*
G37*
G36*
X147540Y289730D02*
X143270D01*
Y283460D01*
X147540D01*
Y289730D01*
D02*
G37*
G36*
X140730D02*
X136460D01*
Y283460D01*
X140730D01*
Y289730D01*
D02*
G37*
G36*
X166540Y289730D02*
X162270D01*
Y283460D01*
X166540D01*
Y289730D01*
D02*
G37*
G36*
X159730D02*
X155460D01*
Y283460D01*
X159730D01*
Y289730D01*
D02*
G37*
G36*
X128540Y283730D02*
X122270D01*
Y277960D01*
X128540D01*
Y283730D01*
D02*
G37*
G36*
X119730D02*
X113460D01*
Y277960D01*
X119730D01*
Y283730D01*
D02*
G37*
G36*
X96916Y288930D02*
X83070D01*
Y275084D01*
X88050D01*
X90345Y275386D01*
X92483Y276272D01*
X94319Y277681D01*
X95728Y279517D01*
X96614Y281655D01*
X96916Y283950D01*
Y288930D01*
D02*
G37*
G36*
X80530D02*
X66684D01*
Y283950D01*
X66986Y281655D01*
X67872Y279517D01*
X69281Y277681D01*
X71117Y276272D01*
X73255Y275386D01*
X75550Y275084D01*
X80530D01*
Y288930D01*
D02*
G37*
G36*
X46116D02*
X32270D01*
Y275084D01*
X37250D01*
X39545Y275386D01*
X41683Y276272D01*
X43519Y277681D01*
X44928Y279517D01*
X45814Y281655D01*
X46116Y283950D01*
Y288930D01*
D02*
G37*
G36*
X152270Y273438D02*
Y267270D01*
X158438D01*
X158346Y267968D01*
X157586Y269802D01*
X156378Y271378D01*
X154803Y272586D01*
X152968Y273346D01*
X152270Y273438D01*
D02*
G37*
G36*
X149730D02*
X149032Y273346D01*
X147198Y272586D01*
X145622Y271378D01*
X144414Y269802D01*
X143654Y267968D01*
X143562Y267270D01*
X149730D01*
Y273438D01*
D02*
G37*
G36*
X122270D02*
Y267270D01*
X128438D01*
X128346Y267968D01*
X127586Y269802D01*
X126378Y271378D01*
X124803Y272586D01*
X122968Y273346D01*
X122270Y273438D01*
D02*
G37*
G36*
X119730D02*
X119032Y273346D01*
X117198Y272586D01*
X115622Y271378D01*
X114414Y269802D01*
X113654Y267968D01*
X113562Y267270D01*
X119730D01*
Y273438D01*
D02*
G37*
G36*
X158438Y264730D02*
X152270D01*
Y258562D01*
X152968Y258654D01*
X154803Y259414D01*
X156378Y260622D01*
X157586Y262197D01*
X158346Y264032D01*
X158438Y264730D01*
D02*
G37*
G36*
X149730D02*
X143562D01*
X143654Y264032D01*
X144414Y262197D01*
X145622Y260622D01*
X147198Y259414D01*
X149032Y258654D01*
X149730Y258562D01*
Y264730D01*
D02*
G37*
G36*
X128438D02*
X122270D01*
Y258562D01*
X122968Y258654D01*
X124803Y259414D01*
X126378Y260622D01*
X127586Y262197D01*
X128346Y264032D01*
X128438Y264730D01*
D02*
G37*
G36*
X119730D02*
X113562D01*
X113654Y264032D01*
X114414Y262197D01*
X115622Y260622D01*
X117198Y259414D01*
X119032Y258654D01*
X119730Y258562D01*
Y264730D01*
D02*
G37*
G36*
X122270Y245438D02*
Y239270D01*
X128438D01*
X128346Y239968D01*
X127586Y241803D01*
X126378Y243378D01*
X124803Y244586D01*
X122968Y245346D01*
X122270Y245438D01*
D02*
G37*
G36*
X119730D02*
X119032Y245346D01*
X117198Y244586D01*
X115622Y243378D01*
X114414Y241803D01*
X113654Y239968D01*
X113562Y239270D01*
X119730D01*
Y245438D01*
D02*
G37*
G36*
X128438Y236730D02*
X122270D01*
Y230562D01*
X122968Y230654D01*
X124803Y231414D01*
X126378Y232622D01*
X127586Y234198D01*
X128346Y236032D01*
X128438Y236730D01*
D02*
G37*
G36*
X119730D02*
X113562D01*
X113654Y236032D01*
X114414Y234198D01*
X115622Y232622D01*
X117198Y231414D01*
X119032Y230654D01*
X119730Y230562D01*
Y236730D01*
D02*
G37*
G36*
X121040Y226540D02*
X116770D01*
Y220270D01*
X121040D01*
Y226540D01*
D02*
G37*
G36*
X114230D02*
X109960D01*
Y220270D01*
X114230D01*
Y226540D01*
D02*
G37*
G36*
X140040Y226540D02*
X135770D01*
Y220270D01*
X140040D01*
Y226540D01*
D02*
G37*
G36*
X133230D02*
X128960D01*
Y220270D01*
X133230D01*
Y226540D01*
D02*
G37*
G36*
X160270Y220438D02*
Y214270D01*
X166438D01*
X166346Y214968D01*
X165586Y216803D01*
X164378Y218378D01*
X162803Y219586D01*
X160968Y220346D01*
X160270Y220438D01*
D02*
G37*
G36*
X157730D02*
X157032Y220346D01*
X155197Y219586D01*
X153622Y218378D01*
X152414Y216803D01*
X151654Y214968D01*
X151562Y214270D01*
X157730D01*
Y220438D01*
D02*
G37*
G36*
X121040Y217730D02*
X116770D01*
Y211460D01*
X121040D01*
Y217730D01*
D02*
G37*
G36*
X114230D02*
X109960D01*
Y211460D01*
X114230D01*
Y217730D01*
D02*
G37*
G36*
X140040Y217730D02*
X135770D01*
Y211460D01*
X140040D01*
Y217730D01*
D02*
G37*
G36*
X133230D02*
X128960D01*
Y211460D01*
X133230D01*
Y217730D01*
D02*
G37*
G36*
X88050Y220916D02*
X83070D01*
Y207070D01*
X96916D01*
Y212050D01*
X96614Y214345D01*
X95728Y216483D01*
X94319Y218319D01*
X92483Y219728D01*
X90345Y220614D01*
X88050Y220916D01*
D02*
G37*
G36*
X80530D02*
X75550D01*
X73255Y220614D01*
X71117Y219728D01*
X69281Y218319D01*
X67872Y216483D01*
X66986Y214345D01*
X66684Y212050D01*
Y207070D01*
X80530D01*
Y220916D01*
D02*
G37*
G36*
X37250D02*
X32270D01*
Y207070D01*
X46116D01*
Y212050D01*
X45814Y214345D01*
X44928Y216483D01*
X43519Y218319D01*
X41683Y219728D01*
X39545Y220614D01*
X37250Y220916D01*
D02*
G37*
G36*
X166438Y211730D02*
X160270D01*
Y205562D01*
X160968Y205654D01*
X162803Y206414D01*
X164378Y207622D01*
X165586Y209198D01*
X166346Y211032D01*
X166438Y211730D01*
D02*
G37*
G36*
X157730D02*
X151562D01*
X151654Y211032D01*
X152414Y209198D01*
X153622Y207622D01*
X155197Y206414D01*
X157032Y205654D01*
X157730Y205562D01*
Y211730D01*
D02*
G37*
G36*
X166540Y203790D02*
X160270D01*
Y198020D01*
X166540D01*
Y203790D01*
D02*
G37*
G36*
X157730D02*
X151460D01*
Y198020D01*
X157730D01*
Y203790D01*
D02*
G37*
G36*
X96916Y204530D02*
X83070D01*
Y190684D01*
X88050D01*
X90345Y190986D01*
X92483Y191872D01*
X94319Y193281D01*
X95728Y195117D01*
X96614Y197255D01*
X96916Y199550D01*
Y204530D01*
D02*
G37*
G36*
X80530D02*
X66684D01*
Y199550D01*
X66986Y197255D01*
X67872Y195117D01*
X69281Y193281D01*
X71117Y191872D01*
X73255Y190986D01*
X75550Y190684D01*
X80530D01*
Y204530D01*
D02*
G37*
G36*
X46116D02*
X32270D01*
Y190684D01*
X37250D01*
X39545Y190986D01*
X41683Y191872D01*
X43519Y193281D01*
X44928Y195117D01*
X45814Y197255D01*
X46116Y199550D01*
Y204530D01*
D02*
G37*
G36*
X166540Y195480D02*
X160270D01*
Y189710D01*
X166540D01*
Y195480D01*
D02*
G37*
G36*
X157730D02*
X151460D01*
Y189710D01*
X157730D01*
Y195480D01*
D02*
G37*
G36*
X129300Y201300D02*
X120700D01*
Y188700D01*
X122130D01*
Y185800D01*
X118700D01*
Y182420D01*
X69574D01*
X69445Y183403D01*
X68054Y186759D01*
X65842Y189642D01*
X62959Y191854D01*
X59602Y193245D01*
X56000Y193719D01*
X52397Y193245D01*
X49040Y191854D01*
X46158Y189642D01*
X43946Y186759D01*
X42555Y183403D01*
X42081Y179800D01*
X42555Y176197D01*
X43946Y172840D01*
X46158Y169958D01*
X49040Y167746D01*
X52397Y166355D01*
X56000Y165881D01*
X59602Y166355D01*
X62959Y167746D01*
X65842Y169958D01*
X68054Y172840D01*
X69445Y176197D01*
X69574Y177180D01*
X118700D01*
Y174200D01*
X130800D01*
Y185800D01*
X127370D01*
Y188700D01*
X129300D01*
Y201300D01*
D02*
G37*
G36*
X88050Y170116D02*
X83070D01*
Y156270D01*
X96916D01*
Y161250D01*
X96614Y163545D01*
X95728Y165683D01*
X94319Y167519D01*
X92483Y168928D01*
X90345Y169814D01*
X88050Y170116D01*
D02*
G37*
G36*
X80530D02*
X75550D01*
X73255Y169814D01*
X71117Y168928D01*
X69281Y167519D01*
X67872Y165683D01*
X66986Y163545D01*
X66684Y161250D01*
Y156270D01*
X80530D01*
Y170116D01*
D02*
G37*
G36*
X37250D02*
X32270D01*
Y156270D01*
X46116D01*
Y161250D01*
X45814Y163545D01*
X44928Y165683D01*
X43519Y167519D01*
X41683Y168928D01*
X39545Y169814D01*
X37250Y170116D01*
D02*
G37*
G36*
X185480Y161040D02*
X179460D01*
Y155270D01*
X185480D01*
Y161040D01*
D02*
G37*
G36*
Y152730D02*
X179460D01*
Y146960D01*
X185480D01*
Y152730D01*
D02*
G37*
G36*
X676281Y257730D02*
X665070D01*
Y246519D01*
X667074Y246783D01*
X670124Y248046D01*
X672744Y250056D01*
X674754Y252676D01*
X676017Y255726D01*
X676281Y257730D01*
D02*
G37*
G36*
X735500Y166898D02*
X715500D01*
X712550Y166509D01*
X709801Y165371D01*
X707441Y163559D01*
X705630Y161199D01*
X704491Y158450D01*
X704102Y155500D01*
Y130500D01*
X704491Y127550D01*
X705630Y124801D01*
X707441Y122441D01*
X709801Y120630D01*
X712550Y119491D01*
X715500Y119102D01*
X735500D01*
X738450Y119491D01*
X741199Y120630D01*
X743559Y122441D01*
X745370Y124801D01*
X746509Y127550D01*
X746898Y130500D01*
Y155500D01*
X746509Y158450D01*
X745370Y161199D01*
X743559Y163559D01*
X741199Y165371D01*
X738450Y166509D01*
X735500Y166898D01*
D02*
G37*
G36*
X658730Y212481D02*
X656726Y212217D01*
X653676Y210954D01*
X651056Y208944D01*
X649046Y206324D01*
X647783Y203274D01*
X647352Y200000D01*
Y196270D01*
X658730D01*
Y212481D01*
D02*
G37*
G36*
Y193730D02*
X647352D01*
Y190000D01*
X647783Y186726D01*
X649046Y183676D01*
X651056Y181056D01*
X653676Y179046D01*
X656726Y177783D01*
X658730Y177519D01*
Y193730D01*
D02*
G37*
%LPD*%
D10*
X820000Y441000D02*
X825000Y436000D01*
Y390000D02*
Y436000D01*
X817000Y382000D02*
X825000Y390000D01*
X850000Y352000D02*
Y365000D01*
X834500Y336500D02*
X850000Y352000D01*
X806000Y336500D02*
X834500D01*
X277750Y317500D02*
X278000D01*
X103154Y367380D02*
X142888D01*
X102944Y367590D02*
X103154Y367380D01*
X142888D02*
X142948Y367440D01*
X101563Y363540D02*
X139779D01*
X101353Y363750D02*
X101563Y363540D01*
X72516Y363750D02*
X101353D01*
X139779Y363540D02*
X154193Y349127D01*
X93504Y359700D02*
X131300D01*
X93294Y359910D02*
X93504Y359700D01*
X131300D02*
X165200Y325800D01*
X48930Y356070D02*
X91703D01*
X28000Y377000D02*
X48930Y356070D01*
X91913Y355860D02*
X126140D01*
X91703Y356070D02*
X91913Y355860D01*
X126140D02*
X162550Y319450D01*
X68690Y359910D02*
X93294D01*
X41000Y387600D02*
X68690Y359910D01*
X86410Y367590D02*
X102944D01*
X154193Y349127D02*
X155873D01*
X108061Y371280D02*
X144539D01*
X108001Y371220D02*
X108061Y371280D01*
X104535Y371430D02*
X104714Y371250D01*
X93729Y371430D02*
X104535D01*
X78940Y386219D02*
X93729Y371430D01*
X78940Y386219D02*
Y400140D01*
X106470Y375120D02*
X168120D01*
X106410Y375060D02*
X106470Y375120D01*
X168120D02*
X175000Y382000D01*
X144599Y371220D02*
X169651D01*
X144539Y371280D02*
X144599Y371220D01*
X104820Y371220D02*
X108001D01*
X141370Y367380D02*
X157620D01*
X165874Y359127D01*
X169681Y371250D02*
X172750D01*
X169651Y371220D02*
X169681Y371250D01*
X66400Y387600D02*
X86410Y367590D01*
X53540Y382726D02*
X72516Y363750D01*
X104790Y371250D02*
X104820Y371220D01*
X104790Y371250D02*
Y371250D01*
X104714Y371250D02*
X104790D01*
X314000Y310000D02*
X333000D01*
X534000Y357000D02*
X538000Y361000D01*
X553000D01*
X158600Y397000D02*
X225500D01*
X142600Y413000D02*
X158600Y397000D01*
X225500D02*
X244250Y378250D01*
X144810Y389810D02*
X226190D01*
X142600Y387600D02*
X144810Y389810D01*
X226190D02*
X235710Y380290D01*
X658000Y152000D02*
X660000Y150000D01*
X628512Y152000D02*
X658000D01*
X628512D02*
X630000Y153488D01*
X597000Y152000D02*
X628512D01*
X630000Y153488D02*
Y204000D01*
X595000Y150000D02*
X597000Y152000D01*
X600000Y234000D02*
X630000Y204000D01*
X550958Y234000D02*
X600000D01*
X677000Y57000D02*
Y213000D01*
X651540Y238460D02*
X677000Y213000D01*
X551928Y238460D02*
X651540D01*
X660000Y40000D02*
X677000Y57000D01*
X494269Y290689D02*
X550958Y234000D01*
X494269Y290689D02*
Y357272D01*
X521997Y385000D01*
X553000D01*
X526750Y369250D02*
X527000Y369000D01*
X520318Y377890D02*
X552110D01*
X498109Y355681D02*
X520318Y377890D01*
X552110D02*
X553000Y377000D01*
X235680Y304320D02*
X245950Y294050D01*
X235680Y304320D02*
Y373800D01*
X235710Y373830D01*
Y380290D01*
X245950Y294050D02*
X259000D01*
X240000Y355750D02*
X244250Y360000D01*
X240000Y324000D02*
Y355750D01*
Y324000D02*
X250900Y313100D01*
X498109Y292279D02*
X551928Y238460D01*
X498109Y292279D02*
Y355681D01*
X172750Y371250D02*
X174874Y369127D01*
X53540Y382726D02*
Y400140D01*
X175000Y382000D02*
X222000D01*
X638000Y360000D02*
X639000Y361000D01*
X314000Y297000D02*
X333000D01*
X66000Y448000D02*
X69000Y445000D01*
X66000Y448000D02*
Y469000D01*
X781000Y212000D02*
Y248152D01*
X560000Y328660D02*
X563270Y331930D01*
X560000Y323872D02*
Y328660D01*
X560604Y345000D02*
X563270Y342334D01*
Y331930D02*
Y342334D01*
X559380Y323252D02*
X560000Y323872D01*
X559380Y298620D02*
Y323252D01*
Y298620D02*
X581000Y277000D01*
X638000D01*
X637000Y377000D02*
X649000D01*
X651000Y375000D01*
X670000D01*
X682460Y353112D02*
Y374236D01*
X662806Y393890D02*
X682460Y374236D01*
X645318Y393890D02*
X662806D01*
X682460Y353112D02*
X798460Y237112D01*
Y83460D02*
Y237112D01*
X687000Y354993D02*
X803000Y238993D01*
X659346Y403770D02*
X687000Y376116D01*
X624136Y403770D02*
X659346D01*
X687000Y354993D02*
Y376116D01*
X803000Y38000D02*
Y238993D01*
X752152Y277000D02*
X781000Y248152D01*
X638000Y277000D02*
X752152D01*
X753000Y38000D02*
X798460Y83460D01*
X659540Y309540D02*
Y356844D01*
X660270Y357574D01*
Y364426D01*
X655425Y369270D02*
X660270Y364426D01*
X648574Y369270D02*
X655425D01*
X647844Y368540D02*
X648574Y369270D01*
X637460Y368540D02*
X647844D01*
X592000Y388844D02*
Y389000D01*
X591000Y390000D02*
X592000Y389000D01*
X742750Y437250D02*
X749000Y443500D01*
X591000Y422000D02*
Y427000D01*
X507000Y468500D02*
Y470000D01*
X607000Y398500D02*
X614000Y391500D01*
Y389750D02*
Y391500D01*
X615000Y411660D02*
X620610Y417270D01*
X615000Y407000D02*
Y411660D01*
X625270Y417270D02*
X633000Y425000D01*
X620610Y417270D02*
X625270D01*
X633000Y425000D02*
Y428000D01*
X539170Y450849D02*
X543208D01*
X552190Y436717D02*
X554454Y434454D01*
X575000Y407000D02*
Y411660D01*
X569390Y417270D02*
X575000Y411660D01*
X568730Y417270D02*
X569390D01*
X554454Y431546D02*
X568730Y417270D01*
X554454Y431546D02*
Y434454D01*
X121250Y315000D02*
X181000D01*
X162550Y319450D02*
X205000D01*
X28000Y377000D02*
Y400000D01*
X286540Y324540D02*
X292000Y330000D01*
X286448Y324540D02*
X286540D01*
X286356Y324448D02*
X286448Y324540D01*
X285040Y324448D02*
X286356D01*
X283552Y322960D02*
X285040Y324448D01*
X283460Y322960D02*
X283552D01*
X906000Y588000D02*
X911500D01*
X278000Y317500D02*
X283460Y322960D01*
X259000Y306750D02*
X310750D01*
X314000Y310000D01*
X607000Y407000D02*
Y415500D01*
Y398500D02*
Y407000D01*
X56250Y445000D02*
X69000D01*
X506999Y335999D02*
X508999D01*
X510000Y337000D01*
X553000D01*
X91800Y387600D02*
X93870D01*
X106410Y375060D01*
X78940Y400140D02*
X91800Y413000D01*
X53540Y400140D02*
X66400Y413000D01*
X28000Y400000D02*
X41000Y413000D01*
X638000Y277000D02*
X638400Y276600D01*
Y259000D02*
Y276600D01*
X553000Y269330D02*
X562200Y260130D01*
Y259000D02*
Y260130D01*
X553000Y269330D02*
Y337000D01*
X645000Y296000D02*
X646000D01*
X659540Y309540D01*
X637000Y369000D02*
X637460Y368540D01*
X720000Y415000D02*
X720259Y414741D01*
X738259D01*
X738500Y414500D01*
X567000Y310000D02*
X569000Y308000D01*
X567000Y310000D02*
Y323000D01*
X527000Y369000D02*
X553000D01*
X500000Y35000D02*
X565000D01*
X898000Y485000D02*
X919000D01*
X906000Y487000D02*
Y512000D01*
X885000Y588000D02*
X906000D01*
Y562000D02*
Y587000D01*
X879000Y504000D02*
Y580000D01*
X860000Y599000D02*
X879000Y580000D01*
X536000Y599000D02*
X860000D01*
X879000Y504000D02*
X898000Y485000D01*
X313127Y376127D02*
X536000Y599000D01*
X911500Y585000D02*
Y588000D01*
X865000Y608000D02*
X885000Y588000D01*
X527000Y608000D02*
X865000D01*
X587750Y456750D02*
X588000Y457000D01*
X601750D01*
X548000Y353000D02*
X553000D01*
X540999Y345999D02*
X548000Y353000D01*
X516999Y345999D02*
X540999D01*
X553000Y345000D02*
X560604D01*
X599000Y338000D02*
Y339000D01*
X244250Y360000D02*
Y370250D01*
Y378250D01*
X158750Y180000D02*
X159000Y180250D01*
X176250D01*
X192500Y275000D02*
X205000D01*
X185000Y267500D02*
X192500Y275000D01*
X185000Y189000D02*
Y267500D01*
X176250Y180250D02*
X185000Y189000D01*
X300751Y317500D02*
X307251Y324000D01*
X292250Y317500D02*
X300751D01*
X307251Y324000D02*
X310000D01*
X275600Y332150D02*
X277750Y330000D01*
X259000Y332150D02*
X275600D01*
X691000Y385000D02*
X715000D01*
X718500Y388500D01*
X738500D01*
X124750Y180000D02*
Y194000D01*
X56000Y179800D02*
X124750D01*
Y180000D01*
X304126Y385126D02*
X527000Y608000D01*
X348000Y301000D02*
X462000Y415000D01*
X337000Y301000D02*
X348000D01*
X333000Y297000D02*
X337000Y301000D01*
X346000Y305000D02*
X465000Y424000D01*
X338000Y305000D02*
X346000D01*
X333000Y310000D02*
X338000Y305000D01*
X222000Y382000D02*
X229000Y375000D01*
Y302000D02*
Y375000D01*
Y302000D02*
X243300Y287700D01*
X627169Y353000D02*
X637000D01*
X614000Y366169D02*
X627169Y353000D01*
X614000Y366169D02*
Y368000D01*
X639000Y361000D02*
X652000D01*
X637000D02*
X638000Y360000D01*
X632000Y457000D02*
X632000Y457000D01*
X616250Y457000D02*
X632000D01*
X601750D02*
X601750Y457000D01*
Y427000D02*
Y457000D01*
X462000Y415000D02*
X499000D01*
X465000Y424000D02*
X485000D01*
X310000Y324000D02*
X310250Y324250D01*
X323000D01*
X541500Y421500D02*
X546000Y417000D01*
X538783Y423783D02*
X541283Y421283D01*
X518000Y393000D02*
X553000D01*
X553000Y393000D01*
X637000Y385000D02*
X658000D01*
X658500Y384500D01*
X644898Y393471D02*
X645318Y393890D01*
X637471Y393471D02*
X644898D01*
X637000Y393000D02*
X637471Y393471D01*
X591000Y390000D02*
Y407000D01*
X623000Y404906D02*
X624136Y403770D01*
X623000Y404906D02*
Y407000D01*
X599000Y338000D02*
X599000Y338000D01*
Y323000D02*
Y338000D01*
X660000Y35000D02*
Y40000D01*
X405000Y35000D02*
X470000D01*
X310000Y35000D02*
X375000D01*
X310000Y150000D02*
X375000D01*
X405000D02*
X470000D01*
X500000D02*
X565000D01*
X595000Y35000D02*
X660000D01*
X539000Y424000D02*
X541500Y421500D01*
X525499Y432499D02*
X530066D01*
X567000Y407000D02*
Y412000D01*
X562000Y417000D02*
X567000Y412000D01*
X546000Y417000D02*
X562000D01*
X507000Y470000D02*
X521000D01*
X505000D02*
X507000D01*
X505000Y457000D02*
Y470000D01*
X507000Y468500D02*
X547500Y428000D01*
X548000D01*
X521000Y470000D02*
X525745Y465255D01*
Y464274D02*
Y465255D01*
X505000Y457000D02*
X511575Y450425D01*
Y450425D02*
Y450425D01*
X530066Y432499D02*
X538783Y423783D01*
X525000Y432000D02*
X525499Y432499D01*
X541283Y421283D02*
X541283D01*
X542812Y446623D02*
X554717Y434717D01*
X607000Y415500D02*
X615500Y424000D01*
X310000Y283000D02*
X311000D01*
X311250Y282750D01*
X323000D01*
X802500Y382000D02*
X817000D01*
X830000Y388000D02*
Y441000D01*
X817741Y375741D02*
X830000Y388000D01*
X802741Y375741D02*
X817741D01*
X802000Y441000D02*
X820000D01*
X809000Y462000D02*
X830000Y441000D01*
X731000Y449000D02*
X742750Y437250D01*
X731000Y449000D02*
Y452000D01*
X741000Y462000D02*
X749000D01*
X731000Y452000D02*
X741000Y462000D01*
X749000Y441000D02*
Y443500D01*
X771000Y441000D02*
X771000Y441000D01*
X787500D01*
X771000Y462000D02*
X787500D01*
X802000D02*
X809000D01*
X802500Y375500D02*
X802741Y375741D01*
X165200Y325800D02*
X205000D01*
X243300Y287700D02*
X259000D01*
X286500Y270500D02*
X294000Y263000D01*
X278000Y270500D02*
X286500D01*
X278000D02*
Y270750D01*
X273750Y275000D02*
X278000Y270750D01*
X259000Y275000D02*
X273750D01*
X259000D02*
Y281350D01*
X294000Y263000D02*
Y278500D01*
X275300Y287700D02*
X278000Y285000D01*
X259000Y287700D02*
X275300D01*
X292950Y294050D02*
X294000Y293000D01*
X259000Y294050D02*
X292950D01*
X276040Y339040D02*
X302873Y365873D01*
X265320Y339040D02*
X276040D01*
X264780Y338500D02*
X265320Y339040D01*
X259000Y338500D02*
X264780D01*
X293874Y374473D02*
Y374874D01*
X264250Y344850D02*
X293874Y374473D01*
X259000Y344850D02*
X264250D01*
X195600Y300400D02*
X205000D01*
X181000Y315000D02*
X195600Y300400D01*
X173000Y332000D02*
X186000D01*
X166126Y338873D02*
X173000Y332000D01*
X176126Y348873D02*
X186500Y338500D01*
X205000D01*
X185548Y359295D02*
X199992Y344850D01*
X310600Y300400D02*
X314000Y297000D01*
X259000Y300400D02*
X310600D01*
X185000Y294000D02*
X204950D01*
X205000Y294050D01*
X602230Y304000D02*
X602250D01*
X599000Y307230D02*
X602230Y304000D01*
X599000Y307230D02*
Y323000D01*
X591000Y422000D02*
X591000Y422000D01*
Y407000D02*
Y422000D01*
X186000Y360000D02*
X186250D01*
X199992Y344850D02*
X205000D01*
X186150Y332150D02*
X205000D01*
X186000Y332000D02*
X186150Y332150D01*
X250900Y313100D02*
X259000D01*
X205150Y332000D02*
X214000D01*
X205000Y332150D02*
X205150Y332000D01*
X214000D02*
X219000Y337000D01*
Y370000D01*
X139250Y180000D02*
X158750D01*
X121000Y302000D02*
X121250Y302250D01*
Y315000D01*
X105750D02*
X106750Y314000D01*
X56000Y315000D02*
X105750D01*
X822500Y364500D02*
Y364750D01*
X818250Y369000D02*
X822500Y364750D01*
X802500Y369000D02*
X818250D01*
X802500Y343000D02*
X815750D01*
X822500Y349750D01*
Y350000D01*
X870000Y364612D02*
Y365000D01*
X835388Y330000D02*
X870000Y364612D01*
X807500Y330000D02*
X835388D01*
D20*
X60000Y494000D02*
D03*
X72000D02*
D03*
X66000Y469000D02*
D03*
D21*
X81000Y467000D02*
D03*
X51000D02*
D03*
D22*
X56250Y445000D02*
D03*
X41750D02*
D03*
X69000D02*
D03*
X83500D02*
D03*
X186750Y154000D02*
D03*
X201250D02*
D03*
X616250Y457000D02*
D03*
X601750D02*
D03*
X288250Y645000D02*
D03*
X273750D02*
D03*
X714750Y400000D02*
D03*
X700250D02*
D03*
X802000Y441000D02*
D03*
X787500D02*
D03*
X802000Y462000D02*
D03*
X787500D02*
D03*
X589250Y427000D02*
D03*
X574750Y427000D02*
D03*
X616250Y427000D02*
D03*
X601750D02*
D03*
X602250Y304000D02*
D03*
X587750Y304000D02*
D03*
X139250Y180000D02*
D03*
X124750D02*
D03*
X121250Y315000D02*
D03*
X106750D02*
D03*
X277750Y331000D02*
D03*
X292250D02*
D03*
X277750Y317000D02*
D03*
X292250D02*
D03*
D23*
X157500Y511000D02*
D03*
Y469000D02*
D03*
D24*
X823000Y363250D02*
D03*
Y348750D02*
D03*
X294000Y293000D02*
D03*
Y278500D02*
D03*
X278000Y285000D02*
D03*
Y270500D02*
D03*
X323000Y309750D02*
D03*
Y324250D02*
D03*
Y297250D02*
D03*
Y282750D02*
D03*
D25*
X632000Y457000D02*
D03*
X654000D02*
D03*
X749000Y441000D02*
D03*
X771000D02*
D03*
X749000Y462000D02*
D03*
X771000D02*
D03*
D26*
X527575Y465425D02*
D03*
X542425Y450575D02*
D03*
X525425Y433575D02*
D03*
X510575Y448425D02*
D03*
D27*
X554717Y434717D02*
D03*
X541283Y421283D02*
D03*
D28*
X548000Y428000D02*
D03*
D29*
X811000Y490000D02*
D03*
X769000D02*
D03*
D30*
X159000Y196750D02*
D03*
Y179750D02*
D03*
X121000Y302000D02*
D03*
Y285000D02*
D03*
D31*
X125000Y195000D02*
D03*
X115500Y219000D02*
D03*
X134500Y219000D02*
D03*
X151500Y315000D02*
D03*
X161000Y291000D02*
D03*
X142000Y291000D02*
D03*
D32*
X185126Y358873D02*
D03*
X174874Y369127D02*
D03*
X176126Y348873D02*
D03*
X165874Y359127D02*
D03*
X166126Y338873D02*
D03*
X155873Y349127D02*
D03*
D33*
X259000Y275000D02*
D03*
Y281350D02*
D03*
Y287700D02*
D03*
Y294050D02*
D03*
Y300400D02*
D03*
Y306750D02*
D03*
Y313100D02*
D03*
Y319450D02*
D03*
Y325800D02*
D03*
Y332150D02*
D03*
Y338500D02*
D03*
Y344850D02*
D03*
X205000Y275000D02*
D03*
Y281350D02*
D03*
Y287700D02*
D03*
Y294050D02*
D03*
Y300400D02*
D03*
Y306750D02*
D03*
Y313100D02*
D03*
Y319450D02*
D03*
Y325800D02*
D03*
Y332150D02*
D03*
Y338500D02*
D03*
Y344850D02*
D03*
D34*
X292873Y375873D02*
D03*
X303127Y386127D02*
D03*
X303874Y364874D02*
D03*
X314126Y375126D02*
D03*
D35*
X802500Y330000D02*
D03*
Y336500D02*
D03*
Y343000D02*
D03*
Y349500D02*
D03*
Y356000D02*
D03*
Y362500D02*
D03*
Y369000D02*
D03*
Y375500D02*
D03*
Y382000D02*
D03*
Y388500D02*
D03*
Y395000D02*
D03*
Y401500D02*
D03*
Y408000D02*
D03*
Y414500D02*
D03*
X738500Y330000D02*
D03*
Y336500D02*
D03*
X738500Y343000D02*
D03*
X738500Y349500D02*
D03*
Y356000D02*
D03*
Y362500D02*
D03*
Y369000D02*
D03*
Y375500D02*
D03*
X738500Y382000D02*
D03*
X738500Y388500D02*
D03*
X738500Y395000D02*
D03*
X738500Y401500D02*
D03*
X738500Y408000D02*
D03*
X738500Y414500D02*
D03*
D36*
X637000Y393000D02*
D03*
Y385000D02*
D03*
Y377000D02*
D03*
Y369000D02*
D03*
Y361000D02*
D03*
Y353000D02*
D03*
Y345000D02*
D03*
Y337000D02*
D03*
X553000D02*
D03*
X553000Y345000D02*
D03*
Y353000D02*
D03*
Y361000D02*
D03*
Y369000D02*
D03*
Y377000D02*
D03*
X553000Y385000D02*
D03*
Y393000D02*
D03*
D37*
X623000Y323000D02*
D03*
X615000D02*
D03*
X607000D02*
D03*
X599000D02*
D03*
X591000D02*
D03*
X583000D02*
D03*
X575000D02*
D03*
X567000D02*
D03*
Y407000D02*
D03*
X575000D02*
D03*
X583000D02*
D03*
X591000D02*
D03*
X599000Y407000D02*
D03*
X607000D02*
D03*
X615000Y407000D02*
D03*
X623000D02*
D03*
D70*
X770000Y371044D02*
Y385631D01*
X761704Y395000D02*
X769241Y387462D01*
X751000Y685000D02*
X769000Y667000D01*
X266000Y685000D02*
X751000D01*
X214365Y633365D02*
X266000Y685000D01*
X292000Y330000D02*
X292250D01*
X575000Y421000D02*
Y427000D01*
X583000Y379250D02*
X596500D01*
X582860D02*
X583000D01*
Y407000D01*
Y379110D02*
Y379250D01*
X42000Y436000D02*
Y445000D01*
X582860Y379250D02*
X583000Y379110D01*
X575000Y427000D02*
X577500D01*
X575000Y421000D02*
X583000Y413000D01*
Y407000D02*
Y413000D01*
X45000Y433000D02*
X100500D01*
X42000Y436000D02*
X45000Y433000D01*
X51000Y459768D02*
Y467000D01*
X41750Y450518D02*
X51000Y459768D01*
X41750Y445000D02*
Y450518D01*
X709126Y459126D02*
X740000Y490000D01*
X709126Y405624D02*
Y459126D01*
Y405624D02*
X714750Y400000D01*
X81000Y447500D02*
Y467000D01*
Y447500D02*
X83500Y445000D01*
X769000Y666000D02*
Y667000D01*
X299000Y645000D02*
X300000Y644000D01*
X288250Y645000D02*
X299000D01*
X214365Y527365D02*
Y633365D01*
X157500Y470500D02*
X214365Y527365D01*
X157500Y469000D02*
Y470500D01*
X300000Y452500D02*
Y644000D01*
X157500Y511000D02*
Y535000D01*
X137500Y555000D02*
X157500Y535000D01*
X137500Y555000D02*
Y570000D01*
X740000Y490000D02*
X769000D01*
X100500Y433000D02*
X118750Y451250D01*
X728000Y395000D02*
X738500D01*
X723000Y400000D02*
X728000Y395000D01*
X714750Y400000D02*
X723000D01*
X300000Y644000D02*
Y670000D01*
X118750Y451250D02*
X298750D01*
X300000Y452500D01*
Y405000D02*
Y452500D01*
X120000Y469000D02*
X157500D01*
X96000Y445000D02*
X120000Y469000D01*
X83500Y445000D02*
X96000D01*
X601366Y384116D02*
Y392206D01*
X596500Y379250D02*
X601366Y384116D01*
X599000Y394572D02*
X601366Y392206D01*
X599000Y394572D02*
Y407000D01*
X582110Y339640D02*
Y378500D01*
X575000Y332530D02*
X582110Y339640D01*
X575000Y323000D02*
Y332530D01*
X591000Y323000D02*
Y330750D01*
X582110Y339640D02*
X591000Y330750D01*
X250161Y325800D02*
X259000D01*
X259000Y325800D01*
X245000Y330961D02*
X250161Y325800D01*
X245000Y330961D02*
Y350000D01*
X300000Y405000D01*
X275800Y319450D02*
X277750Y317500D01*
X259000Y319450D02*
X275800D01*
X259000D02*
Y325800D01*
X778544Y362500D02*
X802500D01*
X770000Y371044D02*
X778544Y362500D01*
X738500Y395000D02*
X761704D01*
X849400Y390000D02*
Y451600D01*
X818730Y482270D02*
X849400Y451600D01*
X818730Y482270D02*
Y483770D01*
X812500Y490000D02*
X818730Y483770D01*
X811000Y490000D02*
X812500D01*
X601000Y418000D02*
Y424000D01*
X599000Y416000D02*
X601000Y418000D01*
X599000Y407000D02*
Y416000D01*
X587750Y304000D02*
X587770D01*
X591000Y307230D01*
Y323000D01*
D71*
X142600Y413000D02*
D03*
Y387600D02*
D03*
X117200D02*
D03*
Y413000D02*
D03*
X41000D02*
D03*
Y387600D02*
D03*
X66400Y413000D02*
D03*
Y387600D02*
D03*
X91800Y413000D02*
D03*
Y387600D02*
D03*
D72*
X107500Y523000D02*
D03*
D73*
X137500Y570000D02*
D03*
X77500D02*
D03*
D74*
X660000Y35000D02*
D03*
Y80000D02*
D03*
X595000Y35000D02*
D03*
Y80000D02*
D03*
Y195000D02*
D03*
Y150000D02*
D03*
X660000Y195000D02*
D03*
Y150000D02*
D03*
X565000Y150000D02*
D03*
Y195000D02*
D03*
X500000Y150000D02*
D03*
Y195000D02*
D03*
Y80000D02*
D03*
Y35000D02*
D03*
X565000Y80000D02*
D03*
Y35000D02*
D03*
X470000Y150000D02*
D03*
Y195000D02*
D03*
X405000Y150000D02*
D03*
Y195000D02*
D03*
Y80000D02*
D03*
Y35000D02*
D03*
X470000Y80000D02*
D03*
Y35000D02*
D03*
X375000Y150000D02*
D03*
Y195000D02*
D03*
X310000Y150000D02*
D03*
Y195000D02*
D03*
Y80000D02*
D03*
Y35000D02*
D03*
X375000Y80000D02*
D03*
Y35000D02*
D03*
D75*
X828000Y213000D02*
D03*
X778000D02*
D03*
X853000Y38000D02*
D03*
X803000D02*
D03*
X753000D02*
D03*
X56000Y179800D02*
D03*
Y315000D02*
D03*
D76*
X725500Y143000D02*
D03*
X883000Y145500D02*
D03*
D77*
X562200Y259000D02*
D03*
X587600D02*
D03*
X613000D02*
D03*
X638400D02*
D03*
X663800D02*
D03*
X325400Y670000D02*
D03*
X350800D02*
D03*
X300000D02*
D03*
X274600D02*
D03*
X195900Y665300D02*
D03*
X430900D02*
D03*
X432900Y427300D02*
D03*
X197900D02*
D03*
D78*
X906000Y537000D02*
D03*
X956000Y587000D02*
D03*
Y487000D02*
D03*
X981000D02*
D03*
Y587000D02*
D03*
X244250Y370250D02*
D03*
X219000Y370000D02*
D03*
D79*
X906000Y587000D02*
D03*
Y562000D02*
D03*
Y512000D02*
D03*
Y487000D02*
D03*
D80*
X956000Y537000D02*
D03*
D81*
X897100Y317300D02*
D03*
X898100Y438300D02*
D03*
D82*
X850000Y365000D02*
D03*
X870000D02*
D03*
X849400Y390000D02*
D03*
X870000D02*
D03*
D83*
X31000Y205800D02*
D03*
X81800D02*
D03*
X31000Y155000D02*
D03*
X81800D02*
D03*
X31000Y341000D02*
D03*
X81800D02*
D03*
X31000Y290200D02*
D03*
X81800D02*
D03*
D84*
X50000Y50000D02*
D03*
X950000D02*
D03*
X950000Y650000D02*
D03*
X50000D02*
D03*
D85*
X534000Y357000D02*
D03*
X526750Y369250D02*
D03*
X670000Y375000D02*
D03*
X592000Y388844D02*
D03*
X506999Y335999D02*
D03*
X596730Y550270D02*
D03*
X151000Y266000D02*
D03*
X700000Y300000D02*
D03*
X800000D02*
D03*
X250000Y250000D02*
D03*
X450000Y300000D02*
D03*
X692562Y451270D02*
D03*
X750000Y550000D02*
D03*
X350000Y350000D02*
D03*
Y600000D02*
D03*
Y500000D02*
D03*
X200000D02*
D03*
X472586Y508198D02*
D03*
X200000Y600000D02*
D03*
X950000Y200000D02*
D03*
Y100000D02*
D03*
X250000Y50000D02*
D03*
Y150000D02*
D03*
X150000Y50000D02*
D03*
X587750Y456750D02*
D03*
X614000Y389750D02*
D03*
X599000Y339000D02*
D03*
X691000Y385000D02*
D03*
X720000Y415000D02*
D03*
X121000Y238000D02*
D03*
X516999Y345999D02*
D03*
X614000Y368000D02*
D03*
X652000Y361000D02*
D03*
X499000Y415000D02*
D03*
X485000Y424000D02*
D03*
X310000Y324000D02*
D03*
X518000Y393000D02*
D03*
X658500Y384500D02*
D03*
X633000Y428000D02*
D03*
X505000Y470000D02*
D03*
X310000Y283000D02*
D03*
X731000Y452000D02*
D03*
X294000Y263000D02*
D03*
X185000Y294000D02*
D03*
X159000Y213000D02*
D03*
X121000Y266000D02*
D03*
D86*
X767410Y385631D02*
D03*
X769000Y666000D02*
D03*
X645000Y296000D02*
D03*
X569000Y308000D02*
D03*
M02*
