G04*
G04 #@! TF.GenerationSoftware,Altium Limited,Altium Designer,19.1.8 (144)*
G04*
G04 Layer_Color=8388736*
%FSLAX44Y44*%
%MOMM*%
G71*
G01*
G75*
%ADD38R,0.8032X2.0032*%
%ADD39R,0.8032X1.6032*%
%ADD40R,1.1532X1.1032*%
%ADD41R,1.7032X2.0032*%
%ADD42R,1.1032X1.1532*%
%ADD43R,1.0532X1.5532*%
G04:AMPARAMS|DCode=44|XSize=1.6032mm|YSize=1.1032mm|CornerRadius=0mm|HoleSize=0mm|Usage=FLASHONLY|Rotation=225.000|XOffset=0mm|YOffset=0mm|HoleType=Round|Shape=Rectangle|*
%AMROTATEDRECTD44*
4,1,4,0.1768,0.9569,0.9569,0.1768,-0.1768,-0.9569,-0.9569,-0.1768,0.1768,0.9569,0.0*
%
%ADD44ROTATEDRECTD44*%

G04:AMPARAMS|DCode=45|XSize=0.8032mm|YSize=1.5032mm|CornerRadius=0mm|HoleSize=0mm|Usage=FLASHONLY|Rotation=225.000|XOffset=0mm|YOffset=0mm|HoleType=Round|Shape=Rectangle|*
%AMROTATEDRECTD45*
4,1,4,-0.2475,0.8154,0.8154,-0.2475,0.2475,-0.8154,-0.8154,0.2475,-0.2475,0.8154,0.0*
%
%ADD45ROTATEDRECTD45*%

G04:AMPARAMS|DCode=46|XSize=0.6032mm|YSize=1.5032mm|CornerRadius=0mm|HoleSize=0mm|Usage=FLASHONLY|Rotation=225.000|XOffset=0mm|YOffset=0mm|HoleType=Round|Shape=Rectangle|*
%AMROTATEDRECTD46*
4,1,4,-0.3182,0.7447,0.7447,-0.3182,0.3182,-0.7447,-0.7447,0.3182,-0.3182,0.7447,0.0*
%
%ADD46ROTATEDRECTD46*%

%ADD47R,2.0032X1.7032*%
%ADD48R,1.2032X1.1032*%
%ADD49R,0.8032X1.2032*%
G04:AMPARAMS|DCode=50|XSize=1.1032mm|YSize=1.1532mm|CornerRadius=0mm|HoleSize=0mm|Usage=FLASHONLY|Rotation=45.000|XOffset=0mm|YOffset=0mm|HoleType=Round|Shape=Rectangle|*
%AMROTATEDRECTD50*
4,1,4,0.0177,-0.7978,-0.7978,0.0177,-0.0177,0.7978,0.7978,-0.0177,0.0177,-0.7978,0.0*
%
%ADD50ROTATEDRECTD50*%

%ADD51O,1.7032X0.6532*%
G04:AMPARAMS|DCode=52|XSize=1.1032mm|YSize=1.1532mm|CornerRadius=0mm|HoleSize=0mm|Usage=FLASHONLY|Rotation=315.000|XOffset=0mm|YOffset=0mm|HoleType=Round|Shape=Rectangle|*
%AMROTATEDRECTD52*
4,1,4,-0.7978,-0.0177,0.0177,0.7978,0.7978,0.0177,-0.0177,-0.7978,-0.7978,-0.0177,0.0*
%
%ADD52ROTATEDRECTD52*%

%ADD53O,1.7032X0.5832*%
%ADD54O,1.6032X0.7032*%
%ADD55O,0.7032X1.6032*%
%ADD56C,1.7032*%
G04:AMPARAMS|DCode=57|XSize=6.2032mm|YSize=3.2032mm|CornerRadius=1.3016mm|HoleSize=0mm|Usage=FLASHONLY|Rotation=180.000|XOffset=0mm|YOffset=0mm|HoleType=Round|Shape=RoundedRectangle|*
%AMROUNDEDRECTD57*
21,1,6.2032,0.6000,0,0,180.0*
21,1,3.6000,3.2032,0,0,180.0*
1,1,2.6032,-1.8000,0.3000*
1,1,2.6032,1.8000,0.3000*
1,1,2.6032,1.8000,-0.3000*
1,1,2.6032,-1.8000,-0.3000*
%
%ADD57ROUNDEDRECTD57*%
G04:AMPARAMS|DCode=58|XSize=6.2032mm|YSize=3.2032mm|CornerRadius=1.3016mm|HoleSize=0mm|Usage=FLASHONLY|Rotation=270.000|XOffset=0mm|YOffset=0mm|HoleType=Round|Shape=RoundedRectangle|*
%AMROUNDEDRECTD58*
21,1,6.2032,0.6000,0,0,270.0*
21,1,3.6000,3.2032,0,0,270.0*
1,1,2.6032,-0.3000,-1.8000*
1,1,2.6032,-0.3000,1.8000*
1,1,2.6032,0.3000,1.8000*
1,1,2.6032,0.3000,-1.8000*
%
%ADD58ROUNDEDRECTD58*%
%ADD59O,2.2032X3.2032*%
%ADD60C,2.7032*%
G04:AMPARAMS|DCode=61|XSize=4.2032mm|YSize=4.7032mm|CornerRadius=1.1016mm|HoleSize=0mm|Usage=FLASHONLY|Rotation=180.000|XOffset=0mm|YOffset=0mm|HoleType=Round|Shape=RoundedRectangle|*
%AMROUNDEDRECTD61*
21,1,4.2032,2.5000,0,0,180.0*
21,1,2.0000,4.7032,0,0,180.0*
1,1,2.2032,-1.0000,1.2500*
1,1,2.2032,1.0000,1.2500*
1,1,2.2032,1.0000,-1.2500*
1,1,2.2032,-1.0000,-1.2500*
%
%ADD61ROUNDEDRECTD61*%
%ADD62C,2.2032*%
%ADD63C,1.4032*%
%ADD64O,3.2032X1.7032*%
%ADD65O,1.7032X3.2032*%
%ADD66C,1.9032*%
G04:AMPARAMS|DCode=67|XSize=2.7032mm|YSize=2.7032mm|CornerRadius=0.7266mm|HoleSize=0mm|Usage=FLASHONLY|Rotation=0.000|XOffset=0mm|YOffset=0mm|HoleType=Round|Shape=RoundedRectangle|*
%AMROUNDEDRECTD67*
21,1,2.7032,1.2500,0,0,0.0*
21,1,1.2500,2.7032,0,0,0.0*
1,1,1.4532,0.6250,-0.6250*
1,1,1.4532,-0.6250,-0.6250*
1,1,1.4532,-0.6250,0.6250*
1,1,1.4532,0.6250,0.6250*
%
%ADD67ROUNDEDRECTD67*%
%ADD68C,6.2032*%
%ADD69C,1.4732*%
G36*
X69133Y511009D02*
X69264Y510984D01*
X69390Y510941D01*
X69509Y510882D01*
X69620Y510808D01*
X69720Y510720D01*
X76220Y504220D01*
X76308Y504120D01*
X76382Y504009D01*
X76441Y503890D01*
X76483Y503764D01*
X76509Y503633D01*
X76518Y503500D01*
Y484500D01*
X76509Y484367D01*
X76483Y484236D01*
X76441Y484110D01*
X76382Y483991D01*
X76308Y483880D01*
X76220Y483780D01*
X69720Y477280D01*
X69620Y477192D01*
X69509Y477118D01*
X69390Y477059D01*
X69264Y477016D01*
X69133Y476991D01*
X69000Y476982D01*
X63000Y476982D01*
X62867Y476991D01*
X62737Y477016D01*
X62610Y477059D01*
X62491Y477118D01*
X62380Y477192D01*
X62280Y477280D01*
X55780Y483780D01*
X55692Y483880D01*
X55618Y483991D01*
X55559Y484110D01*
X55517Y484236D01*
X55490Y484367D01*
X55482Y484500D01*
Y503500D01*
X55490Y503633D01*
X55517Y503764D01*
X55559Y503890D01*
X55618Y504009D01*
X55692Y504120D01*
X55780Y504220D01*
X62280Y510720D01*
X62380Y510808D01*
X62491Y510882D01*
X62610Y510941D01*
X62737Y510984D01*
X62867Y511009D01*
X63000Y511018D01*
X69000D01*
X69133Y511009D01*
D02*
G37*
D38*
X60000Y494000D02*
D03*
X72000D02*
D03*
X66000Y469000D02*
D03*
D39*
X81000Y467000D02*
D03*
X51000D02*
D03*
D40*
X56250Y445000D02*
D03*
X41750D02*
D03*
X69000D02*
D03*
X83500D02*
D03*
X186750Y154000D02*
D03*
X201250D02*
D03*
X616250Y457000D02*
D03*
X601750D02*
D03*
X288250Y645000D02*
D03*
X273750D02*
D03*
X714750Y400000D02*
D03*
X700250D02*
D03*
X802000Y441000D02*
D03*
X787500D02*
D03*
X802000Y462000D02*
D03*
X787500D02*
D03*
X589250Y427000D02*
D03*
X574750Y427000D02*
D03*
X616250Y427000D02*
D03*
X601750D02*
D03*
X602250Y304000D02*
D03*
X587750Y304000D02*
D03*
X139250Y180000D02*
D03*
X124750D02*
D03*
X121250Y315000D02*
D03*
X106750D02*
D03*
X277750Y331000D02*
D03*
X292250D02*
D03*
X277750Y317000D02*
D03*
X292250D02*
D03*
D41*
X157500Y511000D02*
D03*
Y469000D02*
D03*
D42*
X823000Y363250D02*
D03*
Y348750D02*
D03*
X294000Y293000D02*
D03*
Y278500D02*
D03*
X278000Y285000D02*
D03*
Y270500D02*
D03*
X323000Y309750D02*
D03*
Y324250D02*
D03*
Y297250D02*
D03*
Y282750D02*
D03*
D43*
X632000Y457000D02*
D03*
X654000D02*
D03*
X749000Y441000D02*
D03*
X771000D02*
D03*
X749000Y462000D02*
D03*
X771000D02*
D03*
D44*
X527575Y465425D02*
D03*
X542425Y450575D02*
D03*
X525425Y433575D02*
D03*
X510575Y448425D02*
D03*
D45*
X554717Y434717D02*
D03*
X541283Y421283D02*
D03*
D46*
X548000Y428000D02*
D03*
D47*
X811000Y490000D02*
D03*
X769000D02*
D03*
D48*
X159000Y196750D02*
D03*
Y179750D02*
D03*
X121000Y302000D02*
D03*
Y285000D02*
D03*
D49*
X125000Y195000D02*
D03*
X115500Y219000D02*
D03*
X134500Y219000D02*
D03*
X151500Y315000D02*
D03*
X161000Y291000D02*
D03*
X142000Y291000D02*
D03*
D50*
X185126Y358873D02*
D03*
X174874Y369127D02*
D03*
X176126Y348873D02*
D03*
X165874Y359127D02*
D03*
X166126Y338873D02*
D03*
X155873Y349127D02*
D03*
D51*
X259000Y275000D02*
D03*
Y281350D02*
D03*
Y287700D02*
D03*
Y294050D02*
D03*
Y300400D02*
D03*
Y306750D02*
D03*
Y313100D02*
D03*
Y319450D02*
D03*
Y325800D02*
D03*
Y332150D02*
D03*
Y338500D02*
D03*
Y344850D02*
D03*
X205000Y275000D02*
D03*
Y281350D02*
D03*
Y287700D02*
D03*
Y294050D02*
D03*
Y300400D02*
D03*
Y306750D02*
D03*
Y313100D02*
D03*
Y319450D02*
D03*
Y325800D02*
D03*
Y332150D02*
D03*
Y338500D02*
D03*
Y344850D02*
D03*
D52*
X292873Y375873D02*
D03*
X303127Y386127D02*
D03*
X303874Y364874D02*
D03*
X314126Y375126D02*
D03*
D53*
X802500Y330000D02*
D03*
Y336500D02*
D03*
Y343000D02*
D03*
Y349500D02*
D03*
Y356000D02*
D03*
Y362500D02*
D03*
Y369000D02*
D03*
Y375500D02*
D03*
Y382000D02*
D03*
Y388500D02*
D03*
Y395000D02*
D03*
Y401500D02*
D03*
Y408000D02*
D03*
Y414500D02*
D03*
X738500Y330000D02*
D03*
Y336500D02*
D03*
X738500Y343000D02*
D03*
X738500Y349500D02*
D03*
Y356000D02*
D03*
Y362500D02*
D03*
Y369000D02*
D03*
Y375500D02*
D03*
X738500Y382000D02*
D03*
X738500Y388500D02*
D03*
X738500Y395000D02*
D03*
X738500Y401500D02*
D03*
X738500Y408000D02*
D03*
X738500Y414500D02*
D03*
D54*
X637000Y393000D02*
D03*
Y385000D02*
D03*
Y377000D02*
D03*
Y369000D02*
D03*
Y361000D02*
D03*
Y353000D02*
D03*
Y345000D02*
D03*
Y337000D02*
D03*
X553000D02*
D03*
X553000Y345000D02*
D03*
Y353000D02*
D03*
Y361000D02*
D03*
Y369000D02*
D03*
Y377000D02*
D03*
X553000Y385000D02*
D03*
Y393000D02*
D03*
D55*
X623000Y323000D02*
D03*
X615000D02*
D03*
X607000D02*
D03*
X599000D02*
D03*
X591000D02*
D03*
X583000D02*
D03*
X575000D02*
D03*
X567000D02*
D03*
Y407000D02*
D03*
X575000D02*
D03*
X583000D02*
D03*
X591000D02*
D03*
X599000Y407000D02*
D03*
X607000D02*
D03*
X615000Y407000D02*
D03*
X623000D02*
D03*
D56*
X142600Y413000D02*
D03*
Y387600D02*
D03*
X117200D02*
D03*
Y413000D02*
D03*
X41000D02*
D03*
Y387600D02*
D03*
X66400Y413000D02*
D03*
Y387600D02*
D03*
X91800Y413000D02*
D03*
Y387600D02*
D03*
D57*
X107500Y523000D02*
D03*
D58*
X137500Y570000D02*
D03*
X77500D02*
D03*
D59*
X660000Y35000D02*
D03*
Y80000D02*
D03*
X595000Y35000D02*
D03*
Y80000D02*
D03*
Y195000D02*
D03*
Y150000D02*
D03*
X660000Y195000D02*
D03*
Y150000D02*
D03*
X565000Y150000D02*
D03*
Y195000D02*
D03*
X500000Y150000D02*
D03*
Y195000D02*
D03*
Y80000D02*
D03*
Y35000D02*
D03*
X565000Y80000D02*
D03*
Y35000D02*
D03*
X470000Y150000D02*
D03*
Y195000D02*
D03*
X405000Y150000D02*
D03*
Y195000D02*
D03*
Y80000D02*
D03*
Y35000D02*
D03*
X470000Y80000D02*
D03*
Y35000D02*
D03*
X375000Y150000D02*
D03*
Y195000D02*
D03*
X310000Y150000D02*
D03*
Y195000D02*
D03*
Y80000D02*
D03*
Y35000D02*
D03*
X375000Y80000D02*
D03*
Y35000D02*
D03*
D60*
X828000Y213000D02*
D03*
X778000D02*
D03*
X853000Y38000D02*
D03*
X803000D02*
D03*
X753000D02*
D03*
X56000Y179800D02*
D03*
Y315000D02*
D03*
D61*
X725500Y143000D02*
D03*
X883000Y145500D02*
D03*
D62*
X562200Y259000D02*
D03*
X587600D02*
D03*
X613000D02*
D03*
X638400D02*
D03*
X663800D02*
D03*
X325400Y670000D02*
D03*
X350800D02*
D03*
X300000D02*
D03*
X274600D02*
D03*
X195900Y665300D02*
D03*
X430900D02*
D03*
X432900Y427300D02*
D03*
X197900D02*
D03*
D63*
X906000Y537000D02*
D03*
X956000Y587000D02*
D03*
Y487000D02*
D03*
X981000D02*
D03*
Y587000D02*
D03*
X244250Y370250D02*
D03*
X219000Y370000D02*
D03*
D64*
X906000Y587000D02*
D03*
Y562000D02*
D03*
Y512000D02*
D03*
Y487000D02*
D03*
D65*
X956000Y537000D02*
D03*
D66*
X850000Y365000D02*
D03*
X870000D02*
D03*
X849400Y390000D02*
D03*
X870000D02*
D03*
D67*
X31000Y205800D02*
D03*
X81800D02*
D03*
X31000Y155000D02*
D03*
X81800D02*
D03*
X31000Y341000D02*
D03*
X81800D02*
D03*
X31000Y290200D02*
D03*
X81800D02*
D03*
D68*
X50000Y50000D02*
D03*
X950000D02*
D03*
X950000Y650000D02*
D03*
X50000D02*
D03*
D69*
X767410Y385631D02*
D03*
X769000Y666000D02*
D03*
M02*
