G04*
G04 #@! TF.GenerationSoftware,Altium Limited,Altium Designer,19.1.8 (144)*
G04*
G04 Layer_Color=16711935*
%FSLAX44Y44*%
%MOMM*%
G71*
G01*
G75*
%ADD42R,1.1032X1.1532*%
%ADD56C,1.7032*%
G04:AMPARAMS|DCode=57|XSize=6.2032mm|YSize=3.2032mm|CornerRadius=1.3016mm|HoleSize=0mm|Usage=FLASHONLY|Rotation=180.000|XOffset=0mm|YOffset=0mm|HoleType=Round|Shape=RoundedRectangle|*
%AMROUNDEDRECTD57*
21,1,6.2032,0.6000,0,0,180.0*
21,1,3.6000,3.2032,0,0,180.0*
1,1,2.6032,-1.8000,0.3000*
1,1,2.6032,1.8000,0.3000*
1,1,2.6032,1.8000,-0.3000*
1,1,2.6032,-1.8000,-0.3000*
%
%ADD57ROUNDEDRECTD57*%
G04:AMPARAMS|DCode=58|XSize=6.2032mm|YSize=3.2032mm|CornerRadius=1.3016mm|HoleSize=0mm|Usage=FLASHONLY|Rotation=270.000|XOffset=0mm|YOffset=0mm|HoleType=Round|Shape=RoundedRectangle|*
%AMROUNDEDRECTD58*
21,1,6.2032,0.6000,0,0,270.0*
21,1,3.6000,3.2032,0,0,270.0*
1,1,2.6032,-0.3000,-1.8000*
1,1,2.6032,-0.3000,1.8000*
1,1,2.6032,0.3000,1.8000*
1,1,2.6032,0.3000,-1.8000*
%
%ADD58ROUNDEDRECTD58*%
%ADD59O,2.2032X3.2032*%
%ADD60C,2.7032*%
G04:AMPARAMS|DCode=61|XSize=4.2032mm|YSize=4.7032mm|CornerRadius=1.1016mm|HoleSize=0mm|Usage=FLASHONLY|Rotation=180.000|XOffset=0mm|YOffset=0mm|HoleType=Round|Shape=RoundedRectangle|*
%AMROUNDEDRECTD61*
21,1,4.2032,2.5000,0,0,180.0*
21,1,2.0000,4.7032,0,0,180.0*
1,1,2.2032,-1.0000,1.2500*
1,1,2.2032,1.0000,1.2500*
1,1,2.2032,1.0000,-1.2500*
1,1,2.2032,-1.0000,-1.2500*
%
%ADD61ROUNDEDRECTD61*%
%ADD62C,2.2032*%
%ADD63C,1.4032*%
%ADD64O,3.2032X1.7032*%
%ADD65O,1.7032X3.2032*%
%ADD66C,1.9032*%
G04:AMPARAMS|DCode=67|XSize=2.7032mm|YSize=2.7032mm|CornerRadius=0.7266mm|HoleSize=0mm|Usage=FLASHONLY|Rotation=0.000|XOffset=0mm|YOffset=0mm|HoleType=Round|Shape=RoundedRectangle|*
%AMROUNDEDRECTD67*
21,1,2.7032,1.2500,0,0,0.0*
21,1,1.2500,2.7032,0,0,0.0*
1,1,1.4532,0.6250,-0.6250*
1,1,1.4532,-0.6250,-0.6250*
1,1,1.4532,-0.6250,0.6250*
1,1,1.4532,0.6250,0.6250*
%
%ADD67ROUNDEDRECTD67*%
%ADD68C,6.2032*%
%ADD69C,1.4732*%
%ADD88R,1.7032X6.2032*%
G04:AMPARAMS|DCode=89|XSize=3.2032mm|YSize=4.7032mm|CornerRadius=1.3016mm|HoleSize=0mm|Usage=FLASHONLY|Rotation=90.000|XOffset=0mm|YOffset=0mm|HoleType=Round|Shape=RoundedRectangle|*
%AMROUNDEDRECTD89*
21,1,3.2032,2.1000,0,0,90.0*
21,1,0.6000,4.7032,0,0,90.0*
1,1,2.6032,1.0500,0.3000*
1,1,2.6032,1.0500,-0.3000*
1,1,2.6032,-1.0500,-0.3000*
1,1,2.6032,-1.0500,0.3000*
%
%ADD89ROUNDEDRECTD89*%
D42*
X260000Y369750D02*
D03*
Y355250D02*
D03*
X202500Y369750D02*
D03*
Y355250D02*
D03*
D56*
X142600Y413000D02*
D03*
Y387600D02*
D03*
X117200D02*
D03*
Y413000D02*
D03*
X41000D02*
D03*
Y387600D02*
D03*
X66400Y413000D02*
D03*
Y387600D02*
D03*
X91800Y413000D02*
D03*
Y387600D02*
D03*
D57*
X107500Y523000D02*
D03*
D58*
X137500Y570000D02*
D03*
X77500D02*
D03*
D59*
X660000Y35000D02*
D03*
Y80000D02*
D03*
X595000Y35000D02*
D03*
Y80000D02*
D03*
Y195000D02*
D03*
Y150000D02*
D03*
X660000Y195000D02*
D03*
Y150000D02*
D03*
X565000Y150000D02*
D03*
Y195000D02*
D03*
X500000Y150000D02*
D03*
Y195000D02*
D03*
Y80000D02*
D03*
Y35000D02*
D03*
X565000Y80000D02*
D03*
Y35000D02*
D03*
X470000Y150000D02*
D03*
Y195000D02*
D03*
X405000Y150000D02*
D03*
Y195000D02*
D03*
Y80000D02*
D03*
Y35000D02*
D03*
X470000Y80000D02*
D03*
Y35000D02*
D03*
X375000Y150000D02*
D03*
Y195000D02*
D03*
X310000Y150000D02*
D03*
Y195000D02*
D03*
Y80000D02*
D03*
Y35000D02*
D03*
X375000Y80000D02*
D03*
Y35000D02*
D03*
D60*
X828000Y213000D02*
D03*
X778000D02*
D03*
X853000Y38000D02*
D03*
X803000D02*
D03*
X753000D02*
D03*
X56000Y179800D02*
D03*
Y315000D02*
D03*
D61*
X725500Y143000D02*
D03*
X883000Y145500D02*
D03*
D62*
X562200Y259000D02*
D03*
X587600D02*
D03*
X613000D02*
D03*
X638400D02*
D03*
X663800D02*
D03*
X325400Y670000D02*
D03*
X350800D02*
D03*
X300000D02*
D03*
X274600D02*
D03*
X195900Y665300D02*
D03*
X430900D02*
D03*
X432900Y427300D02*
D03*
X197900D02*
D03*
D63*
X906000Y537000D02*
D03*
X956000Y587000D02*
D03*
Y487000D02*
D03*
X981000D02*
D03*
Y587000D02*
D03*
X244250Y370250D02*
D03*
X219000Y370000D02*
D03*
D64*
X906000Y587000D02*
D03*
Y562000D02*
D03*
Y512000D02*
D03*
Y487000D02*
D03*
D65*
X956000Y537000D02*
D03*
D66*
X850000Y365000D02*
D03*
X870000D02*
D03*
X849400Y390000D02*
D03*
X870000D02*
D03*
D67*
X31000Y205800D02*
D03*
X81800D02*
D03*
X31000Y155000D02*
D03*
X81800D02*
D03*
X31000Y341000D02*
D03*
X81800D02*
D03*
X31000Y290200D02*
D03*
X81800D02*
D03*
D68*
X50000Y50000D02*
D03*
X950000D02*
D03*
X950000Y650000D02*
D03*
X50000D02*
D03*
D69*
X767410Y385631D02*
D03*
X769000Y666000D02*
D03*
D88*
X217250Y301000D02*
D03*
X246250Y301250D02*
D03*
D89*
X897100Y317300D02*
D03*
X898100Y438300D02*
D03*
M02*
