G04*
G04 #@! TF.GenerationSoftware,Altium Limited,Altium Designer,19.1.8 (144)*
G04*
G04 Layer_Color=8421504*
%FSLAX44Y44*%
%MOMM*%
G71*
G01*
G75*
%ADD20R,0.6000X1.8000*%
%ADD21R,0.6000X1.4000*%
%ADD22R,0.9500X0.9000*%
%ADD23R,1.5000X1.8000*%
%ADD24R,0.9000X0.9500*%
%ADD25R,0.8500X1.3500*%
G04:AMPARAMS|DCode=26|XSize=1.4mm|YSize=0.9mm|CornerRadius=0mm|HoleSize=0mm|Usage=FLASHONLY|Rotation=225.000|XOffset=0mm|YOffset=0mm|HoleType=Round|Shape=Rectangle|*
%AMROTATEDRECTD26*
4,1,4,0.1768,0.8132,0.8132,0.1768,-0.1768,-0.8132,-0.8132,-0.1768,0.1768,0.8132,0.0*
%
%ADD26ROTATEDRECTD26*%

G04:AMPARAMS|DCode=27|XSize=0.6mm|YSize=1.3mm|CornerRadius=0mm|HoleSize=0mm|Usage=FLASHONLY|Rotation=225.000|XOffset=0mm|YOffset=0mm|HoleType=Round|Shape=Rectangle|*
%AMROTATEDRECTD27*
4,1,4,-0.2475,0.6718,0.6718,-0.2475,0.2475,-0.6718,-0.6718,0.2475,-0.2475,0.6718,0.0*
%
%ADD27ROTATEDRECTD27*%

G04:AMPARAMS|DCode=28|XSize=0.4mm|YSize=1.3mm|CornerRadius=0mm|HoleSize=0mm|Usage=FLASHONLY|Rotation=225.000|XOffset=0mm|YOffset=0mm|HoleType=Round|Shape=Rectangle|*
%AMROTATEDRECTD28*
4,1,4,-0.3182,0.6010,0.6010,-0.3182,0.3182,-0.6010,-0.6010,0.3182,-0.3182,0.6010,0.0*
%
%ADD28ROTATEDRECTD28*%

%ADD29R,1.8000X1.5000*%
%ADD30R,1.0000X0.9000*%
%ADD31R,0.6000X1.0000*%
G04:AMPARAMS|DCode=32|XSize=0.9mm|YSize=0.95mm|CornerRadius=0mm|HoleSize=0mm|Usage=FLASHONLY|Rotation=45.000|XOffset=0mm|YOffset=0mm|HoleType=Round|Shape=Rectangle|*
%AMROTATEDRECTD32*
4,1,4,0.0177,-0.6541,-0.6541,0.0177,-0.0177,0.6541,0.6541,-0.0177,0.0177,-0.6541,0.0*
%
%ADD32ROTATEDRECTD32*%

%ADD33O,1.5000X0.4500*%
G04:AMPARAMS|DCode=34|XSize=0.9mm|YSize=0.95mm|CornerRadius=0mm|HoleSize=0mm|Usage=FLASHONLY|Rotation=315.000|XOffset=0mm|YOffset=0mm|HoleType=Round|Shape=Rectangle|*
%AMROTATEDRECTD34*
4,1,4,-0.6541,-0.0177,0.0177,0.6541,0.6541,0.0177,-0.0177,-0.6541,-0.6541,-0.0177,0.0*
%
%ADD34ROTATEDRECTD34*%

%ADD35O,1.5000X0.3800*%
%ADD36O,1.4000X0.5000*%
%ADD37O,0.5000X1.4000*%
G36*
X75500Y503500D02*
Y484500D01*
X69000Y478000D01*
X63000Y478000D01*
X56500Y484500D01*
Y503500D01*
X63000Y510000D01*
X69000D01*
X75500Y503500D01*
D02*
G37*
D20*
X60000Y494000D02*
D03*
X72000D02*
D03*
X66000Y469000D02*
D03*
D21*
X81000Y467000D02*
D03*
X51000D02*
D03*
D22*
X56250Y445000D02*
D03*
X41750D02*
D03*
X69000D02*
D03*
X83500D02*
D03*
X186750Y154000D02*
D03*
X201250D02*
D03*
X616250Y457000D02*
D03*
X601750D02*
D03*
X288250Y645000D02*
D03*
X273750D02*
D03*
X714750Y400000D02*
D03*
X700250D02*
D03*
X802000Y441000D02*
D03*
X787500D02*
D03*
X802000Y462000D02*
D03*
X787500D02*
D03*
X589250Y427000D02*
D03*
X574750Y427000D02*
D03*
X616250Y427000D02*
D03*
X601750D02*
D03*
X602250Y304000D02*
D03*
X587750Y304000D02*
D03*
X139250Y180000D02*
D03*
X124750D02*
D03*
X121250Y315000D02*
D03*
X106750D02*
D03*
X277750Y331000D02*
D03*
X292250D02*
D03*
X277750Y317000D02*
D03*
X292250D02*
D03*
D23*
X157500Y511000D02*
D03*
Y469000D02*
D03*
D24*
X823000Y363250D02*
D03*
Y348750D02*
D03*
X294000Y293000D02*
D03*
Y278500D02*
D03*
X278000Y285000D02*
D03*
Y270500D02*
D03*
X323000Y309750D02*
D03*
Y324250D02*
D03*
Y297250D02*
D03*
Y282750D02*
D03*
D25*
X632000Y457000D02*
D03*
X654000D02*
D03*
X749000Y441000D02*
D03*
X771000D02*
D03*
X749000Y462000D02*
D03*
X771000D02*
D03*
D26*
X527575Y465425D02*
D03*
X542425Y450575D02*
D03*
X525425Y433575D02*
D03*
X510575Y448425D02*
D03*
D27*
X554717Y434717D02*
D03*
X541283Y421283D02*
D03*
D28*
X548000Y428000D02*
D03*
D29*
X811000Y490000D02*
D03*
X769000D02*
D03*
D30*
X159000Y196750D02*
D03*
Y179750D02*
D03*
X121000Y302000D02*
D03*
Y285000D02*
D03*
D31*
X125000Y195000D02*
D03*
X115500Y219000D02*
D03*
X134500Y219000D02*
D03*
X151500Y315000D02*
D03*
X161000Y291000D02*
D03*
X142000Y291000D02*
D03*
D32*
X185126Y358873D02*
D03*
X174874Y369127D02*
D03*
X176126Y348873D02*
D03*
X165874Y359127D02*
D03*
X166126Y338873D02*
D03*
X155873Y349127D02*
D03*
D33*
X259000Y275000D02*
D03*
Y281350D02*
D03*
Y287700D02*
D03*
Y294050D02*
D03*
Y300400D02*
D03*
Y306750D02*
D03*
Y313100D02*
D03*
Y319450D02*
D03*
Y325800D02*
D03*
Y332150D02*
D03*
Y338500D02*
D03*
Y344850D02*
D03*
X205000Y275000D02*
D03*
Y281350D02*
D03*
Y287700D02*
D03*
Y294050D02*
D03*
Y300400D02*
D03*
Y306750D02*
D03*
Y313100D02*
D03*
Y319450D02*
D03*
Y325800D02*
D03*
Y332150D02*
D03*
Y338500D02*
D03*
Y344850D02*
D03*
D34*
X292873Y375873D02*
D03*
X303127Y386127D02*
D03*
X303874Y364874D02*
D03*
X314126Y375126D02*
D03*
D35*
X802500Y330000D02*
D03*
Y336500D02*
D03*
Y343000D02*
D03*
Y349500D02*
D03*
Y356000D02*
D03*
Y362500D02*
D03*
Y369000D02*
D03*
Y375500D02*
D03*
Y382000D02*
D03*
Y388500D02*
D03*
Y395000D02*
D03*
Y401500D02*
D03*
Y408000D02*
D03*
Y414500D02*
D03*
X738500Y330000D02*
D03*
Y336500D02*
D03*
X738500Y343000D02*
D03*
X738500Y349500D02*
D03*
Y356000D02*
D03*
Y362500D02*
D03*
Y369000D02*
D03*
Y375500D02*
D03*
X738500Y382000D02*
D03*
X738500Y388500D02*
D03*
X738500Y395000D02*
D03*
X738500Y401500D02*
D03*
X738500Y408000D02*
D03*
X738500Y414500D02*
D03*
D36*
X637000Y393000D02*
D03*
Y385000D02*
D03*
Y377000D02*
D03*
Y369000D02*
D03*
Y361000D02*
D03*
Y353000D02*
D03*
Y345000D02*
D03*
Y337000D02*
D03*
X553000D02*
D03*
X553000Y345000D02*
D03*
Y353000D02*
D03*
Y361000D02*
D03*
Y369000D02*
D03*
Y377000D02*
D03*
X553000Y385000D02*
D03*
Y393000D02*
D03*
D37*
X623000Y323000D02*
D03*
X615000D02*
D03*
X607000D02*
D03*
X599000D02*
D03*
X591000D02*
D03*
X583000D02*
D03*
X575000D02*
D03*
X567000D02*
D03*
Y407000D02*
D03*
X575000D02*
D03*
X583000D02*
D03*
X591000D02*
D03*
X599000Y407000D02*
D03*
X607000D02*
D03*
X615000Y407000D02*
D03*
X623000D02*
D03*
M02*
